<svg width="1440" height="782" viewBox="0 0 1440 782" fill="none" xmlns="http://www.w3.org/2000/svg">
<path d="M1.13815 424.953C0.279275 434.621 -0.923148 529.864 1.13815 833.494V894H1452.8C1536.63 820.659 1522.89 756.78 1420 317.944C1316.5 -123.501 958.818 66.5683 905.792 203.001C899.185 220 713.679 483.829 442 329.014C170.321 174.198 38.2405 324.777 1.13815 424.953Z" fill="#52A3C1" stroke="#52A3C1" stroke-opacity="0.3" stroke-width="84"/>
<path d="M64 362C118.275 306.134 268.46 225.328 435 349.031" stroke="white" stroke-opacity="0.77" stroke-width="24" stroke-linecap="round"/>
<path d="M984 178C1028.3 105.607 1158.94 -7.83767 1335 165.038" stroke="white" stroke-opacity="0.77" stroke-width="24" stroke-linecap="round"/>
<path d="M583.5 396C637.667 419.833 768.5 438.5 858.5 322.5" stroke="white" stroke-opacity="0.77" stroke-width="24" stroke-linecap="round"/>
</svg>
