<svg viewBox="0 0 386 319" fill="none" xmlns="http://www.w3.org/2000/svg">
<g filter="url(#filter0_d_1617_26)">
<path d="M374.57 6.55541L133.37 298.955C133.37 298.955 132.17 302.055 134.77 303.855C137.27 305.655 140.47 303.455 143.27 300.455C146.17 297.555 378.17 13.9554 379.97 11.9554C381.87 10.0554 382.37 6.85538 380.07 5.15538C377.17 3.05538 374.57 6.55541 374.57 6.55541Z" fill="#C68652"/>
<path d="M243.77 1.75391C243.77 1.75391 46.0699 209.854 15.4699 245.254C14.5699 246.254 13.7699 248.254 15.9699 250.754C16.0699 250.854 17.8699 252.954 18.0699 253.054C20.4699 254.354 22.2699 250.354 25.0699 247.654C28.0699 244.754 248.27 7.9539 250.17 6.0539C251.57 4.7539 254.07 4.7539 253.57 3.0539C253.37 2.3539 250.57 0.753888 249.57 0.353888C246.27 -0.946112 243.77 1.75391 243.77 1.75391Z" fill="#BF804C"/>
<path d="M247.068 3.1558L17.868 247.956C17.468 248.456 17.168 248.956 17.068 249.456C16.868 250.556 16.968 252.256 18.568 253.556C21.068 255.356 24.268 253.256 27.168 250.356C30.168 247.456 250.468 10.7558 252.368 8.85581C254.268 6.95581 254.868 3.75578 252.568 1.95578C249.768 -0.244217 247.068 3.1558 247.068 3.1558Z" fill="#D39359"/>
<path d="M202.573 55.6523C202.573 55.6523 223.873 174.552 234.573 220.152C234.873 221.352 236.073 223.252 239.273 222.952C239.473 222.952 242.273 222.652 242.373 222.552C244.873 221.352 242.673 217.552 242.173 213.752C241.573 209.652 210.373 56.5523 209.973 53.8523C209.673 52.0523 211.073 49.9523 209.473 49.3523C208.773 49.1523 205.673 50.2523 204.773 50.4523C201.373 51.4523 202.573 55.6523 202.573 55.6523Z" fill="#CE8E55"/>
<path d="M205.769 54.6518L238.169 219.752C238.369 220.352 238.569 220.852 238.969 221.252C239.769 222.052 241.169 223.052 243.069 222.452C246.069 221.552 246.169 217.652 245.569 213.552C244.969 209.552 213.869 56.3518 213.369 53.7518C212.969 51.0518 210.769 48.7518 208.069 49.5518C204.569 50.5518 205.769 54.6518 205.769 54.6518Z" fill="#DC9F5E"/>
<path d="M211.772 54.853C211.772 55.853 210.972 56.653 210.072 56.553C209.172 56.453 208.472 55.453 208.572 54.453C208.572 53.353 209.372 52.553 210.272 52.653C211.172 52.753 211.872 53.753 211.772 54.853Z" fill="#CE8E55"/>
<path d="M249.373 8.05242C248.273 7.95242 247.873 12.4524 249.173 12.5524C250.373 12.5524 370.573 17.3524 370.573 17.3524C371.173 17.3524 371.773 16.8524 371.773 16.2524L371.873 14.0524C371.873 13.4524 371.473 12.8524 370.773 12.8524C370.773 12.8524 250.473 8.05242 249.373 8.05242Z" fill="#DC9F5E"/>
<path d="M33.8737 236.453C32.8737 236.153 31.1737 240.253 32.3737 240.753C33.4737 241.153 148.874 282.753 148.874 282.753C149.474 282.953 150.174 282.653 150.374 282.053L151.074 280.053C151.374 279.453 150.974 278.753 150.474 278.553C150.474 278.553 34.9737 236.853 33.8737 236.453Z" fill="#DC9F5E"/>
<path d="M40.3719 192.054C39.2719 191.654 37.6719 195.854 38.8719 196.254C39.9719 196.654 155.872 236.854 155.872 236.854C156.472 237.054 157.172 236.754 157.372 236.154L158.072 234.054C158.272 233.454 157.972 232.754 157.372 232.554C157.372 232.554 41.3719 192.454 40.3719 192.054Z" fill="#DC9F5E"/>
<path d="M27.1675 245.656C26.0675 245.256 24.3676 249.456 25.5676 249.856C26.7676 250.256 142.068 291.956 142.068 291.956C142.668 292.156 143.368 291.856 143.568 291.256L144.368 289.156C144.568 288.556 144.268 287.956 143.668 287.756C143.668 287.756 28.1675 246.056 27.1675 245.656Z" fill="#DC9F5E"/>
<path d="M286.87 187.057C227.97 220.357 160.17 222.457 147.77 224.857C133.97 227.757 133.07 247.757 133.17 254.857C133.17 256.057 131.97 256.957 130.87 256.557L9.97031 217.857C9.97031 217.857 7.57031 183.157 15.5703 182.557C95.9703 176.057 148.47 151.857 170.87 137.157C244.57 88.857 246.77 9.95703 246.77 9.95703L362.47 14.8571C362.47 14.8571 362.87 144.157 286.87 187.057Z" fill="white"/>
<path d="M361.672 31.6555L242.372 24.0555C241.572 20.2555 242.572 11.8555 242.972 8.85547C243.072 8.25547 243.572 7.85547 244.172 7.85547L363.572 12.5555C363.572 12.5555 361.472 22.3555 361.672 31.6555Z" fill="#DBDDDD"/>
<path fill-rule="evenodd" clip-rule="evenodd" d="M255.971 8.35424L244.271 7.95422C243.571 7.85422 243.071 8.35422 242.971 8.95422C229.071 112.454 155.371 167.054 36.3705 176.454C-11.8295 180.254 8.07056 217.854 8.07056 217.854L16.2705 219.054C7.37054 182.954 40.0706 184.954 45.0706 184.454C232.471 166.654 248.471 37.3542 255.971 8.35424ZM285.171 9.65423L272.371 9.25426C224.471 144.354 171.371 171.154 34.2705 189.554C20.3705 191.354 22.0706 221.654 22.0706 221.654L34.9706 225.754C37.6706 197.854 40.1706 196.554 67.0706 192.954C172.971 179.054 261.171 140.254 285.171 9.65423ZM310.071 10.6542L297.371 9.95422C271.671 157.854 177.371 177.854 65.1705 196.654C39.1705 201.054 43.8705 228.654 43.8705 228.654L58.8705 233.454C61.5705 217.054 59.5706 202.454 101.571 196.954C216.171 181.854 296.471 141.454 310.071 10.6542ZM337.371 11.5543L324.671 10.7543C298.971 146.854 227.771 184.054 119.271 198.154C107.371 199.654 81.8706 205.754 75.4706 218.154C71.3706 225.954 70.5706 237.154 70.5706 237.154L88.2705 242.754C88.2705 225.654 105.771 206.954 134.271 203.854C241.471 191.854 312.071 168.754 337.371 11.5543ZM360.071 12.4542L346.971 12.1542C318.271 146.154 272.771 200.854 150.971 205.454C105.471 207.254 101.071 246.854 101.071 246.854L117.371 252.054C119.971 230.554 126.671 215.354 158.571 215.354C263.471 215.354 349.771 166.454 360.071 12.4542Z" fill="#F75959"/>
<path fill-rule="evenodd" clip-rule="evenodd" d="M240.367 24.6537C242.267 18.4537 241.367 14.5538 241.767 9.85376C241.867 8.65376 242.767 7.85373 244.067 7.95373L255.767 8.45373C254.767 12.4537 253.567 18.4538 251.767 25.7538C248.767 24.8538 245.267 24.4538 241.467 24.5538C241.067 24.5538 240.767 24.6537 240.367 24.6537ZM266.267 25.8538C266.334 25.7871 266.367 25.6871 266.367 25.5538C268.367 20.2871 270.367 14.8538 272.367 9.25378L285.167 9.65375C284.101 15.3871 282.934 20.9538 281.667 26.3538C280.601 26.0204 279.467 25.8538 278.267 25.8538C274.267 25.8538 270.267 25.9538 266.267 25.8538ZM342.867 30.4537C342.867 30.3871 342.867 30.3538 342.867 30.3538C344.267 24.4871 345.634 18.4204 346.967 12.1537L360.067 12.4537C359.667 18.6537 359.134 24.6537 358.467 30.4537C358.467 30.6537 358.434 30.8538 358.367 31.0538C358.067 31.0538 357.667 30.9537 357.267 30.9537C352.467 30.9537 347.667 30.6537 342.867 30.4537ZM320.767 29.1537C320.767 29.0871 320.767 29.0204 320.767 28.9537C322.167 23.0871 323.467 17.0204 324.667 10.7538L337.367 11.5538C336.367 17.8204 335.301 23.9204 334.167 29.8538C334.101 29.9204 334.067 30.0204 334.067 30.1537C333.801 30.1537 333.567 30.1537 333.367 30.1537C329.367 29.5537 324.867 28.8537 320.767 29.1537ZM294.367 27.6537C294.167 27.7204 294.001 27.7538 293.867 27.7538C293.867 27.6204 293.9 27.4871 293.967 27.3538C295.167 21.7538 296.301 15.9537 297.367 9.95373L310.067 10.6537C309.467 16.6537 308.701 22.4871 307.767 28.1537C307.167 28.1537 306.534 28.1204 305.867 28.0538C302.267 27.3538 298.067 27.4537 294.367 27.6537Z" fill="#DB5252"/>
<path d="M371.97 4.85557C371.97 4.85557 160.57 258.756 132.27 296.056C131.47 297.156 130.87 299.156 133.17 301.456C133.27 301.656 135.27 303.556 135.37 303.656C137.87 304.756 139.47 300.656 142.07 297.756C144.77 294.756 375.77 12.1556 377.57 10.1556C378.77 8.75556 381.27 8.55557 380.67 6.85557C380.47 6.25557 378.07 3.75557 377.37 3.35557C374.37 1.35557 371.97 4.85557 371.97 4.85557Z" fill="#CE8E55"/>
<path d="M374.27 7.45713L134.87 298.657C134.47 299.057 134.27 299.657 134.17 300.157C134.07 301.257 134.27 302.957 135.97 304.057C138.57 305.757 141.57 303.457 144.37 300.357C147.07 297.357 378.07 14.7572 379.87 12.7572C381.67 10.7572 382.07 7.55713 379.67 5.95713C376.67 3.95713 374.27 7.45713 374.27 7.45713Z" fill="#DC9F5E"/>
<path d="M378.368 11.857C377.768 12.757 376.668 12.957 375.968 12.357C375.268 11.757 375.268 10.557 375.868 9.75703C376.568 8.85703 377.568 8.65703 378.268 9.25703C378.968 9.85703 379.068 10.957 378.368 11.857Z" fill="#CE8E55"/>
<path d="M341.969 54.6528C341.969 54.6528 361.369 194.953 370.469 240.853C370.669 242.153 371.769 243.953 375.069 243.853C375.269 243.853 378.069 243.653 378.169 243.653C380.669 242.453 378.669 238.553 378.269 234.753C377.769 230.653 349.869 56.6528 349.569 53.9528C349.369 52.1528 350.869 50.1528 349.269 49.4528C348.569 49.2528 345.169 49.3528 344.369 49.5528C340.869 50.4528 341.969 54.6528 341.969 54.6528Z" fill="#CE8E55"/>
<path d="M345.367 54.6528L374.067 240.653C374.167 241.253 374.367 241.753 374.767 242.153C375.467 242.953 376.867 244.053 378.867 243.453C381.867 242.653 382.167 238.853 381.667 234.753C381.267 230.653 353.367 56.6528 353.067 53.9528C352.667 51.3528 350.567 48.8529 347.867 49.5529C344.367 50.4529 345.367 54.6528 345.367 54.6528Z" fill="#DC9F5E"/>
<path d="M351.372 54.5511C351.672 55.5511 351.072 56.551 350.172 56.651C349.272 56.751 348.372 56.051 348.172 54.951C347.872 53.951 348.472 52.9511 349.372 52.8511C350.272 52.6511 351.172 53.4511 351.372 54.5511Z" fill="#CE8E55"/>
<path d="M371.372 215.754C371.372 215.754 197.572 223.854 150.872 227.554C148.372 227.754 143.872 230.154 145.672 233.254C146.172 234.254 147.672 236.454 147.772 236.654C148.572 239.254 152.372 235.954 156.172 235.954C160.272 235.954 372.272 223.454 374.972 223.454C376.872 223.354 378.272 222.554 379.072 221.054C379.372 220.454 378.472 219.254 377.472 218.454C374.172 215.654 371.372 215.754 371.372 215.754Z" fill="#CE8E55"/>
<path d="M374.775 219.154L150.775 231.154C150.175 231.154 149.575 231.354 149.175 231.754C148.275 232.354 147.075 233.654 147.375 235.654C147.875 238.654 151.675 239.354 155.775 239.354C159.875 239.354 371.875 226.854 374.575 226.854C377.275 226.854 379.975 224.954 379.475 222.154C378.975 218.654 374.775 219.154 374.775 219.154Z" fill="#DC9F5E"/>
<path d="M373.674 221.353C374.474 220.653 375.574 220.653 376.174 221.353C376.774 222.053 376.574 223.253 375.774 223.953C374.974 224.653 373.874 224.753 373.274 223.953C372.774 223.253 372.874 222.153 373.674 221.353Z" fill="#CE8E55"/>
<path d="M194.272 231.654C195.072 230.954 196.172 230.954 196.772 231.654C197.272 232.354 197.172 233.554 196.372 234.254C195.572 234.954 194.372 234.954 193.872 234.254C193.272 233.554 193.472 232.454 194.272 231.654Z" fill="#CE8E55"/>
</g>
<defs>
<filter id="filter0_d_1617_26" x="0" y="0" width="385.859" height="318.633" filterUnits="userSpaceOnUse" color-interpolation-filters="sRGB">
<feFlood flood-opacity="0" result="BackgroundImageFix"/>
<feColorMatrix in="SourceAlpha" type="matrix" values="0 0 0 0 0 0 0 0 0 0 0 0 0 0 0 0 0 0 127 0" result="hardAlpha"/>
<feOffset dy="10"/>
<feGaussianBlur stdDeviation="2"/>
<feComposite in2="hardAlpha" operator="out"/>
<feColorMatrix type="matrix" values="0 0 0 0 0 0 0 0 0 0 0 0 0 0 0 0 0 0 0.25 0"/>
<feBlend mode="normal" in2="BackgroundImageFix" result="effect1_dropShadow_1617_26"/>
<feBlend mode="normal" in="SourceGraphic" in2="effect1_dropShadow_1617_26" result="shape"/>
</filter>
</defs>
</svg>
