<svg width="243" height="416" viewBox="0 0 243 416" fill="none" xmlns="http://www.w3.org/2000/svg">
<mask id="mask0_634_105" style="mask-type:luminance" maskUnits="userSpaceOnUse" x="45" y="0" width="167" height="416">
<path d="M212 0H45V416H212V0Z" fill="white"/>
</mask>
<g mask="url(#mask0_634_105)">
<path d="M91 306V36H89V306H91Z" fill="#F89C4B"/>
<path d="M169 301V38H171V301H169Z" fill="#DE894F"/>
<path d="M167.016 302.899C167.016 302.899 207.859 290.862 210.821 299.33C213.33 306.495 171.577 315.22 171.577 315.22L167.016 302.899Z" fill="url(#paint0_linear_634_105)"/>
<path d="M211.633 299.135C208.57 290.381 166.352 302.824 166.352 302.824L166.482 303.176C171.348 301.803 207.148 291.979 209.791 299.527C212.023 305.911 175.82 313.931 170.858 314.999L171.066 315.561C171.066 315.56 214.225 306.541 211.633 299.135Z" fill="#FFD15A"/>
<path d="M158.996 300.51C158.996 300.51 189.399 274.233 195.492 281.574C200.648 287.787 168.078 311.105 168.078 311.105L158.996 300.51Z" fill="url(#paint1_linear_634_105)"/>
<path d="M161.74 298.592C168.375 293.109 189.821 276.174 194.74 282.101C198.858 287.063 177.863 303.41 170.765 308.709V309.431C178.872 303.342 200.377 286.404 196.045 281.182C190.85 274.923 168.519 292.361 160.938 298.592H161.74Z" fill="#FFD15A"/>
<path d="M152.902 303.942C152.902 303.942 158.097 267.985 168.542 271.066C177.38 273.677 168.211 308.254 168.211 308.254L152.902 303.942Z" fill="url(#paint2_linear_634_105)"/>
<path d="M168.721 270.681C158.074 267.52 152.652 304.202 152.652 304.202L162.048 306.864L153.769 304.228C153.769 304.228 158.613 268.816 168.413 272.076C176.336 274.713 168.866 305.832 168.184 308.603L168.258 308.624C168.258 308.624 177.73 273.356 168.721 270.681Z" fill="#FFD15A"/>
<path d="M140.034 304.627C140.034 304.627 136.017 268.695 146.987 270.005C156.268 271.114 156.058 306.345 156.058 306.345L140.034 304.627Z" fill="url(#paint3_linear_634_105)"/>
<path d="M146.996 269.567C135.764 268.226 139.881 305.017 139.881 305.017L140.454 305.078C139.86 298.907 137.527 269.566 146.936 270.801C154.821 271.837 155.788 300.29 155.906 306.735L156.289 306.775C156.288 306.775 156.499 270.702 146.996 269.567Z" fill="#FFD15A"/>
<path d="M165.84 310.041C165.84 310.041 208.847 308.447 208.892 317.297C208.931 324.786 166.146 322.979 166.146 322.979L165.84 310.041Z" fill="url(#paint4_linear_634_105)"/>
<path d="M165.102 309.841L165.11 310.203C172.686 310.025 208.132 309.606 208.174 317.251C208.208 323.718 172.967 323.026 165.408 322.804L165.419 323.228C165.419 323.228 209.698 325.098 209.655 317.349C209.608 308.19 165.102 309.841 165.102 309.841Z" fill="#FFD15A"/>
<path d="M205.018 300.421C204.442 299.147 201.868 298.536 199.268 299.056C196.67 299.575 195.031 301.03 195.607 302.303C196.184 303.576 198.758 304.188 201.357 303.668C203.955 303.149 205.593 301.694 205.018 300.421Z" fill="#954343"/>
<path d="M205.568 300.016C204.994 298.742 202.419 298.131 199.82 298.651C197.222 299.17 195.582 300.625 196.158 301.898C196.735 303.171 199.308 303.783 201.907 303.262C204.506 302.743 206.145 301.29 205.568 300.016Z" fill="#E0A60F"/>
<path d="M203.266 300.496C203.016 299.887 201.808 299.574 200.566 299.799C199.324 300.023 198.518 300.699 198.768 301.307C199.016 301.918 200.224 302.23 201.468 302.006C202.71 301.781 203.516 301.105 203.266 300.496Z" fill="#FF9758"/>
<path d="M203.261 300.496C203.011 299.887 201.803 299.574 200.561 299.799C199.747 299.945 199.13 300.287 198.863 300.676C199.166 300.506 199.547 300.368 199.988 300.289C201.229 300.064 202.439 300.376 202.687 300.986C202.774 301.196 202.727 301.413 202.588 301.617C203.14 301.309 203.422 300.889 203.261 300.496Z" fill="#5F3E3C"/>
<path d="M201.368 316.815C201.247 315.488 198.951 314.501 196.243 314.612C193.534 314.723 191.437 315.89 191.56 317.217C191.682 318.545 193.977 319.53 196.686 319.42C199.394 319.308 201.491 318.142 201.368 316.815Z" fill="#954343"/>
<path d="M202.052 316.502C201.931 315.176 199.634 314.189 196.927 314.3C194.217 314.411 192.121 315.577 192.243 316.905C192.365 318.232 194.661 319.218 197.369 319.107C200.078 318.996 202.175 317.83 202.052 316.502Z" fill="#E0A60F"/>
<path d="M199.631 316.624C199.6 315.992 198.53 315.505 197.244 315.535C195.959 315.564 194.941 316.1 194.973 316.73C195.005 317.362 196.074 317.85 197.362 317.82C198.648 317.791 199.666 317.255 199.631 316.624Z" fill="#FF9758"/>
<path d="M199.635 316.624C199.603 315.992 198.533 315.505 197.248 315.535C196.406 315.555 195.685 315.793 195.293 316.131C195.645 316.012 196.065 315.935 196.521 315.924C197.806 315.895 198.876 316.383 198.908 317.014C198.919 317.232 198.799 317.435 198.593 317.613C199.237 317.397 199.657 317.031 199.635 316.624Z" fill="#5F3E3C"/>
<path d="M189.655 285.517C188.098 284.683 185.453 285.146 183.754 286.552C182.055 287.955 181.942 289.771 183.504 290.604C185.063 291.438 187.705 290.975 189.405 289.57C191.103 288.165 191.216 286.35 189.655 285.517Z" fill="#954343"/>
<path d="M189.766 284.972C188.206 284.138 185.562 284.602 183.864 286.006C182.165 287.41 182.051 289.226 183.613 290.06C185.173 290.893 187.815 290.429 189.515 289.024C191.215 287.62 191.327 285.805 189.766 284.972Z" fill="#E0A60F"/>
<path d="M188.275 286.239C187.552 285.83 186.289 286.028 185.457 286.679C184.623 287.33 184.536 288.189 185.26 288.599C185.984 289.008 187.246 288.811 188.081 288.159C188.913 287.508 189.002 286.647 188.275 286.239Z" fill="#FF9758"/>
<path d="M188.272 286.239C187.549 285.83 186.286 286.028 185.454 286.679C184.908 287.105 184.689 287.62 184.802 288.04C184.905 287.786 185.103 287.529 185.398 287.298C186.23 286.647 187.493 286.45 188.218 286.859C188.468 286.999 188.614 287.196 188.673 287.418C188.867 286.955 188.741 286.503 188.272 286.239Z" fill="#5F3E3C"/>
<path d="M167.109 277.957C165.17 277.628 163.054 278.779 162.389 280.525C161.724 282.272 162.758 283.954 164.699 284.281C166.639 284.609 168.752 283.457 169.419 281.711C170.083 279.964 169.049 278.283 167.109 277.957Z" fill="#954343"/>
<path d="M166.863 277.435C164.922 277.106 162.808 278.258 162.144 280.005C161.477 281.751 162.511 283.433 164.453 283.759C166.394 284.087 168.507 282.937 169.173 281.189C169.84 279.443 168.805 277.761 166.863 277.435Z" fill="#E0A60F"/>
<path d="M166.308 278.996C165.393 278.824 164.369 279.351 164.02 280.174C163.669 280.996 164.129 281.803 165.042 281.975C165.957 282.147 166.982 281.619 167.332 280.796C167.681 279.974 167.224 279.167 166.308 278.996Z" fill="#FF9758"/>
<path d="M166.306 278.996C165.392 278.824 164.367 279.351 164.018 280.174C163.789 280.713 163.912 281.241 164.276 281.592C164.213 281.332 164.232 281.044 164.355 280.753C164.704 279.931 165.729 279.402 166.644 279.574C166.96 279.634 167.216 279.772 167.409 279.957C167.294 279.484 166.898 279.106 166.306 278.996Z" fill="#5F3E3C"/>
<path d="M146.767 276.307C144.766 276.272 143.091 277.708 143.029 279.509C142.967 281.311 144.538 282.797 146.54 282.829C148.541 282.862 150.215 281.427 150.277 279.625C150.339 277.825 148.767 276.339 146.767 276.307Z" fill="#954343"/>
<path d="M146.355 275.827C144.355 275.794 142.68 277.229 142.619 279.03C142.554 280.83 144.127 282.318 146.13 282.349C148.13 282.381 149.804 280.947 149.867 279.146C149.928 277.344 148.357 275.859 146.355 275.827Z" fill="#E0A60F"/>
<path d="M146.335 277.434C145.386 277.4 144.564 278.067 144.5 278.92C144.434 279.774 145.151 280.492 146.101 280.524C147.05 280.557 147.872 279.892 147.937 279.037C148.001 278.184 147.285 277.466 146.335 277.434Z" fill="#FF9758"/>
<path d="M146.335 277.434C145.386 277.4 144.564 278.067 144.5 278.92C144.456 279.479 144.754 279.976 145.227 280.264C145.079 280.02 144.999 279.737 145.021 279.435C145.087 278.581 145.908 277.915 146.858 277.947C147.185 277.959 147.481 278.056 147.731 278.208C147.461 277.763 146.948 277.454 146.335 277.434Z" fill="#5F3E3C"/>
<path d="M95.117 302.899C95.117 302.899 54.2743 290.862 51.3117 299.33C48.8042 306.495 90.5565 315.22 90.5565 315.22L95.117 302.899Z" fill="url(#paint5_linear_634_105)"/>
<path d="M50.4951 299.135C53.5583 290.381 95.7772 302.824 95.7772 302.824L95.6464 303.176C90.7804 301.803 54.9801 291.979 52.3392 299.527C50.1056 305.911 86.3103 313.931 91.2704 314.999L91.0629 315.561C91.0629 315.561 47.9027 306.541 50.4951 299.135Z" fill="#FFD15A"/>
<path d="M103.127 300.51C103.127 300.51 72.7247 274.233 66.6316 281.574C61.4754 287.787 94.0446 311.105 94.0446 311.105L103.127 300.51Z" fill="url(#paint6_linear_634_105)"/>
<path d="M100.38 298.592C93.7449 293.109 72.2976 276.174 67.3792 282.101C63.2615 287.063 84.2567 303.41 91.3541 308.709V309.431C83.2477 303.342 61.7416 286.404 66.0745 281.182C71.2703 274.923 93.5992 292.361 101.182 298.592H100.38Z" fill="#FFD15A"/>
<path d="M109.222 303.942C109.222 303.942 104.027 267.985 93.5824 271.066C84.7443 273.677 93.913 308.254 93.913 308.254L109.222 303.942Z" fill="url(#paint7_linear_634_105)"/>
<path d="M93.4034 270.681C104.051 267.52 109.471 304.202 109.471 304.202L100.076 306.864L108.354 304.228C108.354 304.228 103.512 268.816 93.7111 272.076C85.7875 274.713 93.2573 305.832 93.939 308.603L93.8653 308.623C93.8653 308.623 84.3941 273.356 93.4034 270.681Z" fill="#FFD15A"/>
<path d="M122.096 304.627C122.096 304.627 126.112 268.695 115.142 270.005C105.861 271.114 106.071 306.345 106.071 306.345L122.096 304.627Z" fill="url(#paint8_linear_634_105)"/>
<path d="M115.136 269.567C126.367 268.226 122.251 305.017 122.251 305.017L121.679 305.078C122.272 298.907 124.605 269.566 115.196 270.801C107.311 271.837 106.344 300.29 106.226 306.735L105.844 306.775C105.844 306.775 105.633 270.702 115.136 269.567Z" fill="#FFD15A"/>
<path d="M96.2902 310.041C96.2902 310.041 53.283 308.447 53.2383 317.297C53.1983 324.786 95.9847 322.979 95.9847 322.979L96.2902 310.041Z" fill="url(#paint9_linear_634_105)"/>
<path d="M97.0179 309.841L97.0094 310.203C89.4331 310.025 53.9873 309.606 53.946 317.251C53.9115 323.718 89.1527 323.026 96.712 322.804L96.7013 323.228C96.7013 323.228 52.4223 325.098 52.4649 317.349C52.5109 308.19 97.0179 309.841 97.0179 309.841Z" fill="#FFD15A"/>
<path d="M57.1077 300.421C57.6821 299.147 60.2569 298.536 62.8561 299.056C65.454 299.575 67.0932 301.03 66.5175 302.303C65.941 303.576 63.3678 304.188 60.7678 303.668C58.1691 303.149 56.5312 301.694 57.1077 300.421Z" fill="#954343"/>
<path d="M56.5607 300.016C57.1351 298.742 59.71 298.13 62.3092 298.651C64.9075 299.17 66.5471 300.625 65.971 301.898C65.3945 303.171 62.8213 303.783 60.2213 303.263C57.6234 302.743 55.9842 301.289 56.5607 300.016Z" fill="#E0A60F"/>
<path d="M58.8584 300.496C59.1072 299.886 60.3156 299.574 61.5577 299.799C62.7998 300.023 63.6051 300.699 63.3558 301.307C63.1074 301.917 61.899 302.23 60.6552 302.006C59.4136 301.781 58.607 301.105 58.8584 300.496Z" fill="#FF9758"/>
<path d="M58.8696 300.496C59.1184 299.886 60.3268 299.574 61.5689 299.799C62.3827 299.945 63.0014 300.287 63.266 300.676C62.9635 300.505 62.5821 300.368 62.1424 300.289C60.9003 300.064 59.6915 300.376 59.4423 300.986C59.3558 301.196 59.4031 301.413 59.5424 301.617C58.9902 301.309 58.7077 300.889 58.8696 300.496Z" fill="#5F3E3C"/>
<path d="M60.7552 316.815C60.8749 315.488 63.1711 314.501 65.8802 314.612C68.5884 314.723 70.6861 315.89 70.5629 317.217C70.4411 318.545 68.1466 319.53 65.4371 319.42C62.7292 319.308 60.632 318.142 60.7552 316.815Z" fill="#954343"/>
<path d="M60.0715 316.502C60.1917 315.176 62.4888 314.189 65.197 314.3C67.9057 314.411 70.0029 315.577 69.8797 316.905C69.7583 318.232 67.4638 319.218 64.7539 319.107C62.0456 318.996 59.9488 317.83 60.0715 316.502Z" fill="#E0A60F"/>
<path d="M62.493 316.624C62.5249 315.992 63.5953 315.505 64.8808 315.535C66.1672 315.565 67.1843 316.1 67.151 316.73C67.1195 317.362 66.0504 317.85 64.7628 317.82C63.4764 317.791 62.4597 317.255 62.493 316.624Z" fill="#FF9758"/>
<path d="M62.493 316.624C62.525 315.992 63.5953 315.505 64.8808 315.535C65.7232 315.555 66.4437 315.793 66.8353 316.131C66.4833 316.012 66.0636 315.935 65.6077 315.924C64.3218 315.895 63.2519 316.383 63.2199 317.014C63.2084 317.232 63.3281 317.435 63.5352 317.613C62.891 317.397 62.4713 317.031 62.493 316.624Z" fill="#5F3E3C"/>
<path d="M72.4683 285.517C74.0265 284.683 76.6704 285.146 78.3697 286.552C80.069 287.956 80.1819 289.771 78.6207 290.604C77.0607 291.438 74.419 290.975 72.718 289.57C71.02 288.165 70.9071 286.35 72.4683 285.517Z" fill="#954343"/>
<path d="M72.36 284.972C73.9182 284.138 76.5625 284.602 78.2609 286.006C79.9606 287.41 80.0739 289.226 78.5123 290.06C76.9515 290.893 74.3102 290.429 72.6105 289.024C70.91 287.62 70.7975 285.805 72.36 284.972Z" fill="#E0A60F"/>
<path d="M73.8473 286.239C74.5716 285.83 75.8333 286.028 76.6659 286.679C77.4998 287.33 77.5871 288.19 76.8627 288.599C76.1388 289.008 74.8772 288.811 74.042 288.159C73.2103 287.508 73.1208 286.647 73.8473 286.239Z" fill="#FF9758"/>
<path d="M73.8514 286.239C74.5758 285.83 75.8374 286.028 76.67 286.679C77.2154 287.105 77.4344 287.62 77.3224 288.04C77.218 287.786 77.0207 287.529 76.7258 287.298C75.8941 286.647 74.6312 286.45 73.9064 286.859C73.6563 286.999 73.5101 287.196 73.4505 287.418C73.2574 286.955 73.3823 286.503 73.8514 286.239Z" fill="#5F3E3C"/>
<path d="M95.0235 277.957C96.9626 277.628 99.0782 278.779 99.7433 280.525C100.409 282.272 99.3743 283.954 97.433 284.281C95.493 284.609 93.38 283.457 92.7132 281.711C92.0485 279.964 93.0822 278.283 95.0235 277.957Z" fill="#954343"/>
<path d="M95.2623 277.435C97.2023 277.106 99.3166 278.258 99.9809 280.005C100.647 281.751 99.614 283.433 97.6723 283.759C95.731 284.087 93.618 282.937 92.9525 281.189C92.2857 279.443 93.3198 277.761 95.2623 277.435Z" fill="#E0A60F"/>
<path d="M95.8252 278.996C96.7396 278.824 97.7648 279.351 98.1129 280.174C98.4636 280.996 98.0047 281.803 97.0907 281.975C96.1759 282.147 95.1516 281.619 94.8009 280.796C94.4515 279.974 94.9087 279.167 95.8252 278.996Z" fill="#FF9758"/>
<path d="M95.825 278.996C96.7394 278.824 97.7645 279.351 98.1126 280.174C98.3423 280.713 98.2196 281.241 97.8544 281.592C97.9184 281.332 97.8996 281.044 97.776 280.753C97.4266 279.931 96.4023 279.402 95.4866 279.574C95.1705 279.634 94.9157 279.772 94.7227 279.957C94.8368 279.484 95.2335 279.106 95.825 278.996Z" fill="#5F3E3C"/>
<path d="M115.36 276.307C117.361 276.272 119.036 277.708 119.097 279.509C119.16 281.311 117.589 282.797 115.587 282.829C113.587 282.862 111.912 281.427 111.849 279.625C111.788 277.825 113.359 276.339 115.36 276.307Z" fill="#954343"/>
<path d="M115.767 275.827C117.768 275.794 119.442 277.229 119.504 279.03C119.568 280.83 117.995 282.318 115.993 282.349C113.992 282.381 112.318 280.947 112.256 279.146C112.193 277.344 113.765 275.859 115.767 275.827Z" fill="#E0A60F"/>
<path d="M115.798 277.434C116.746 277.4 117.569 278.067 117.632 278.92C117.697 279.774 116.981 280.492 116.031 280.524C115.082 280.557 114.259 279.892 114.195 279.037C114.131 278.184 114.847 277.466 115.798 277.434Z" fill="#FF9758"/>
<path d="M115.792 277.434C116.74 277.4 117.563 278.067 117.626 278.92C117.67 279.479 117.372 279.976 116.899 280.264C117.047 280.02 117.126 279.737 117.105 279.435C117.039 278.581 116.218 277.915 115.268 277.947C114.94 277.959 114.644 278.056 114.395 278.208C114.665 277.763 115.178 277.454 115.792 277.434Z" fill="#5F3E3C"/>
<path d="M179.885 386.67C179.885 389.882 176.473 392.489 172.263 392.489C168.053 392.489 164.641 389.882 164.641 386.67C164.641 383.455 168.053 380.85 172.263 380.85C176.473 380.851 179.885 383.456 179.885 386.67Z" fill="#FF9758"/>
<path d="M176.693 386.668C176.693 388.534 174.711 390.046 172.267 390.046C169.822 390.046 167.84 388.534 167.84 386.668C167.84 384.801 169.822 383.288 172.267 383.288C174.711 383.288 176.693 384.801 176.693 386.668Z" fill="#FFA352"/>
<path d="M172.018 384.322C174.463 384.322 176.445 385.835 176.445 387.703C176.445 387.72 176.44 387.733 176.438 387.75C176.589 387.409 176.69 387.05 176.69 386.67C176.69 384.803 174.708 383.29 172.264 383.29C169.841 383.29 167.877 384.778 167.844 386.622C168.437 385.288 170.072 384.322 172.018 384.322Z" fill="#975450"/>
<path d="M187.269 375.03C187.269 377.103 185.067 378.784 182.351 378.784C179.636 378.784 177.434 377.102 177.434 375.03C177.434 372.956 179.636 371.275 182.351 371.275C185.067 371.275 187.269 372.956 187.269 375.03Z" fill="#FF9758"/>
<path d="M185.781 375.032C185.781 376.48 184.244 377.654 182.346 377.654C180.447 377.654 178.91 376.48 178.91 375.032C178.91 373.582 180.447 372.408 182.346 372.408C184.244 372.408 185.781 373.582 185.781 375.032Z" fill="#FFA352"/>
<path d="M184.361 375.031C184.361 375.877 183.462 376.563 182.353 376.563C181.243 376.563 180.344 375.877 180.344 375.031C180.344 374.182 181.243 373.496 182.353 373.496C183.462 373.496 184.361 374.182 184.361 375.031Z" fill="#FF9758"/>
<path d="M83.7734 386.67C83.7734 389.882 87.186 392.489 91.3962 392.489C95.6056 392.489 99.019 389.882 99.019 386.67C99.019 383.455 95.606 380.85 91.3962 380.85C87.1856 380.851 83.7734 383.456 83.7734 386.67Z" fill="#FF9758"/>
<path d="M86.9648 386.668C86.9648 388.534 88.947 390.046 91.3915 390.046C93.836 390.046 95.819 388.534 95.819 386.668C95.819 384.801 93.836 383.288 91.3915 383.288C88.9475 383.288 86.9648 384.801 86.9648 386.668Z" fill="#FFA352"/>
<path d="M87.3334 387.419C87.3334 385.553 89.316 384.038 91.7605 384.038C93.4828 384.038 94.9592 384.798 95.6904 385.894C95.2315 384.402 93.4866 383.288 91.3915 383.288C88.947 383.288 86.9648 384.801 86.9648 386.668C86.9648 387.22 87.1536 387.732 87.4612 388.192C87.3845 387.942 87.3334 387.686 87.3334 387.419Z" fill="#975450"/>
<path d="M76.3984 375.03C76.3984 377.102 78.5996 378.784 81.3155 378.784C84.0319 378.784 86.2335 377.102 86.2335 375.03C86.2335 372.956 84.0319 371.275 81.3155 371.275C78.5996 371.275 76.3984 372.956 76.3984 375.03Z" fill="#FF9758"/>
<path d="M77.875 375.032C77.875 376.48 79.4128 377.654 81.3102 377.654C83.2084 377.654 84.7457 376.48 84.7457 375.032C84.7457 373.582 83.2084 372.408 81.3102 372.408C79.4128 372.408 77.875 373.582 77.875 375.032Z" fill="#FFA352"/>
<path d="M79.3008 375.031C79.3008 375.877 80.1998 376.563 81.3089 376.563C82.4185 376.563 83.3188 375.877 83.3188 375.031C83.3188 374.182 82.4185 373.496 81.3089 373.496C80.1998 373.496 79.3008 374.182 79.3008 375.031Z" fill="#FF9758"/>
<path d="M99.5477 389.225L90.0352 404.127C114.724 413.733 151.796 413.029 173.17 404.127L163.72 389.322C145.061 394.266 119.833 394.525 99.5477 389.225Z" fill="#FFA352"/>
<path d="M101.316 388.716L92.4688 402.75C115.432 411.797 149.912 411.133 169.79 402.75L161.001 388.808C143.648 393.464 120.183 393.707 101.316 388.716Z" fill="#FF9758"/>
<path d="M160.977 390.683L148.941 393.861C148.941 393.861 155.522 405.639 160.453 404.338C165.384 403.036 160.977 390.683 160.977 390.683Z" fill="#44302E"/>
<path d="M101.374 390.038L113.095 394.083C113.095 394.083 106.086 405.339 101.283 403.682C96.4804 402.025 101.374 390.038 101.374 390.038Z" fill="#44302E"/>
<path d="M123.977 394.055C123.977 394.055 124.866 407.883 130.485 407.975C136.104 408.067 137.69 394.281 137.69 394.281L123.977 394.055Z" fill="#44302E"/>
<path d="M136.293 394.847C136.293 394.847 139.964 408.282 145.503 407.416C151.042 406.553 149.813 392.736 149.813 392.736L136.293 394.847Z" fill="#44302E"/>
<path d="M124.351 394.45C124.351 394.45 120.682 407.886 115.142 407.019C109.603 406.155 110.831 392.338 110.831 392.338L124.351 394.45Z" fill="#44302E"/>
<path d="M160.099 390.652L148.414 393.687C148.414 393.687 154.803 404.933 159.59 403.689C164.379 402.446 160.099 390.652 160.099 390.652Z" fill="#FFA352"/>
<path d="M102.228 390.038L113.609 393.9C113.609 393.9 106.803 404.648 102.14 403.065C97.4763 401.482 102.228 390.038 102.228 390.038Z" fill="#FFA352"/>
<path d="M124.172 393.874C124.172 393.874 125.035 407.076 130.491 407.163C135.947 407.252 137.486 394.09 137.486 394.09L124.172 393.874Z" fill="#FFA352"/>
<path d="M136.133 394.627C136.133 394.627 139.698 407.455 145.076 406.629C150.455 405.804 149.261 392.611 149.261 392.611L136.133 394.627Z" fill="#FFA352"/>
<path d="M124.537 394.253C124.537 394.253 120.974 407.081 115.595 406.255C110.216 405.43 111.41 392.236 111.41 392.236L124.537 394.253Z" fill="#FFA352"/>
<path d="M142.621 403.66C142.621 404.437 143.447 405.068 144.465 405.068C145.483 405.068 146.309 404.437 146.309 403.66C146.309 402.881 145.483 402.252 144.465 402.252C143.447 402.252 142.621 402.881 142.621 403.66Z" fill="#FF9758"/>
<path d="M156.387 400.843C156.387 401.62 157.213 402.25 158.231 402.25C159.25 402.25 160.076 401.62 160.076 400.843C160.076 400.064 159.249 399.434 158.231 399.434C157.213 399.434 156.387 400.064 156.387 400.843Z" fill="#FF9758"/>
<path d="M128.723 404.597C128.723 405.374 129.548 406.005 130.567 406.005C131.585 406.005 132.411 405.374 132.411 404.597C132.411 403.819 131.585 403.189 130.567 403.189C129.548 403.189 128.723 403.819 128.723 404.597Z" fill="#FF9758"/>
<path d="M116.192 405.068C117.21 405.068 118.036 404.437 118.036 403.66C118.036 402.882 117.21 402.252 116.192 402.252C115.173 402.252 114.348 402.882 114.348 403.66C114.348 404.437 115.173 405.068 116.192 405.068Z" fill="#FF9758"/>
<path d="M101.316 400.372C101.316 401.15 102.143 401.78 103.161 401.78C104.179 401.78 105.005 401.15 105.005 400.372C105.005 399.595 104.178 398.965 103.161 398.965C102.143 398.965 101.316 399.595 101.316 400.372Z" fill="#FF9758"/>
<path d="M188.598 356.323C188.598 347.717 180.488 340.742 170.484 340.742C160.48 340.742 152.371 347.717 152.371 356.323C152.371 364.927 160.48 371.904 170.484 371.904C180.488 371.904 188.598 364.927 188.598 356.323Z" fill="#FFA352"/>
<path d="M184.329 356.321C184.329 349.743 178.13 344.412 170.484 344.412C162.839 344.412 156.641 349.743 156.641 356.321C156.641 362.897 162.839 368.228 170.484 368.228C178.13 368.228 184.329 362.897 184.329 356.321Z" fill="#FF9758"/>
<path d="M179.573 356.319C179.573 352.002 175.506 348.502 170.487 348.502C165.469 348.502 161.402 352.002 161.402 356.319C161.402 360.635 165.469 364.133 170.487 364.133C175.506 364.133 179.573 360.635 179.573 356.319Z" fill="#FFA352"/>
<path d="M174.533 356.319C174.533 354.397 172.722 352.839 170.489 352.839C168.255 352.839 166.445 354.397 166.445 356.319C166.445 358.239 168.255 359.796 170.489 359.796C172.722 359.796 174.533 358.239 174.533 356.319Z" fill="#FF9758"/>
<path d="M169.672 341.742C179.677 341.742 187.787 348.719 187.787 357.324C187.787 360.419 186.724 363.297 184.914 365.721C187.22 363.108 188.606 359.857 188.606 356.323C188.606 347.717 180.496 340.742 170.492 340.742C164.087 340.742 158.47 343.608 155.25 347.924C158.558 344.175 163.778 341.742 169.672 341.742Z" fill="#975450"/>
<path d="M169.987 349.378C175.006 349.378 179.073 352.877 179.073 357.194C179.073 358.236 178.831 359.229 178.399 360.14C179.14 359.009 179.565 357.707 179.565 356.318C179.565 352.001 175.497 348.501 170.479 348.501C166.674 348.501 163.42 350.516 162.066 353.371C163.625 350.989 166.586 349.378 169.987 349.378Z" fill="#975450"/>
<path d="M170.489 352.839C168.837 352.839 167.42 353.695 166.793 354.916C167.43 354.554 168.193 354.341 169.013 354.341C171.247 354.341 173.058 355.898 173.058 357.819C173.058 358.318 172.93 358.79 172.71 359.22C173.807 358.599 174.533 357.532 174.533 356.318C174.534 354.397 172.723 352.839 170.489 352.839Z" fill="#442D2B"/>
<path d="M170.48 344.412C166.784 344.412 163.435 345.665 160.953 347.696C163.102 346.513 165.65 345.819 168.391 345.819C176.036 345.819 182.234 351.15 182.234 357.727C182.234 361.125 180.572 364.182 177.918 366.352C181.766 364.236 184.325 360.539 184.325 356.321C184.325 349.743 178.126 344.412 170.48 344.412Z" fill="#442D2B"/>
<path d="M102.311 397.744H160.868L166.382 393.883L166.358 393.478L163.707 389.322C162.452 389.654 161.163 389.961 159.852 390.251L159.363 389.484C142.955 393.831 120.772 394.058 102.936 389.398L102.579 389.958C101.556 389.722 100.535 389.485 99.5341 389.224L96.8199 393.478L96.7969 393.883L102.311 397.744Z" fill="#B47442"/>
<path opacity="0.4" d="M167.335 371.65V340.991C167.193 341.011 167.047 341.022 166.907 341.047C166.818 341.063 166.728 341.083 166.64 341.099C166.207 341.18 165.782 341.275 165.362 341.381C165.221 341.418 165.081 341.452 164.941 341.491C164.486 341.617 164.037 341.757 163.598 341.913C163.438 341.97 163.283 342.033 163.127 342.093C162.817 342.212 162.511 342.338 162.211 342.473C162.041 342.548 161.869 342.621 161.701 342.7C161.331 342.877 160.972 343.067 160.619 343.266C160.412 343.382 160.211 343.504 160.011 343.626C159.819 343.743 159.632 343.866 159.446 343.989C159.091 344.226 158.749 344.472 158.415 344.73C158.28 344.834 158.144 344.936 158.012 345.044C157.792 345.225 157.577 345.41 157.368 345.6C157.278 345.681 157.193 345.764 157.106 345.847C156.725 346.208 156.365 346.582 156.023 346.972C155.954 347.051 155.883 347.131 155.815 347.211C155.621 347.444 155.431 347.678 155.25 347.92C155.25 347.921 155.249 347.921 155.249 347.921C155.249 347.921 155.249 347.921 155.25 347.921C154.805 348.516 154.409 349.14 154.059 349.785V362.844C156.504 367.397 161.419 370.754 167.335 371.65Z" fill="#442D2B"/>
<path d="M73.5195 356.323C73.5195 347.717 81.6289 340.742 91.6331 340.742C101.637 340.742 109.746 347.717 109.746 356.323C109.746 364.927 101.637 371.904 91.6331 371.904C81.6289 371.904 73.5195 364.927 73.5195 356.323Z" fill="#FFA352"/>
<path d="M77.7852 356.321C77.7852 349.743 83.9827 344.412 91.6293 344.412C99.2747 344.412 105.473 349.743 105.473 356.321C105.473 362.897 99.2747 368.228 91.6293 368.228C83.9831 368.228 77.7852 362.897 77.7852 356.321Z" fill="#FF9758"/>
<path d="M82.5547 356.319C82.5547 352.002 86.6222 348.502 91.6407 348.502C96.6583 348.502 100.726 352.002 100.726 356.319C100.726 360.635 96.6588 364.133 91.6407 364.133C86.6222 364.133 82.5547 360.635 82.5547 356.319Z" fill="#FFA352"/>
<path d="M87.5938 356.319C87.5938 354.397 89.4046 352.839 91.6386 352.839C93.8718 352.839 95.6823 354.397 95.6823 356.319C95.6823 358.239 93.8718 359.796 91.6386 359.796C89.4046 359.796 87.5938 358.239 87.5938 356.319Z" fill="#FF9758"/>
<path d="M92.4525 341.742C82.4479 341.742 74.3381 348.719 74.3381 357.324C74.3381 360.419 75.4007 363.297 77.2103 365.721C74.9043 363.108 73.5195 359.857 73.5195 356.323C73.5195 347.717 81.6289 340.742 91.6331 340.742C98.0377 340.742 103.654 343.608 106.874 347.924C103.566 344.175 98.3458 341.742 92.4525 341.742Z" fill="#975450"/>
<path d="M92.1324 349.378C87.1139 349.378 83.0464 352.877 83.0464 357.194C83.0464 358.236 83.2884 359.229 83.7192 360.14C82.9799 359.009 82.5547 357.707 82.5547 356.318C82.5547 352.001 86.6222 348.501 91.6407 348.501C95.4461 348.501 98.7006 350.516 100.053 353.371C98.4952 350.989 95.5347 349.378 92.1324 349.378Z" fill="#975450"/>
<path d="M91.6386 352.839C93.2902 352.839 94.7078 353.695 95.3346 354.916C94.6967 354.554 93.9348 354.34 93.1138 354.34C90.8798 354.34 89.0689 355.898 89.0689 357.819C89.0689 358.318 89.1971 358.79 89.4166 359.22C88.3198 358.599 87.5938 357.532 87.5938 356.318C87.5938 354.397 89.4046 352.839 91.6386 352.839Z" fill="#442D2B"/>
<path d="M91.6293 344.412C95.3253 344.412 98.6743 345.665 101.156 347.696C99.0071 346.513 96.4595 345.819 93.7193 345.819C86.0731 345.819 79.8747 351.15 79.8747 357.727C79.8747 361.125 81.5378 364.182 84.1902 366.352C80.3426 364.236 77.7852 360.539 77.7852 356.321C77.7852 349.743 83.9831 344.412 91.6293 344.412Z" fill="#442D2B"/>
<path opacity="0.4" d="M94.7891 371.65V340.991C94.9314 341.011 95.0775 341.022 95.2177 341.047C95.3068 341.063 95.3954 341.083 95.484 341.099C95.9165 341.18 96.3422 341.275 96.7619 341.381C96.9033 341.418 97.0431 341.452 97.1824 341.491C97.6388 341.617 98.0874 341.757 98.5272 341.914C98.6865 341.97 98.8412 342.034 98.998 342.093C99.3082 342.212 99.6133 342.339 99.9141 342.473C100.084 342.548 100.256 342.621 100.423 342.701C100.793 342.877 101.153 343.068 101.506 343.267C101.713 343.382 101.913 343.504 102.113 343.627C102.305 343.743 102.493 343.866 102.678 343.989C103.033 344.226 103.376 344.472 103.709 344.73C103.844 344.834 103.98 344.936 104.112 345.044C104.333 345.226 104.547 345.41 104.756 345.601C104.846 345.681 104.931 345.765 105.019 345.848C105.399 346.208 105.76 346.582 106.101 346.972C106.17 347.052 106.241 347.131 106.31 347.211C106.505 347.444 106.694 347.678 106.874 347.92C106.874 347.921 106.876 347.921 106.876 347.921C106.876 347.921 106.876 347.921 106.874 347.921C107.319 348.517 107.717 349.14 108.067 349.786V362.844C105.619 367.397 100.705 370.754 94.7891 371.65Z" fill="#442D2B"/>
<path d="M162.694 324.533H100.486L96.7969 390.505L102.311 394.366H160.868L166.382 390.505L162.694 324.533Z" fill="#FFA352"/>
<path d="M96.8016 390.423L96.7969 390.504L102.311 394.365H160.868L166.382 390.504L166.377 390.423H96.8016Z" fill="#FF7700"/>
<path d="M161.065 323.718L102.129 323.717L99.5078 390.36L104.594 392.425H158.6L163.685 390.36L161.065 323.718Z" fill="url(#paint10_radial_634_105)"/>
<path d="M161.065 323.718H160.484L163.03 389.796L158.047 391.861H105.146L100.164 389.796L102.709 323.717H102.129L99.5078 390.36L104.594 392.425H158.6L163.685 390.36L161.065 323.718Z" fill="#B47442"/>
<path d="M141.472 355.133L143.604 366.772L145.817 370.464L147.619 372.217L145.242 370.651L143.112 367.46L141.145 367.523L141.472 355.133Z" fill="#FFA352"/>
<path d="M120.812 367.251L127.125 375.924H136.223L142.369 367.251H120.812Z" fill="#FF9758"/>
<path d="M116.621 372.59L118.957 372.215L120.986 370.337L123.261 369.304L120.986 366.489L120.821 367.248L121.785 369.259L120.679 370.291L118.896 372.074L116.621 372.59Z" fill="#FF9758"/>
<path d="M124.174 328.928H100.938V344.493H124.174V328.928Z" fill="#FFA352"/>
<path d="M162.294 328.928H139.059V344.493H162.294V328.928Z" fill="#FFA352"/>
<path d="M139.911 327.285H123.271L120.812 367.248L125.462 372.151H137.72L142.369 367.248L139.911 327.285Z" fill="#FF7700"/>
<path d="M120.812 367.251L125.462 372.154H137.72L142.369 367.251H120.812Z" fill="#FFA352"/>
<path d="M117.697 341.804H106.398V356.634H117.697V341.804Z" fill="#442D2B"/>
<path d="M156.365 377.925H106.838L105.906 378.333V380.206L107.191 380.613H156.01L157.296 380.206V378.333L156.365 377.925Z" fill="#FF9758"/>
<path d="M149.96 382.226H113.23L112.539 382.866V385.811L113.491 386.451H149.698L150.651 385.811V382.866L149.96 382.226Z" fill="#FFA352"/>
<path d="M174.996 323.68H88.1992V334.619L92.38 338.72H170.815L174.996 334.619V323.68Z" fill="#E7D34F"/>
<path d="M174.997 323.68H88.1992V334.619H174.997V323.68Z" fill="#E0A60F"/>
<path d="M177.781 321.904H85.4102L88.1572 327.098H174.956L177.781 321.904Z" fill="#FFA352"/>
<path d="M145.201 321.466H117.988L122.455 341.287H140.734L145.201 321.466Z" fill="#FFA352"/>
<path d="M179.134 319.649H84.0586L86.8857 324.843H176.225L179.134 319.649Z" fill="#FF9758"/>
<path d="M188.024 303.944H75.1641V319.247L79.6704 322.716H183.518L188.024 319.247V303.944Z" fill="#FFD15A"/>
<path d="M188.024 303.944H75.1641V314.582H188.024V303.944Z" fill="#E0A60F"/>
<path d="M188.024 303.594H75.1641V305.674H188.024V303.594Z" fill="#FFD159"/>
<path d="M75.1641 319.246L79.6704 323.779H183.518L188.024 319.246H75.1641Z" fill="#FF7700"/>
<path d="M137.867 309.825H125.327L122.582 367.246L128.032 370.523H135.162L140.039 367.246L137.867 309.825Z" fill="#FFD15A"/>
<path d="M143.393 303.441H119.801L118.031 305.612L114.426 320.525L124.303 321.386L124.52 326.689H138.506L139.179 321.902L148.769 320.525L145.163 305.612L143.393 303.441Z" fill="#FF7700"/>
<path d="M149.96 380.6H113.23L112.539 381.239V384.184L113.491 384.823H149.698L150.651 384.184V381.239L149.96 380.6Z" fill="#E7D34F"/>
<path d="M156.436 341.804H145.137V356.634H156.436V341.804Z" fill="#FF9758"/>
<path d="M156.436 341.804H145.137V356.634H156.436V341.804Z" fill="#442D2B"/>
<path d="M154.832 344.246H146.934V355.885H154.832V344.246Z" fill="#622C0B"/>
<path d="M160.73 362.016H147.453V368.024H160.73V362.016Z" fill="#E7D34F"/>
<path d="M115.988 362.016H102.711V368.024H115.988V362.016Z" fill="#E7D34F"/>
<path d="M143.888 284.36H119.301L117.457 288.064V313.525L119.424 316.836H143.766L145.734 313.525V288.064L143.888 284.36Z" fill="#FFD159"/>
<path d="M134.113 303.422C128.297 304.742 122.487 304.775 117.457 303.763V313.524L119.424 316.835H143.766L145.733 313.524V298.669C142.559 300.734 138.614 302.4 134.113 303.422Z" fill="#FFD159"/>
<path d="M155.411 378.895H107.779L106.883 379.097V380.027L108.119 380.228H155.071L156.308 380.027V379.097L155.411 378.895Z" fill="#442D2B"/>
<path d="M154.816 356.259L157.301 357.979L156.352 356.108L154.816 356.259Z" fill="#442D2B"/>
<path d="M146.589 340.684L142.863 342.665L146.385 342.275L146.589 340.684Z" fill="#442D2B"/>
<path d="M141.402 287.677H121.802L120.332 290.625V310.886L121.9 313.521H141.305L142.872 310.886V290.625L141.402 287.677Z" fill="#FF7700"/>
<path d="M135.622 302.566V306.304L135.061 307.611H128.119L127.558 306.304V303.766C125.964 303.775 125.176 303.656 123.764 303.416L123.023 309.215L124.215 311.268H138.964L140.157 309.215L139.501 300.532C138.248 301.334 137.365 302.027 135.622 302.566Z" fill="#D76460"/>
<path d="M141.402 287.677H121.802L120.332 290.625V310.886L121.232 312.397L121.069 312.106V291.846L122.443 288.898H140.761L142.135 291.846V312.106L141.966 312.409L142.872 310.886V290.625L141.402 287.677Z" fill="#D76460"/>
<path d="M134.986 294.56H128.216L127.707 295.937V305.404L128.031 306.141V297.511L128.496 296.247H134.705L135.17 297.511V306.141L135.494 305.404V295.937L134.986 294.56Z" fill="#D76460"/>
<path d="M138.789 291.111H124.403L123.324 293.275V308.146L124.476 310.079H138.718L139.868 308.146V293.275L138.789 291.111ZM135.49 305.402L134.948 306.634H128.244L127.702 305.402V295.935L128.211 294.557H134.982L135.489 295.935L135.49 305.402Z" fill="#FFD159"/>
<path d="M140.033 367.247L138.435 362.576C138.435 362.576 138.271 358.447 138.271 358.26C138.271 358.072 135.566 351.189 135.566 351.189L139.09 357.509L139.747 361.2L140.811 361.763L140.156 367.396L140.033 367.247Z" fill="#FF7700"/>
<path d="M135.305 370.524L140.406 367.474L142.374 367.247L140.468 366.722L138.193 363.203L138.501 367.286L135.305 370.524Z" fill="#FFD15A"/>
<path d="M127.811 370.761L122.402 367.289L127.504 368.181L130.639 368.556L129.656 369.636L132.729 370.902L127.811 370.761Z" fill="#FFA352"/>
<path d="M125.043 325.98L127.747 328.279L130.145 330.016L130.453 331.987L131.558 328.843L129.715 327.482L132.542 325.229L125.043 325.98Z" fill="#FF7700"/>
<path d="M106.725 347.185L106.479 344.056L105.906 347.31L105.25 350.188L106.317 352.503L106.479 356.258L105.824 357.822V360.013L107.3 357.51L108.119 356.32L107.135 354.256L106.725 347.185Z" fill="#442D2B"/>
<path d="M116.279 346.329L116.393 342.993L117.443 346.463L118.585 349.534L117.252 352.002L117.302 356.007L118.342 357.676L118.505 360.012L116.238 357.343L114.992 356.074L116.227 353.872L116.279 346.329Z" fill="#442D2B"/>
<path d="M145.91 350.611L145.81 348.56L145.085 350.693L144.297 352.579L145.256 354.096L145.246 356.556L144.518 357.581L144.417 359.018L146.008 357.377L146.883 356.597L145.994 355.244L145.91 350.611Z" fill="#442D2B"/>
<path d="M101.802 378.503L102.171 373.435L100.941 369.493L99.7125 362.078L99.0977 373.81L100.941 375.218L101.802 378.503Z" fill="#FFA352"/>
<path d="M135.49 301.885V305.405L134.948 306.637H128.244L127.702 305.405V303.015C126.163 303.024 124.687 302.91 123.324 302.685V308.149L124.476 310.082H138.718L139.868 308.149V299.968C138.658 300.723 137.172 301.376 135.49 301.885Z" fill="#FFD159"/>
<path d="M166.387 390.505L159.176 392.427L160.733 390.611L157.537 390.048L154.586 389.111L154.669 385.856L155.324 388.923L157.783 389.674L160.241 389.798L161.881 390.3L163.683 390.362L164.997 388.36L166.387 390.505Z" fill="#FFA352"/>
<path d="M102.319 394.366L105.904 393.427L106.15 392.488L111.067 392.363L114.346 391.237L110.739 391.988L106.313 391.425L101.313 389.297L100.494 386.981L98.9366 385.48L98.6094 390.111L100.249 390.61L103.527 391.237L105.166 392.551L104.838 393.239L102.319 394.366Z" fill="#FFA352"/>
<path d="M150.651 381.288V381.239L149.96 380.6H113.23L112.539 381.239V381.288H150.651Z" fill="#C4AEAD"/>
<path d="M106.97 342.65L106.395 341.805L105.125 340.398L107.215 341.241L110.657 341.148L113.239 342.275L106.97 342.65Z" fill="#442D2B"/>
<path d="M116.499 341.336L118.584 342.047L119.969 343.885L117.689 342.782L113.933 342.905L111.117 341.434L116.499 341.336Z" fill="#442D2B"/>
<path d="M156.085 341.71L158.17 342.42L159.555 344.259L157.275 343.156L153.52 343.279L150.703 341.808L156.085 341.71Z" fill="#442D2B"/>
<path d="M116.386 342.993H107.684V355.445H116.386V342.993Z" fill="#622C0B"/>
<path d="M141.761 332.605L143.729 334.67L147.54 334.857L151.229 333.543L153.81 330.727L151.966 333.637L150.122 334.67L148.032 335.702L143.975 336.172L141.516 337.298L141.761 332.605Z" fill="#FFA352"/>
<path d="M142.214 334.168L142.624 335.858L141.641 336.296L142.214 334.168Z" fill="#E7D34F"/>
<path d="M122.048 331.979L121.475 327.787L121.147 331.479L119.918 332.605L117.786 334.295L114.918 334.857L121.802 338.549C121.885 338.361 121.147 335.671 121.147 335.671L121.967 334.107L122.048 331.979Z" fill="#E7D34F"/>
<path d="M121.149 331.477L119.94 334.199L118.771 336.076L118.956 337.578L117.911 335.888L118.403 334.95L117.604 334.574L114.899 334.762L111.457 332.838L115.453 334.434L117.173 333.871L118.655 333.546L119.632 332.603L119.94 329.224L121.149 331.477Z" fill="#FFA352"/>
</g>
<path d="M243 200H0V236.726L9.70261 245.049H233.298L243 236.726V200Z" fill="#FFD159"/>
<path d="M243 200H0V228.095H243V200Z" fill="#FFD159"/>
<path d="M0.174255 236.63L9.86993 246H233.305L243 236.63H0.174255Z" fill="#E0A60F"/>
<path d="M68.3545 229.848C67.8636 230.271 67.4108 230.482 66.9961 230.482C66.5898 230.482 66.2809 230.381 66.0693 230.178C65.8662 229.983 65.7646 229.725 65.7646 229.403C65.9593 229.31 66.1074 229.209 66.209 229.099C66.0651 228.667 65.9932 228.151 65.9932 227.55C65.9932 226.949 66.0947 226.348 66.2979 225.747C66.5094 225.138 66.8184 224.566 67.2246 224.033C67.9525 223.094 69.1755 222.112 70.8936 221.088C71.9176 220.402 72.6413 219.708 73.0645 219.006C73.5723 218.143 73.8262 217.051 73.8262 215.73C73.8262 213.259 72.984 212.023 71.2998 212.023C70.445 212.023 69.7214 212.32 69.1289 212.912C68.4941 213.547 68.1768 214.414 68.1768 215.515C68.1768 216.615 68.3926 217.436 68.8242 217.978C68.6296 218.138 68.4264 218.219 68.2148 218.219C68.0117 218.219 67.8001 218.181 67.5801 218.104C67.36 218.02 67.1569 217.897 66.9707 217.736C66.5475 217.347 66.3359 216.89 66.3359 216.365C66.3359 215.832 66.4036 215.413 66.5391 215.108C66.0905 214.812 65.8662 214.427 65.8662 213.953C65.8662 213.479 66.027 213.073 66.3486 212.734C66.0778 212.387 65.9424 212.07 65.9424 211.782C65.9424 211.486 65.9805 211.236 66.0566 211.033C66.1413 210.822 66.2598 210.635 66.4121 210.475C66.7253 210.145 67.1061 209.979 67.5547 209.979C67.7747 209.979 67.9779 210.026 68.1641 210.119C68.0456 210.28 67.9863 210.449 67.9863 210.627C67.9863 210.855 68.1133 210.97 68.3672 210.97C68.5365 210.97 68.8496 210.894 69.3066 210.741C70.1445 210.462 71.0713 210.322 72.0869 210.322C73.1025 210.322 73.9193 210.386 74.5371 210.513C75.1634 210.64 75.7305 210.843 76.2383 211.122C77.2624 211.681 78.0664 212.599 78.6504 213.877C78.9212 214.495 79.3232 214.96 79.8564 215.273C79.3486 215.561 78.9255 216.128 78.5869 216.975C77.9691 218.481 76.9492 219.725 75.5273 220.707C75.0365 221.037 74.3975 221.397 73.6104 221.786C72.8232 222.167 72.1038 222.552 71.4521 222.941C70.8005 223.331 70.2715 223.695 69.8652 224.033C69.112 224.66 68.6549 225.307 68.4941 225.976C69.6706 226.179 70.9189 226.28 72.2393 226.28C73.5596 226.28 74.4821 226.242 75.0068 226.166C75.5316 226.081 75.9505 225.954 76.2637 225.785C76.8477 225.489 77.1396 225.007 77.1396 224.338C77.1396 224.092 77.0889 223.881 76.9873 223.703C77.0381 223.585 77.182 223.525 77.4189 223.525C77.6559 223.525 77.8633 223.572 78.041 223.665C78.2272 223.758 78.388 223.881 78.5234 224.033C78.8112 224.372 78.9551 224.799 78.9551 225.315C78.9551 225.832 78.7477 226.306 78.333 226.737C78.6546 226.949 78.8154 227.245 78.8154 227.626C78.8154 228.007 78.7054 228.307 78.4854 228.527C78.6038 228.722 78.6631 228.921 78.6631 229.124C78.6631 229.319 78.625 229.488 78.5488 229.632C78.4811 229.767 78.388 229.882 78.2695 229.975C78.0156 230.161 77.694 230.254 77.3047 230.254C76.9154 230.254 76.5514 230.169 76.2129 230C74.9857 230.169 73.7161 230.254 72.4043 230.254C71.1009 230.254 69.751 230.118 68.3545 229.848ZM74.042 212.201C74.6683 212.904 74.9814 214.004 74.9814 215.502C74.9814 216.966 74.863 217.982 74.626 218.549C74.9645 218.481 75.2565 218.126 75.502 217.482C75.5866 217.245 75.6501 217 75.6924 216.746C75.7432 216.492 75.7812 216.293 75.8066 216.149C75.8405 216.006 75.8913 215.879 75.959 215.769C76.0859 215.549 76.3102 215.383 76.6318 215.273C76.2933 215.163 76.0859 215.049 76.0098 214.931C75.9336 214.804 75.8786 214.681 75.8447 214.562L75.7178 214.118C75.5062 213.365 75.138 212.806 74.6133 212.442C74.4355 212.315 74.2451 212.235 74.042 212.201ZM76.708 227.22C75.8109 227.618 74.3805 227.816 72.417 227.816C70.4535 227.816 69.0993 227.651 68.3545 227.321C68.3206 227.372 68.3164 227.448 68.3418 227.55C68.3672 227.651 68.4137 227.744 68.4814 227.829C68.5492 227.914 68.7311 227.994 69.0273 228.07C69.332 228.146 69.679 228.206 70.0684 228.248C70.6608 228.324 71.304 228.362 71.998 228.362C72.6921 228.362 73.2591 228.354 73.6992 228.337C74.1478 228.32 74.5667 228.29 74.9561 228.248C75.8617 228.138 76.4033 227.965 76.5811 227.728C76.6911 227.584 76.7334 227.414 76.708 227.22ZM84.327 230.457C84.1239 230.55 83.9081 230.597 83.6796 230.597C83.4595 230.597 83.2479 230.546 83.0448 230.444C82.8501 230.351 82.6851 230.224 82.5497 230.063C82.2535 229.725 82.1054 229.357 82.1054 228.959C82.1054 228.553 82.2323 228.176 82.4862 227.829C82.1731 227.516 82.0165 227.114 82.0165 226.623C82.0165 226.132 82.2535 225.739 82.7274 225.442C82.5666 225.138 82.4862 224.799 82.4862 224.427C82.4862 224.054 82.5285 223.754 82.6132 223.525C82.7063 223.297 82.8374 223.094 83.0067 222.916C83.3622 222.544 83.815 222.357 84.3651 222.357C84.6021 222.357 84.8095 222.438 84.9872 222.599C84.5555 223.149 84.3397 223.961 84.3397 225.036C84.3397 226.72 84.9449 227.808 86.1552 228.299C86.536 228.451 86.9296 228.527 87.3358 228.527C87.7505 228.527 88.1399 228.468 88.5038 228.35C88.8762 228.231 89.2105 228.036 89.5067 227.766C90.1838 227.148 90.5223 226.225 90.5223 224.998V223.627C90.5223 222.721 90.3446 221.993 89.9891 221.443C89.6506 220.91 89.219 220.66 88.6942 220.694C87.3739 220.779 86.7138 220.424 86.7138 219.628C86.7138 219.306 86.828 219.04 87.0565 218.828C87.2343 218.947 87.4289 219.006 87.6405 219.006C87.8521 219.006 88.0044 218.985 88.0975 218.942L88.5292 218.752C89.0116 218.523 89.3882 218.155 89.6591 217.647C89.8114 217.36 89.8876 217 89.8876 216.568V215.451C89.8876 214.224 89.6252 213.318 89.1005 212.734C88.6858 212.26 88.1018 212.023 87.3485 212.023C86.1636 212.023 85.368 212.616 84.9618 213.801C84.8264 214.19 84.7587 214.588 84.7587 214.994C84.7587 215.4 84.7841 215.714 84.8348 215.934C84.8941 216.145 84.9618 216.323 85.038 216.467C85.148 216.695 85.2707 216.86 85.4061 216.962C85.2369 217.123 85.0168 217.203 84.746 217.203C84.4836 217.203 84.2382 217.161 84.0096 217.076C83.7811 216.992 83.5865 216.882 83.4257 216.746C83.0871 216.458 82.9179 216.154 82.9179 215.832C82.9179 215.502 82.9644 215.244 83.0575 215.058C82.6513 214.778 82.4481 214.406 82.4481 213.94C82.4481 213.475 82.6089 213.073 82.9305 212.734C82.6597 212.387 82.5243 212.07 82.5243 211.782C82.5243 211.486 82.5624 211.236 82.6386 211.033C82.7232 210.822 82.8374 210.635 82.9813 210.475C83.3029 210.145 83.688 209.979 84.1366 209.979C84.3567 209.979 84.5598 210.026 84.746 210.119C84.6275 210.305 84.5682 210.475 84.5682 210.627C84.5682 210.855 84.6952 210.97 84.9491 210.97C85.1184 210.97 85.4104 210.906 85.8251 210.779C86.7899 210.475 87.6786 210.322 88.4911 210.322C89.3036 210.322 90.0272 210.407 90.662 210.576C91.3052 210.737 91.8934 210.97 92.4266 211.274C93.5861 211.935 94.3055 212.789 94.5848 213.839C94.7541 214.423 95.1561 214.901 95.7909 215.273C95.1392 215.637 94.716 216.149 94.5214 216.81C94.1744 217.961 93.3703 218.815 92.1093 219.374C92.9556 219.696 93.675 220.132 94.2675 220.682C94.8684 221.223 95.2704 221.85 95.4735 222.561C95.6089 223.043 96.011 223.479 96.6796 223.868C96.0279 224.232 95.5878 224.786 95.3593 225.531C95.1392 226.276 94.7753 226.953 94.2675 227.562C93.7681 228.163 93.1884 228.663 92.5282 229.061C91.2164 229.856 89.7056 230.254 87.996 230.254C86.9296 230.254 85.9182 230.059 84.9618 229.67C84.801 229.602 84.6529 229.568 84.5175 229.568C84.272 229.568 84.1493 229.674 84.1493 229.886C84.1493 230.097 84.2085 230.288 84.327 230.457ZM90.8143 218.562C91.3137 218.477 91.648 217.702 91.8173 216.238C91.868 215.79 92.1727 215.468 92.7313 215.273C92.469 215.189 92.2447 215.024 92.0585 214.778C91.8807 214.524 91.7707 214.279 91.7284 214.042C91.6861 213.797 91.6226 213.576 91.538 213.382C91.4618 213.187 91.3729 213.014 91.2714 212.861C91.0513 212.54 90.8313 212.362 90.6112 212.328L90.7382 212.607C90.9413 213.031 91.0429 213.695 91.0429 214.601C91.0429 215.506 91.0386 216.12 91.0302 216.441C91.0302 216.763 91.0217 217.047 91.0048 217.292C90.9878 217.698 90.9244 218.121 90.8143 218.562ZM91.3221 227.448C91.593 227.397 91.7919 227.262 91.9188 227.042C92.122 226.695 92.2785 226.208 92.3886 225.582C92.5748 224.6 92.9006 224.029 93.3661 223.868C92.8414 223.707 92.5367 223.352 92.452 222.802C92.3589 222.26 92.1939 221.85 91.9569 221.57C91.5845 221.122 91.2671 220.876 91.0048 220.834C91.0386 220.91 91.0936 221.007 91.1698 221.126C91.246 221.244 91.3221 221.41 91.3983 221.621C91.5845 222.154 91.6776 222.776 91.6776 223.487C91.6776 224.198 91.6649 224.748 91.6395 225.138C91.6226 225.527 91.5972 225.878 91.5634 226.191C91.4957 226.801 91.4152 227.22 91.3221 227.448ZM98.8142 223.335C98.7465 223.216 98.7127 223.018 98.7127 222.738C98.7127 222.459 98.8481 222.18 99.1189 221.9C99.3982 221.621 99.8087 221.481 100.35 221.481H106.228C106.296 221.6 106.33 221.799 106.33 222.078C106.33 222.357 106.19 222.637 105.911 222.916C105.64 223.195 105.234 223.335 104.692 223.335H98.8142ZM112.705 229.848C112.214 230.271 111.761 230.482 111.346 230.482C110.94 230.482 110.631 230.381 110.42 230.178C110.216 229.983 110.115 229.725 110.115 229.403C110.31 229.31 110.458 229.209 110.559 229.099C110.415 228.667 110.343 228.151 110.343 227.55C110.343 226.949 110.445 226.348 110.648 225.747C110.86 225.138 111.169 224.566 111.575 224.033C112.303 223.094 113.526 222.112 115.244 221.088C116.268 220.402 116.992 219.708 117.415 219.006C117.923 218.143 118.176 217.051 118.176 215.73C118.176 213.259 117.334 212.023 115.65 212.023C114.795 212.023 114.072 212.32 113.479 212.912C112.844 213.547 112.527 214.414 112.527 215.515C112.527 216.615 112.743 217.436 113.174 217.978C112.98 218.138 112.777 218.219 112.565 218.219C112.362 218.219 112.15 218.181 111.93 218.104C111.71 218.02 111.507 217.897 111.321 217.736C110.898 217.347 110.686 216.89 110.686 216.365C110.686 215.832 110.754 215.413 110.889 215.108C110.441 214.812 110.216 214.427 110.216 213.953C110.216 213.479 110.377 213.073 110.699 212.734C110.428 212.387 110.293 212.07 110.293 211.782C110.293 211.486 110.331 211.236 110.407 211.033C110.492 210.822 110.61 210.635 110.762 210.475C111.075 210.145 111.456 209.979 111.905 209.979C112.125 209.979 112.328 210.026 112.514 210.119C112.396 210.28 112.337 210.449 112.337 210.627C112.337 210.855 112.464 210.97 112.717 210.97C112.887 210.97 113.2 210.894 113.657 210.741C114.495 210.462 115.422 210.322 116.437 210.322C117.453 210.322 118.27 210.386 118.887 210.513C119.514 210.64 120.081 210.843 120.589 211.122C121.613 211.681 122.417 212.599 123.001 213.877C123.271 214.495 123.673 214.96 124.207 215.273C123.699 215.561 123.276 216.128 122.937 216.975C122.319 218.481 121.299 219.725 119.878 220.707C119.387 221.037 118.748 221.397 117.961 221.786C117.173 222.167 116.454 222.552 115.802 222.941C115.151 223.331 114.622 223.695 114.215 224.033C113.462 224.66 113.005 225.307 112.844 225.976C114.021 226.179 115.269 226.28 116.589 226.28C117.91 226.28 118.832 226.242 119.357 226.166C119.882 226.081 120.301 225.954 120.614 225.785C121.198 225.489 121.49 225.007 121.49 224.338C121.49 224.092 121.439 223.881 121.338 223.703C121.388 223.585 121.532 223.525 121.769 223.525C122.006 223.525 122.214 223.572 122.391 223.665C122.577 223.758 122.738 223.881 122.874 224.033C123.161 224.372 123.305 224.799 123.305 225.315C123.305 225.832 123.098 226.306 122.683 226.737C123.005 226.949 123.166 227.245 123.166 227.626C123.166 228.007 123.056 228.307 122.836 228.527C122.954 228.722 123.013 228.921 123.013 229.124C123.013 229.319 122.975 229.488 122.899 229.632C122.831 229.767 122.738 229.882 122.62 229.975C122.366 230.161 122.044 230.254 121.655 230.254C121.266 230.254 120.902 230.169 120.563 230C119.336 230.169 118.066 230.254 116.755 230.254C115.451 230.254 114.101 230.118 112.705 229.848ZM118.392 212.201C119.019 212.904 119.332 214.004 119.332 215.502C119.332 216.966 119.213 217.982 118.976 218.549C119.315 218.481 119.607 218.126 119.852 217.482C119.937 217.245 120 217 120.043 216.746C120.093 216.492 120.131 216.293 120.157 216.149C120.191 216.006 120.242 215.879 120.309 215.769C120.436 215.549 120.66 215.383 120.982 215.273C120.644 215.163 120.436 215.049 120.36 214.931C120.284 214.804 120.229 214.681 120.195 214.562L120.068 214.118C119.856 213.365 119.488 212.806 118.964 212.442C118.786 212.315 118.595 212.235 118.392 212.201ZM121.058 227.22C120.161 227.618 118.731 227.816 116.767 227.816C114.804 227.816 113.45 227.651 112.705 227.321C112.671 227.372 112.667 227.448 112.692 227.55C112.717 227.651 112.764 227.744 112.832 227.829C112.899 227.914 113.081 227.994 113.378 228.07C113.682 228.146 114.029 228.206 114.419 228.248C115.011 228.324 115.654 228.362 116.348 228.362C117.042 228.362 117.609 228.354 118.049 228.337C118.498 228.32 118.917 228.29 119.306 228.248C120.212 228.138 120.754 227.965 120.931 227.728C121.041 227.584 121.084 227.414 121.058 227.22ZM128.817 230.457C128.385 230.652 128.009 230.673 127.687 230.521C127.365 230.377 127.128 230.224 126.976 230.063C126.638 229.716 126.468 229.336 126.468 228.921C126.468 228.506 126.604 228.138 126.875 227.816C126.544 227.444 126.379 227 126.379 226.483C126.379 225.967 126.608 225.565 127.065 225.277C127.006 225.066 126.976 224.778 126.976 224.414C126.976 224.05 127.018 223.754 127.103 223.525C127.196 223.297 127.323 223.094 127.484 222.916C127.848 222.544 128.305 222.357 128.855 222.357C129.092 222.357 129.299 222.438 129.477 222.599C129.045 223.149 128.83 223.961 128.83 225.036C128.83 226.128 129.194 226.995 129.921 227.639C130.607 228.231 131.479 228.527 132.537 228.527C133.755 228.527 134.593 227.867 135.05 226.547C135.211 226.056 135.292 225.455 135.292 224.744V222.967C135.292 221.215 134.856 220.047 133.984 219.463C133.696 219.26 133.281 219.158 132.74 219.158C132.207 219.158 131.728 219.205 131.305 219.298C130.882 219.382 130.531 219.48 130.251 219.59C129.972 219.7 129.735 219.801 129.541 219.895C129.354 219.979 129.155 220.021 128.944 220.021C127.962 220.021 127.488 219.564 127.522 218.65V212.1C127.556 211.245 127.738 210.703 128.068 210.475C128.203 210.373 128.428 210.322 128.741 210.322C129.062 210.322 129.337 210.492 129.566 210.83C130.7 210.492 131.783 210.322 132.816 210.322C133.857 210.322 135.076 210.415 136.472 210.602C136.938 210.415 137.34 210.322 137.678 210.322C138.017 210.322 138.262 210.348 138.415 210.398C138.567 210.441 138.707 210.508 138.834 210.602C139.096 210.805 139.227 211.046 139.227 211.325C139.227 211.596 139.134 211.854 138.948 212.1C139.236 212.311 139.379 212.612 139.379 213.001C139.379 213.39 139.244 213.699 138.973 213.928C139.126 214.131 139.202 214.368 139.202 214.639C139.202 214.901 139.168 215.117 139.1 215.286C139.032 215.455 138.935 215.604 138.808 215.73C138.529 216.035 138.195 216.188 137.805 216.188C137.433 216.188 137.221 216.077 137.17 215.857C137.28 215.739 137.335 215.544 137.335 215.273C137.335 214.994 137.247 214.787 137.069 214.651C136.9 214.507 136.625 214.381 136.244 214.271C135.423 214.034 134.318 213.915 132.93 213.915C131.551 213.915 130.404 214.08 129.49 214.41V218.473C130.632 217.796 132.054 217.457 133.755 217.457C136.472 217.457 138.343 218.308 139.367 220.009C139.697 220.567 139.913 221.075 140.014 221.532C140.124 221.989 140.226 222.294 140.319 222.446C140.412 222.59 140.518 222.721 140.636 222.84C140.797 223.026 141.026 223.204 141.322 223.373C140.611 223.771 140.188 224.283 140.052 224.909C139.621 226.898 138.85 228.29 137.742 229.086C136.658 229.865 135.033 230.254 132.867 230.254C131.546 230.254 130.412 230.059 129.464 229.67C129.295 229.602 129.143 229.568 129.007 229.568C128.762 229.568 128.639 229.674 128.639 229.886C128.639 230.097 128.698 230.288 128.817 230.457ZM129.591 212.76C130.201 212.43 131.369 212.265 133.095 212.265C134.822 212.265 136.083 212.464 136.878 212.861C136.904 212.607 136.845 212.409 136.701 212.265C136.565 212.112 136.201 211.981 135.609 211.871C135.016 211.753 134.386 211.693 133.717 211.693C133.057 211.693 132.532 211.706 132.143 211.731C131.762 211.757 131.411 211.795 131.089 211.846C130.395 211.939 129.959 212.066 129.782 212.227C129.612 212.379 129.549 212.557 129.591 212.76ZM135.71 219.818C136.244 220.775 136.51 221.955 136.51 223.36C136.51 225.273 136.349 226.551 136.028 227.194C136.324 227.135 136.544 226.983 136.688 226.737C136.925 226.314 137.103 225.777 137.221 225.125C137.34 224.465 137.484 224.025 137.653 223.805C137.822 223.576 138.004 223.428 138.199 223.36C137.953 223.284 137.75 223.123 137.589 222.878C137.429 222.632 137.302 222.277 137.209 221.812C137.115 221.346 136.921 220.91 136.625 220.504C136.337 220.098 136.032 219.869 135.71 219.818ZM156.001 229.86C155.561 230.123 155.053 230.254 154.478 230.254C153.911 230.254 153.411 230.118 152.98 229.848C152.548 230.118 152.146 230.254 151.774 230.254C151.41 230.254 151.109 230.22 150.872 230.152C150.635 230.093 150.432 230.008 150.263 229.898C149.891 229.678 149.704 229.403 149.704 229.073C149.704 228.904 149.751 228.756 149.844 228.629C150.03 228.773 150.267 228.845 150.555 228.845C151.308 228.845 151.829 228.523 152.116 227.88V221.659C152.116 221.278 152.04 220.995 151.888 220.809C151.626 220.495 151.185 220.187 150.568 219.882C151.143 219.619 151.516 219.387 151.685 219.184C151.973 218.854 152.116 218.481 152.116 218.066V212.709C151.829 212.057 151.308 211.731 150.555 211.731C150.208 211.731 149.941 211.803 149.755 211.947C149.662 211.82 149.616 211.676 149.616 211.516C149.616 211.346 149.666 211.19 149.768 211.046C149.878 210.902 150.026 210.779 150.212 210.678C150.61 210.441 151.063 210.322 151.571 210.322C152.087 210.322 152.557 210.462 152.98 210.741C153.42 210.462 153.923 210.322 154.491 210.322C155.066 210.322 155.587 210.492 156.052 210.83C156.991 210.492 158.109 210.322 159.404 210.322C160.225 210.322 160.927 210.407 161.511 210.576L162.603 210.881C162.738 210.915 162.869 210.932 162.996 210.932C163.233 210.932 163.352 210.762 163.352 210.424C163.352 210.339 163.322 210.195 163.263 209.992C163.5 209.95 163.8 209.929 164.164 209.929C164.528 209.929 164.837 210.051 165.091 210.297C165.345 210.534 165.472 210.889 165.472 211.363C165.472 211.829 165.379 212.188 165.193 212.442C165.447 212.832 165.574 213.289 165.574 213.813C165.574 214.338 165.404 214.791 165.066 215.172C165.176 215.443 165.231 215.718 165.231 215.997C165.231 216.268 165.193 216.509 165.116 216.721C165.04 216.932 164.943 217.11 164.824 217.254C164.588 217.542 164.304 217.686 163.974 217.686C163.678 217.686 163.394 217.614 163.123 217.47C163.233 217.241 163.288 216.97 163.288 216.657C163.288 216.336 163.271 216.069 163.238 215.857C163.212 215.637 163.17 215.409 163.111 215.172C162.992 214.639 162.793 214.114 162.514 213.598C161.955 212.557 161.079 212.036 159.886 212.036C158.405 212.036 157.372 212.421 156.788 213.191V219.057C157.059 219.209 157.309 219.285 157.537 219.285C157.766 219.285 157.952 219.281 158.096 219.272C158.24 219.264 158.384 219.251 158.528 219.234C158.892 219.192 159.167 219.124 159.353 219.031C159.717 218.862 159.899 218.481 159.899 217.889C159.899 217.288 159.81 216.839 159.632 216.543C159.768 216.424 159.979 216.365 160.267 216.365C160.834 216.365 161.244 216.657 161.498 217.241C161.591 217.453 161.638 217.677 161.638 217.914C161.638 218.143 161.587 218.401 161.486 218.688C161.833 219.086 162.006 219.56 162.006 220.11C162.006 220.652 161.833 221.122 161.486 221.52C161.587 221.807 161.638 222.07 161.638 222.307C161.638 222.535 161.591 222.755 161.498 222.967C161.405 223.178 161.291 223.348 161.156 223.475C160.893 223.712 160.597 223.83 160.267 223.83C160.03 223.83 159.818 223.762 159.632 223.627C159.81 223.331 159.899 222.984 159.899 222.586C159.899 221.799 159.683 221.312 159.251 221.126C158.887 220.982 158.451 220.91 157.944 220.91C157.444 220.91 157.059 220.986 156.788 221.139V227.842C157.11 228.51 157.715 228.845 158.604 228.845C158.892 228.845 159.129 228.773 159.315 228.629C159.408 228.756 159.454 228.904 159.454 229.073C159.454 229.234 159.404 229.386 159.302 229.53C159.209 229.674 159.074 229.797 158.896 229.898C158.515 230.135 158.058 230.254 157.525 230.254C157 230.254 156.492 230.123 156.001 229.86ZM153.335 226.636C153.758 226.475 153.995 225.921 154.046 224.973C154.088 224.025 154.11 222.713 154.11 221.037C154.11 219.361 154.105 218.248 154.097 217.698C154.097 217.14 154.093 216.691 154.084 216.353C154.059 215.354 153.962 214.753 153.792 214.55C153.631 214.338 153.479 214.199 153.335 214.131C153.335 217.076 153.284 218.752 153.183 219.158C153.064 219.497 152.777 219.738 152.32 219.882C152.827 220.06 153.115 220.275 153.183 220.529C153.284 220.936 153.335 222.421 153.335 224.985V226.636ZM178.448 226.166C178.635 225.811 178.977 225.633 179.477 225.633C179.815 225.633 180.078 225.772 180.264 226.052C180.416 226.272 180.492 226.543 180.492 226.864C180.492 227.177 180.412 227.495 180.251 227.816C180.09 228.138 179.87 228.43 179.591 228.692C179.312 228.955 178.99 229.188 178.626 229.391C178.271 229.594 177.89 229.763 177.484 229.898C176.646 230.178 175.774 230.317 174.868 230.317C173.963 230.317 173.112 230.169 172.317 229.873C171.529 229.568 170.852 229.145 170.285 228.604C169.177 227.537 168.5 226.073 168.254 224.211C168.195 223.796 168.097 223.5 167.962 223.322C167.708 223.009 167.289 222.709 166.705 222.421C167.442 222.091 167.911 221.562 168.114 220.834C168.174 220.631 168.22 220.428 168.254 220.225C168.466 218.735 169.219 217.465 170.514 216.416C171.766 215.4 173.167 214.893 174.716 214.893C176.324 214.893 177.716 215.46 178.893 216.594C180.111 217.762 180.721 219.196 180.721 220.897C180.721 220.957 180.717 221.016 180.708 221.075C180.708 221.134 180.712 221.189 180.721 221.24C180.738 221.35 180.805 221.414 180.924 221.431C181.076 221.625 181.152 221.833 181.152 222.053C181.152 222.561 180.882 222.861 180.34 222.954C180.205 222.979 179.993 223.013 179.705 223.056L172.545 224.198V225.417C172.545 226.399 172.841 227.177 173.434 227.753C173.992 228.303 174.699 228.578 175.554 228.578C176.459 228.578 177.187 228.392 177.737 228.02C178.254 227.664 178.512 227.199 178.512 226.623C178.512 226.488 178.491 226.335 178.448 226.166ZM176.227 222.065V218.511C176.227 217.952 176.117 217.542 175.897 217.279C175.507 216.831 175.122 216.606 174.741 216.606C174.361 216.606 174.043 216.666 173.789 216.784C173.535 216.894 173.315 217.072 173.129 217.317C172.74 217.834 172.545 218.638 172.545 219.729V222.662L176.227 222.065ZM178.106 221.748V221.354C178.106 219.78 177.974 218.828 177.712 218.498C177.594 218.354 177.462 218.248 177.319 218.181V221.875L178.106 221.748ZM170.476 226.636C170.594 226.543 170.653 226.437 170.653 226.318C170.653 226.132 170.615 225.895 170.539 225.607C170.192 224.279 170.019 223.356 170.019 222.84C170.019 222.315 170.036 221.909 170.069 221.621C170.103 221.325 170.15 221.029 170.209 220.732C170.311 220.157 170.421 219.649 170.539 219.209C170.615 218.921 170.653 218.727 170.653 218.625C170.653 218.422 170.594 218.274 170.476 218.181C170.12 218.604 169.849 219.171 169.663 219.882C169.477 220.593 169.325 221.219 169.206 221.761C169.164 221.989 168.914 222.209 168.457 222.421C168.914 222.632 169.164 222.844 169.206 223.056C169.519 224.486 169.777 225.396 169.981 225.785C170.184 226.174 170.349 226.458 170.476 226.636ZM188.721 229.111C187.798 229.873 186.859 230.254 185.902 230.254C185.048 230.254 184.523 230.144 184.328 229.924C184.514 229.695 184.616 229.353 184.633 228.896C184.65 228.438 184.658 228.011 184.658 227.613V224.084C184.658 223.712 184.578 223.441 184.417 223.271C184.189 223.009 183.753 222.721 183.109 222.408C183.702 222.137 184.078 221.922 184.239 221.761C184.519 221.481 184.658 221.143 184.658 220.745V213.56C184.658 212.595 184.265 212.112 183.478 212.112C183.19 212.112 182.953 212.184 182.767 212.328C182.648 212.167 182.589 212.002 182.589 211.833C182.589 211.655 182.631 211.486 182.716 211.325C182.809 211.164 182.944 211.016 183.122 210.881C183.528 210.593 184.036 210.449 184.646 210.449C185.255 210.449 185.733 210.487 186.08 210.563C186.588 209.979 187.108 209.688 187.642 209.688C188.513 209.688 188.949 210.145 188.949 211.059V216.492C189.601 215.84 190.473 215.388 191.564 215.134C191.895 215.058 192.322 215.02 192.847 215.02C193.371 215.02 193.922 215.096 194.497 215.248C195.073 215.4 195.572 215.671 195.995 216.061C196.842 216.839 197.362 218.227 197.557 220.225C197.641 221.266 198.158 222.002 199.106 222.434C198.505 222.73 198.124 222.979 197.963 223.183C197.743 223.47 197.607 223.813 197.557 224.211C197.311 226.251 196.786 227.757 195.982 228.73C195.102 229.788 193.828 230.317 192.161 230.317C191.306 230.317 190.426 230.085 189.521 229.619C189.224 229.475 188.958 229.306 188.721 229.111ZM187.731 214.131C187.384 214.292 187.172 214.596 187.096 215.045C187.003 215.604 186.956 216.526 186.956 217.812V219.768V220.174C186.965 220.631 186.973 221.253 186.981 222.04C186.99 222.819 186.998 223.42 187.007 223.843C187.024 224.757 187.049 225.337 187.083 225.582C187.117 225.827 187.193 226.052 187.312 226.255C187.439 226.45 187.578 226.576 187.731 226.636V214.131ZM188.949 225.976C188.949 226.661 189.182 227.249 189.647 227.74C190.088 228.223 190.587 228.464 191.146 228.464C192.559 228.464 193.266 227.448 193.266 225.417V219.856C193.266 218.265 192.897 217.322 192.161 217.025C191.924 216.924 191.658 216.873 191.361 216.873C190.278 216.873 189.546 217.394 189.165 218.435C189.021 218.815 188.949 219.289 188.949 219.856V225.976ZM194.484 226.636C194.908 226.475 195.14 225.921 195.183 224.973C195.233 224.025 195.259 223.322 195.259 222.865C195.259 222.4 195.255 222.015 195.246 221.71C195.246 221.397 195.242 221.075 195.233 220.745C195.2 219.509 195.102 218.79 194.941 218.587C194.781 218.384 194.628 218.248 194.484 218.181V226.636Z" fill="#60231A"/>
<defs>
<linearGradient id="paint0_linear_634_105" x1="188.973" y1="296.311" x2="188.973" y2="315.22" gradientUnits="userSpaceOnUse">
<stop stop-color="#FFA352"/>
<stop offset="1" stop-color="#AC5406"/>
</linearGradient>
<linearGradient id="paint1_linear_634_105" x1="177.521" y1="280.28" x2="177.521" y2="311.105" gradientUnits="userSpaceOnUse">
<stop stop-color="#FFA352"/>
<stop offset="1" stop-color="#AC5406"/>
</linearGradient>
<linearGradient id="paint2_linear_634_105" x1="162.644" y1="270.879" x2="162.644" y2="308.254" gradientUnits="userSpaceOnUse">
<stop stop-color="#FFA352"/>
<stop offset="1" stop-color="#AC5406"/>
</linearGradient>
<linearGradient id="paint3_linear_634_105" x1="147.688" y1="269.97" x2="147.688" y2="306.345" gradientUnits="userSpaceOnUse">
<stop stop-color="#FFA352"/>
<stop offset="1" stop-color="#AC5406"/>
</linearGradient>
<linearGradient id="paint4_linear_634_105" x1="187.366" y1="309.93" x2="187.366" y2="323.171" gradientUnits="userSpaceOnUse">
<stop stop-color="#FFA352"/>
<stop offset="1" stop-color="#AC5406"/>
</linearGradient>
<linearGradient id="paint5_linear_634_105" x1="73.1601" y1="296.311" x2="73.1601" y2="315.22" gradientUnits="userSpaceOnUse">
<stop stop-color="#FFA352"/>
<stop offset="1" stop-color="#AC5406"/>
</linearGradient>
<linearGradient id="paint6_linear_634_105" x1="84.6025" y1="280.28" x2="84.6025" y2="311.105" gradientUnits="userSpaceOnUse">
<stop stop-color="#FFA352"/>
<stop offset="1" stop-color="#AC5406"/>
</linearGradient>
<linearGradient id="paint7_linear_634_105" x1="99.4802" y1="270.879" x2="99.4802" y2="308.254" gradientUnits="userSpaceOnUse">
<stop stop-color="#FFA352"/>
<stop offset="1" stop-color="#AC5406"/>
</linearGradient>
<linearGradient id="paint8_linear_634_105" x1="114.442" y1="269.97" x2="114.442" y2="306.345" gradientUnits="userSpaceOnUse">
<stop stop-color="#FFA352"/>
<stop offset="1" stop-color="#AC5406"/>
</linearGradient>
<linearGradient id="paint9_linear_634_105" x1="74.7643" y1="309.93" x2="74.7643" y2="323.17" gradientUnits="userSpaceOnUse">
<stop stop-color="#FFA352"/>
<stop offset="1" stop-color="#AC5406"/>
</linearGradient>
<radialGradient id="paint10_radial_634_105" cx="0" cy="0" r="1" gradientUnits="userSpaceOnUse" gradientTransform="translate(131.596 358.071) rotate(90) scale(34.354 32.0886)">
<stop stop-color="#FFE330"/>
<stop offset="1" stop-color="#FF7700"/>
</radialGradient>
</defs>
</svg>
