<svg viewBox="0 0 1440 848" fill="none" xmlns="http://www.w3.org/2000/svg">
<rect width="1440" height="848" fill="#52A3C1"/>
<path d="M187.26 191.671L206.561 191.095C207.971 191.052 209.081 189.874 209.039 188.464C208.997 187.053 207.819 185.944 206.408 185.986L187.108 186.562C181.183 186.74 176.219 182.063 176.042 176.139L175.756 166.57C175.713 165.159 174.535 164.049 173.125 164.092C171.714 164.134 170.604 165.312 170.647 166.722L170.933 176.291C171.194 185.033 178.518 191.933 187.26 191.671Z" fill="#D40F4F"/>
<path d="M173.192 157.056L187.814 141.532C191.261 145.104 193.441 149.92 193.6 155.272C193.942 166.688 184.963 176.219 173.547 176.56C162.131 176.901 152.599 167.923 152.258 156.507C152.095 151.04 154.073 146.008 157.429 142.208L173.192 157.056Z" fill="#ED2760"/>
<path d="M173.234 166.114C182.843 165.827 190.722 159.029 192.774 150.077C193.258 151.732 193.546 153.472 193.6 155.275C193.941 166.691 184.963 176.222 173.546 176.563C162.13 176.904 152.599 167.926 152.257 156.51C152.204 154.707 152.387 152.953 152.772 151.274C155.354 160.087 163.626 166.401 173.234 166.114Z" fill="#D40F4F"/>
<path d="M267.52 208.937L249.871 201.104C248.581 200.531 248 199.021 248.572 197.731C249.145 196.441 250.655 195.86 251.945 196.432L269.593 204.266C275.011 206.671 281.375 204.219 283.78 198.802L287.664 190.052C288.236 188.761 289.746 188.18 291.036 188.753C292.326 189.325 292.908 190.835 292.335 192.125L288.451 200.875C284.903 208.869 275.513 212.486 267.52 208.937Z" fill="#D40F4F"/>
<path d="M293.638 182.223L285.973 162.322C281.432 164.325 277.593 167.958 275.42 172.852C270.787 183.292 275.493 195.51 285.933 200.144C296.372 204.778 308.591 200.071 313.224 189.632C315.443 184.633 315.516 179.227 313.846 174.44L293.638 182.223Z" fill="#ED2760"/>
<path d="M290.183 190.585C281.397 186.686 276.673 177.413 278.159 168.35C277.086 169.698 276.161 171.2 275.429 172.849C270.796 183.288 275.502 195.507 285.942 200.14C296.381 204.774 308.6 200.068 313.233 189.629C313.965 187.98 314.459 186.287 314.738 184.587C309.014 191.768 298.969 194.485 290.183 190.585Z" fill="#D40F4F"/>
<path d="M203.989 202.269L201.84 210.098C201.335 211.935 199.798 213.116 198.408 212.734C197.018 212.353 196.3 210.552 196.804 208.716L198.954 200.886C199.458 199.05 200.995 197.868 202.385 198.25C203.775 198.631 204.494 200.432 203.989 202.269Z" fill="black"/>
<path d="M213.732 204.46L211.582 212.29C211.078 214.126 209.54 215.307 208.15 214.926C206.761 214.544 206.042 212.743 206.546 210.907L208.696 203.077C209.2 201.241 210.738 200.06 212.127 200.441C213.517 200.823 214.236 202.624 213.732 204.46Z" fill="black"/>
<path d="M238.482 210.015L236.332 217.844C235.828 219.681 234.29 220.862 232.9 220.48C231.511 220.099 230.792 218.298 231.296 216.462L233.446 208.632C233.95 206.796 235.488 205.614 236.877 205.996C238.267 206.378 238.986 208.178 238.482 210.015Z" fill="black"/>
<path d="M248.224 212.202L246.074 220.032C245.57 221.868 244.032 223.05 242.643 222.668C241.253 222.286 240.534 220.486 241.038 218.649L243.188 210.82C243.692 208.983 245.23 207.802 246.619 208.184C248.009 208.565 248.728 210.366 248.224 212.202Z" fill="black"/>
<path d="M250.92 212.32L200.475 200.99C193.943 199.523 189.837 193.038 191.304 186.506C195.231 169.021 212.588 158.031 230.072 161.958L240.857 164.38C258.341 168.307 269.331 185.664 265.404 203.148C263.937 209.681 257.452 213.787 250.92 212.32Z" fill="#ED2760"/>
<path d="M254.351 197.38L203.906 186.051C199.357 185.029 195.987 181.573 194.854 177.363C193.248 180.142 192.029 183.208 191.288 186.506C189.821 193.038 193.927 199.523 200.459 200.99L250.904 212.32C257.436 213.787 263.921 209.681 265.389 203.148C266.112 199.927 266.328 196.71 266.091 193.581C263.258 196.78 258.816 198.383 254.351 197.38Z" fill="#D40F4F"/>
<path d="M262.268 147.506C260.38 155.255 252.569 160.006 244.82 158.119C237.071 156.231 232.32 148.419 234.207 140.671C236.095 132.922 243.907 128.171 251.655 130.058C259.404 131.946 264.155 139.757 262.268 147.506Z" fill="#ED2760"/>
<path d="M247.377 143.877C245.49 151.626 237.678 156.377 229.929 154.49C222.181 152.602 217.429 144.791 219.317 137.042C221.204 129.293 229.016 124.542 236.765 126.429C244.513 128.317 249.265 136.128 247.377 143.877Z" fill="#ED2760"/>
<path d="M242.188 142.614C241 147.493 236.081 150.485 231.202 149.296C226.323 148.108 223.332 143.19 224.52 138.311C225.708 133.432 230.627 130.44 235.506 131.628C240.385 132.817 243.376 137.735 242.188 142.614Z" fill="white"/>
<path d="M235.939 141.094C235.589 142.529 234.142 143.409 232.708 143.06C231.272 142.71 230.393 141.263 230.742 139.829C231.092 138.393 232.538 137.514 233.973 137.863C235.408 138.213 236.288 139.659 235.939 141.094Z" fill="#002439"/>
<path d="M226.496 173.842L224.071 173.251L229.641 150.387L232.065 150.977L226.496 173.842Z" fill="#ED2760"/>
<path d="M257.078 146.239C255.89 151.118 250.971 154.11 246.092 152.921C241.214 151.733 238.222 146.815 239.411 141.936C240.599 137.057 245.518 134.065 250.396 135.253C255.275 136.442 258.267 141.36 257.078 146.239Z" fill="white"/>
<path d="M250.845 144.723C250.495 146.158 249.049 147.038 247.614 146.688C246.179 146.339 245.299 144.892 245.648 143.457C245.998 142.022 247.445 141.143 248.879 141.492C250.315 141.842 251.195 143.288 250.845 144.723Z" fill="#002439"/>
<path d="M241.394 177.47L238.97 176.88L244.539 154.016L246.964 154.606L241.394 177.47Z" fill="#ED2760"/>
<path d="M217.935 174.308C216.932 172.725 217.403 170.628 218.987 169.625C220.57 168.622 222.667 169.093 223.669 170.677C227.805 177.207 236.481 179.156 243.012 175.021C244.596 174.018 246.692 174.489 247.695 176.073C248.698 177.657 248.227 179.753 246.643 180.756C236.95 186.893 224.072 184.001 217.935 174.308Z" fill="#B91546"/>
<g clip-path="url(#clip0_1939_87)">
<path d="M1236.26 709.66L1239.61 707.389C1240.8 706.579 1241.95 705.707 1243.03 704.795C1243.77 704.165 1244.52 703.479 1245.25 702.757L1247.97 700.076L1251.62 715.759L1236.26 709.66Z" fill="#3EBD9E"/>
<path d="M1234.29 642.541C1230.57 645 1226.15 648.212 1221.16 652.09L1219.6 653.295L1218.27 651.853C1213.89 647.122 1209.98 643.167 1206.65 640.099L1203.76 637.43L1207.57 636.449C1216.37 634.186 1225.76 635.024 1234 638.807L1237.51 640.415L1234.29 642.541Z" fill="#F4A026"/>
<path d="M1238.18 675.073C1232.81 668.333 1226.92 661.392 1221.14 655L1219.59 653.285L1221.42 651.869C1227.16 647.428 1232.29 643.762 1236.27 641.269L1237.41 640.553L1238.55 641.271C1241.93 643.403 1244.98 646.045 1247.59 649.123C1250.47 652.524 1252.74 656.347 1254.33 660.485L1254.8 661.704L1253.93 662.678C1250.84 666.144 1246.48 670.512 1241.31 675.309L1239.62 676.882L1238.18 675.073Z" fill="#F4A026"/>
<path d="M1249.9 690.865C1247.5 687.285 1244.45 683.099 1240.81 678.424L1239.61 676.872L1241.05 675.538C1245.5 671.414 1249.27 667.712 1252.23 664.535L1254.96 661.614L1255.88 665.502C1257.86 673.81 1257.06 682.698 1253.65 690.529L1252.08 694.117L1249.9 690.865Z" fill="#F4A026"/>
<path d="M1243.02 704.795C1239.76 707.561 1236.11 709.763 1232.16 711.34L1230.93 711.833L1229.94 710.944C1226.47 707.834 1222.32 703.675 1217.59 698.582L1216.02 696.887L1217.83 695.447C1221.14 692.814 1224.56 690 1227.99 687.085C1231.43 684.169 1234.76 681.252 1237.9 678.413L1239.61 676.862L1241.03 678.691C1245.29 684.187 1248.71 688.963 1251.22 692.887L1251.94 694.009L1251.25 695.148C1249.05 698.785 1246.28 702.031 1243.02 704.795Z" fill="#F4A026"/>
<path d="M1228.01 687.092C1224.51 690.06 1221.01 692.937 1217.61 695.642L1216.03 696.891L1214.69 695.402C1208.85 688.964 1202.67 681.673 1197.26 674.871L1196.01 673.299L1197.5 671.951C1200.73 669.031 1204.13 666.046 1207.63 663.077C1211.13 660.109 1214.63 657.233 1218.03 654.528L1219.61 653.279L1220.95 654.767C1226.79 661.205 1232.97 668.497 1238.38 675.299L1239.63 676.871L1238.14 678.219C1234.92 681.138 1231.51 684.124 1228.01 687.092Z" fill="#F4A026"/>
<path d="M1217.8 654.724C1214.47 657.377 1211.05 660.191 1207.64 663.089C1204.22 665.988 1200.89 668.905 1197.73 671.759L1196.01 673.309L1194.6 671.482C1190.03 665.59 1186.3 660.343 1183.79 656.307L1183.09 655.186L1183.78 654.059C1185.98 650.477 1188.71 647.281 1191.92 644.562C1195.12 641.843 1198.72 639.663 1202.61 638.084L1203.83 637.587L1204.83 638.457C1208.38 641.567 1212.95 646.109 1218.04 651.59L1219.61 653.284L1217.8 654.724Z" fill="#F4A026"/>
<path d="M1179.39 685.145C1177 676.395 1177.7 666.997 1181.36 658.685L1182.95 655.082L1185.11 658.373C1187.56 662.098 1190.92 666.723 1194.82 671.748L1196.03 673.3L1194.58 674.634C1189.95 678.929 1186.06 682.765 1183.03 686.036L1180.41 688.865L1179.39 685.145Z" fill="#F4A026"/>
<path d="M1214.21 698.303C1208.64 702.622 1203.62 706.217 1199.7 708.7L1198.59 709.398L1197.47 708.737C1193.64 706.49 1190.23 703.63 1187.35 700.235C1184.75 697.164 1182.64 693.733 1181.08 690.036L1180.55 688.794L1181.44 687.784C1184.54 684.281 1188.99 679.813 1194.32 674.864L1196.02 673.291L1197.46 675.1C1202.82 681.842 1208.71 688.783 1214.49 695.172L1216.04 696.887L1214.21 698.303Z" fill="#F4A026"/>
<path d="M1227.22 712.949C1218.94 715.044 1210.04 714.382 1202.16 711.083L1198.48 709.539L1201.8 707.324C1205.42 704.915 1209.68 701.806 1214.48 698.083L1216.03 696.878L1217.36 698.32C1221.38 702.662 1225.02 706.36 1228.16 709.31L1231.01 711.989L1227.22 712.949Z" fill="#F4A026"/>
<path d="M1233.96 736.018C1232.46 737.291 1230.55 737.904 1228.59 737.743L1208.97 736.136C1204.92 735.804 1201.9 732.242 1202.23 728.194L1203.58 711.736L1206.11 712.492C1209.29 713.441 1212.59 713.99 1215.92 714.124L1218.15 714.213L1217.51 722.058L1229.79 723.061C1231.76 723.225 1233.54 724.14 1234.81 725.639C1236.08 727.139 1236.7 729.045 1236.54 731.005C1236.38 732.965 1235.46 734.746 1233.96 736.018Z" fill="#3EBD9E"/>
<path d="M1275.31 700.932C1273.81 702.205 1271.9 702.818 1269.94 702.657C1267.98 702.497 1266.2 701.582 1264.93 700.082C1263.65 698.582 1263.04 696.676 1263.2 694.716L1264.21 682.426L1256.36 681.787L1256.64 679.568C1257.05 676.273 1257.05 672.926 1256.63 669.622L1256.29 667L1272.75 668.348C1276.8 668.682 1279.82 672.246 1279.49 676.291L1277.88 695.918C1277.72 697.879 1276.81 699.659 1275.31 700.932Z" fill="#3EBD9E"/>
<path d="M1238.44 626.858C1236.94 628.131 1235.03 628.744 1233.07 628.583L1220.78 627.575L1220.16 635.242L1218.15 635.206C1214.77 635.147 1211.39 635.519 1208.11 636.311L1205.23 637.007L1206.7 619.035C1206.87 617.072 1207.78 615.292 1209.28 614.02C1210.78 612.747 1212.69 612.134 1214.65 612.295L1234.27 613.903C1236.23 614.06 1238.01 614.975 1239.29 616.478C1240.56 617.98 1241.17 619.885 1241.01 621.842C1240.85 623.807 1239.94 625.587 1238.44 626.858Z" fill="#3EBD9E"/>
<path d="M1198.89 639.822C1196.41 641.141 1194.07 642.735 1191.92 644.562C1189.76 646.388 1187.81 648.442 1186.1 650.669L1184.49 652.779L1177.91 645.029C1174.19 640.639 1174.73 634.035 1179.12 630.309L1179.94 629.616C1184.33 625.89 1190.93 626.431 1194.66 630.822L1201.23 638.572L1198.89 639.822Z" fill="#3EBD9E"/>
<path d="M1166.87 687.583C1165.37 688.855 1163.47 689.468 1161.51 689.307C1159.55 689.15 1157.77 688.235 1156.49 686.732C1155.22 685.229 1154.6 683.322 1154.77 681.363L1156.37 661.741C1156.54 659.777 1157.45 657.997 1158.95 656.726C1160.45 655.453 1162.36 654.84 1164.32 655.001L1182.29 656.471L1181.14 659.2C1179.82 662.308 1178.9 665.579 1178.41 668.922L1178.12 670.911L1170.45 670.28L1169.45 682.567C1169.29 684.531 1168.37 686.311 1166.87 687.583Z" fill="#3EBD9E"/>
<path d="M1232.9 630.718C1235.43 630.923 1237.89 630.133 1239.82 628.49C1241.76 626.848 1242.94 624.551 1243.15 622.016C1243.36 619.488 1242.56 617.027 1240.92 615.091C1239.28 613.154 1236.98 611.974 1234.45 611.765L1214.82 610.158C1212.29 609.951 1209.83 610.743 1207.9 612.386C1205.96 614.028 1204.78 616.327 1204.57 618.858L1203.21 635.465C1203.21 635.495 1203.21 635.526 1203.21 635.556C1202.77 635.714 1202.34 635.882 1201.91 636.056L1196.29 629.436C1191.8 624.144 1183.84 623.492 1178.55 627.983L1177.73 628.676C1172.44 633.167 1171.79 641.123 1176.28 646.415L1181.9 653.035C1181.65 653.433 1181.42 653.834 1181.19 654.237C1181.16 654.234 1181.13 654.228 1181.1 654.226L1164.49 652.867C1161.96 652.66 1159.5 653.452 1157.57 655.094C1155.63 656.737 1154.45 659.036 1154.24 661.566L1152.63 681.193C1152.43 683.724 1153.22 686.182 1154.86 688.12C1156.5 690.056 1158.8 691.238 1161.33 691.445C1163.87 691.651 1166.32 690.86 1168.26 689.218C1170.2 687.575 1171.38 685.278 1171.59 682.744L1172.41 672.592L1175.89 672.879C1175.45 682.999 1178.66 693.304 1185.72 701.62C1190.1 706.777 1195.47 710.601 1201.32 713.052L1200.09 728.018C1199.67 733.242 1203.57 737.84 1208.79 738.27L1228.42 739.877C1230.95 740.085 1233.41 739.293 1235.35 737.65C1237.28 736.008 1238.46 733.709 1238.67 731.176C1238.88 728.645 1238.09 726.185 1236.44 724.251C1234.8 722.316 1232.51 721.136 1229.97 720.924L1219.82 720.095L1220.14 716.211C1225.62 715.866 1231.06 714.442 1236.12 711.91L1250.84 717.749C1251.57 718.041 1252.41 717.903 1253.01 717.392L1253.03 717.381C1253.63 716.859 1253.89 716.048 1253.71 715.27L1250.24 700.374C1254.07 695.493 1256.67 689.91 1258.02 684.072L1261.9 684.389L1261.07 694.543C1260.86 697.073 1261.65 699.532 1263.29 701.468C1264.93 703.401 1267.23 704.583 1269.76 704.792C1272.3 705 1274.76 704.208 1276.69 702.565C1278.63 700.923 1279.81 698.624 1280.02 696.091L1281.63 676.464C1282.05 671.242 1278.15 666.644 1272.93 666.213L1257.96 664.988C1256.49 658.817 1253.6 652.894 1249.22 647.736C1242.16 639.42 1232.52 634.57 1222.46 633.358L1222.74 629.884L1232.9 630.718ZM1170.63 668.147C1170.06 668.1 1169.5 668.282 1169.07 668.65C1168.64 669.017 1168.37 669.542 1168.32 670.108L1167.32 682.394C1167.2 683.785 1166.55 685.048 1165.49 685.951C1164.42 686.854 1163.07 687.288 1161.68 687.174C1160.29 687.062 1159.03 686.412 1158.13 685.348C1157.23 684.284 1156.79 682.934 1156.9 681.543L1158.51 661.918C1158.63 660.527 1159.27 659.264 1160.34 658.361C1161.4 657.458 1162.75 657.024 1164.14 657.138L1179.16 658.366C1177.77 661.66 1176.81 665.106 1176.29 668.613L1170.63 668.147ZM1188.99 698.848C1186.46 695.875 1184.49 692.618 1183.05 689.202C1186.25 685.579 1190.7 681.149 1195.78 676.433C1201.14 683.162 1207.13 690.231 1212.9 696.608C1207.56 700.742 1202.59 704.332 1198.55 706.888C1195.02 704.819 1191.78 702.137 1188.99 698.848ZM1229.62 725.195C1231.01 725.311 1232.28 725.96 1233.18 727.023C1234.08 728.087 1234.51 729.439 1234.4 730.828C1234.29 732.217 1233.64 733.481 1232.57 734.383C1231.51 735.286 1230.16 735.721 1228.77 735.607L1209.14 733.999C1206.27 733.764 1204.13 731.236 1204.36 728.368L1205.5 714.544C1208.86 715.549 1212.34 716.123 1215.84 716.263L1215.37 721.881C1215.33 722.447 1215.51 723.007 1215.88 723.442C1216.24 723.875 1216.77 724.144 1217.33 724.19L1229.62 725.195ZM1202.99 709.107C1206.76 706.598 1211.15 703.382 1215.79 699.775C1219.71 704.001 1223.44 707.812 1226.7 710.872C1218.83 712.862 1210.47 712.241 1202.99 709.107ZM1193.13 673.064C1188.63 677.225 1184.61 681.181 1181.45 684.582C1179.19 676.286 1179.86 667.411 1183.32 659.551C1185.9 663.472 1189.29 668.123 1193.13 673.064ZM1179.55 643.643C1176.58 640.152 1177.01 634.904 1180.5 631.943L1181.32 631.25C1184.81 628.289 1190.06 628.717 1193.02 632.208L1197.88 637.931C1195.3 639.303 1192.84 640.967 1190.53 642.928C1188.22 644.889 1186.17 647.051 1184.4 649.366L1179.55 643.643ZM1185.61 655.176C1187.63 651.875 1190.19 648.832 1193.3 646.195C1196.41 643.558 1199.83 641.524 1203.41 640.068C1207.09 643.285 1211.63 647.837 1216.47 653.048C1209.74 658.405 1202.67 664.403 1196.29 670.169C1191.94 664.548 1188.19 659.326 1185.61 655.176ZM1248.61 712.257L1240.81 709.161C1242.05 708.324 1243.25 707.415 1244.41 706.428C1245.23 705.736 1246.01 705.019 1246.75 704.283L1248.61 712.257ZM1249.42 694.039C1247.39 697.395 1244.79 700.486 1241.64 703.161C1238.49 705.836 1235.01 707.894 1231.37 709.349C1227.86 706.193 1223.64 701.941 1219.16 697.123C1222.53 694.446 1225.98 691.607 1229.38 688.717C1232.79 685.827 1236.15 682.886 1239.34 680.001C1243.37 685.2 1246.87 690.055 1249.42 694.039ZM1236.7 676.633C1230.25 682.468 1223.08 688.56 1216.27 693.966C1210.43 687.524 1204.34 680.345 1198.94 673.54C1205.38 667.705 1212.56 661.613 1219.36 656.207C1225.2 662.649 1231.29 669.827 1236.7 676.633ZM1251.68 689.672C1249.19 685.957 1246.04 681.656 1242.5 677.109C1246.82 673.113 1250.71 669.305 1253.8 665.996C1255.67 673.888 1254.93 682.228 1251.68 689.672ZM1272.58 670.483C1275.45 670.72 1277.59 673.248 1277.36 676.117L1275.75 695.743C1275.63 697.132 1274.98 698.396 1273.92 699.298C1272.86 700.201 1271.51 700.636 1270.12 700.522C1268.73 700.408 1267.46 699.759 1266.56 698.695C1265.66 697.632 1265.22 696.28 1265.34 694.891L1266.34 682.601C1266.39 682.035 1266.21 681.475 1265.84 681.042C1265.47 680.607 1264.95 680.338 1264.38 680.292L1258.77 679.834C1259.2 676.36 1259.2 672.837 1258.75 669.351L1272.58 670.483ZM1245.95 650.508C1248.74 653.798 1250.86 657.435 1252.33 661.252C1249.15 664.822 1244.8 669.146 1239.85 673.738C1234.5 667.011 1228.5 659.942 1222.73 653.563C1228.21 649.321 1233.31 645.652 1237.4 643.082C1240.54 645.057 1243.43 647.535 1245.95 650.508ZM1233.1 640.754C1229.23 643.31 1224.68 646.641 1219.84 650.398C1215.59 645.805 1211.55 641.706 1208.1 638.524C1216.42 636.384 1225.29 637.167 1233.1 640.754ZM1218.19 633.063C1214.64 633.001 1211.09 633.388 1207.61 634.228L1208.84 619.21C1208.96 617.819 1209.6 616.555 1210.67 615.653C1211.73 614.75 1213.08 614.316 1214.47 614.429L1234.1 616.037C1235.49 616.149 1236.75 616.8 1237.66 617.863C1238.56 618.927 1238.99 620.278 1238.88 621.667C1238.77 623.057 1238.12 624.321 1237.05 625.224C1235.99 626.126 1234.64 626.561 1233.25 626.447L1220.96 625.438C1220.39 625.392 1219.83 625.574 1219.4 625.941C1218.97 626.309 1218.7 626.834 1218.65 627.4L1218.19 633.063Z" fill="#050000"/>
<path d="M1203.96 649.199C1203.85 649.291 1203.73 649.373 1203.61 649.444C1200.25 651.287 1197.19 653.885 1194.83 656.892C1194.1 657.821 1192.75 657.983 1191.82 657.252C1190.89 656.521 1190.73 655.175 1191.46 654.244C1194.18 650.786 1197.69 647.808 1201.54 645.69C1202.58 645.12 1203.88 645.498 1204.45 646.535C1204.95 647.442 1204.72 648.554 1203.96 649.199Z" fill="#050000"/>
<path d="M1238.86 699.891C1237.16 701.335 1235.32 702.604 1233.4 703.664C1232.36 704.234 1231.06 703.856 1230.49 702.819C1229.92 701.782 1230.29 700.478 1231.33 699.91C1234.68 698.066 1237.74 695.47 1240.11 692.462C1240.84 691.532 1242.19 691.37 1243.12 692.101C1244.05 692.832 1244.21 694.179 1243.48 695.11C1242.12 696.839 1240.57 698.448 1238.86 699.891Z" fill="#050000"/>
<path d="M1199.73 700.628C1198.97 701.274 1197.84 701.317 1197.02 700.676C1195.3 699.317 1193.69 697.769 1192.25 696.073C1190.81 694.376 1189.54 692.533 1188.48 690.594C1187.91 689.557 1188.28 688.254 1189.32 687.684C1190.36 687.113 1191.66 687.491 1192.23 688.528C1193.16 690.216 1194.27 691.822 1195.52 693.301C1196.78 694.779 1198.17 696.127 1199.67 697.31C1200.6 698.042 1200.77 699.388 1200.03 700.318C1199.94 700.433 1199.84 700.537 1199.73 700.628Z" fill="#050000"/>
<path d="M1245.96 661.399C1245.85 661.49 1245.73 661.572 1245.61 661.643C1244.57 662.214 1243.27 661.836 1242.7 660.8C1241.77 659.126 1240.67 657.527 1239.42 656.05C1238.16 654.571 1236.76 653.217 1235.24 652.025C1234.31 651.293 1234.15 649.946 1234.88 649.016C1235.62 648.086 1236.96 647.926 1237.89 648.658C1239.63 650.026 1241.24 651.581 1242.68 653.278C1244.12 654.973 1245.39 656.808 1246.45 658.733C1246.95 659.641 1246.72 660.753 1245.96 661.399Z" fill="#050000"/>
</g>
<g clip-path="url(#clip1_1939_87)">
<path d="M261.755 612.442C259.899 612.791 257.872 612.755 255.891 612.341C253.627 611.871 251.471 610.942 249.487 609.583C248.144 608.664 246.942 607.587 245.916 606.383L243.248 603.253L257.8 600.521C257.822 600.516 257.84 600.511 257.854 600.505L243.476 590.673L245.821 588.649C247.337 587.339 249.199 586.47 251.354 586.065C255.386 585.308 259.855 586.351 263.615 588.925C270.33 593.514 272.88 601.598 269.42 607.33C269.42 607.33 269.192 607.693 269.079 607.854C267.436 610.257 264.898 611.852 261.755 612.442Z" fill="#E46A53"/>
<path d="M257.012 635.836C256.019 633.342 254.111 631.299 251.639 630.085L248.237 628.413L251.216 626.071C253.967 623.909 255.543 621.248 256.033 617.936C256.165 617.043 256.219 616.094 256.193 615.119L256.126 612.591L258.653 612.672C259.723 612.707 260.768 612.63 261.758 612.444C263.543 612.109 265.155 611.432 266.552 610.431L269.867 608.055L270.31 612.11C270.574 614.522 270.568 616.915 270.293 619.224C269.707 624.111 267.576 631.125 260.749 636.789L258.225 638.884L257.012 635.836Z" fill="#F4A026"/>
<path d="M227.136 620.633C226.836 620.689 226.527 620.727 226.218 620.745C222.972 620.935 220.01 618.91 219.015 615.818C218.382 613.857 218.62 611.718 219.67 609.953C220.722 608.184 222.482 606.953 224.5 606.574C224.798 606.518 225.105 606.48 225.41 606.462C228.66 606.272 231.622 608.299 232.617 611.392C233.25 613.354 233.011 615.492 231.962 617.257C230.911 619.024 229.152 620.254 227.136 620.633Z" fill="#EFEFEF"/>
<path d="M202.824 625.195C202.523 625.252 202.214 625.29 201.906 625.308C198.659 625.498 195.698 623.472 194.703 620.381C194.07 618.419 194.308 616.28 195.358 614.515C196.409 612.747 198.17 611.516 200.187 611.137C200.486 611.081 200.792 611.043 201.098 611.025C204.347 610.834 207.309 612.862 208.304 615.955C208.937 617.916 208.699 620.055 207.649 621.819C206.599 623.586 204.84 624.817 202.824 625.195Z" fill="#EFEFEF"/>
<path d="M228.788 696.482C225.098 697.174 221.353 696.022 218.768 693.399L183.547 657.615C182.346 656.394 181.482 654.981 180.979 653.414C179.228 647.932 182.322 641.898 187.875 639.96C188.43 639.767 189.005 639.614 189.587 639.505L244.653 629.165C245.235 629.056 245.826 628.989 246.409 628.968L246.544 628.963L246.556 628.964C252.315 628.837 257.273 633.237 257.706 638.842L257.784 639.26L257.736 639.433C257.766 640.929 257.469 642.413 256.851 643.85L237.009 689.973C235.553 693.356 232.479 695.788 228.788 696.482Z" fill="#E46A53"/>
<path d="M177.357 652.447C168.938 649.642 164.409 643.88 162.092 639.541C160.998 637.489 160.124 635.261 159.494 632.917L158.438 628.98L162.386 629.989C164.053 630.415 165.803 630.461 167.585 630.126C168.572 629.941 169.575 629.633 170.567 629.213L172.895 628.226L173.743 630.608C174.067 631.518 174.459 632.379 174.909 633.168C176.569 636.073 179.004 637.982 182.352 639.001L185.98 640.105L183.413 642.895C181.55 644.921 180.513 647.516 180.494 650.203L180.47 653.485L177.357 652.447Z" fill="#F4A026"/>
<path d="M167.586 630.128C164.443 630.718 161.499 630.153 159.073 628.494C159.017 628.455 158.966 628.419 158.915 628.382C158.794 628.295 158.691 628.221 158.591 628.144C153.289 624.059 152.73 615.6 157.32 608.888C159.893 605.125 163.68 602.532 167.711 601.775C169.866 601.371 171.916 601.505 173.805 602.175L176.723 603.211C176.723 603.211 166.915 617.558 166.912 617.562L177.458 615.611L181.5 614.852L180.149 618.737C179.63 620.23 178.9 621.67 177.98 623.016C176.622 625.002 174.95 626.649 173.013 627.91C171.314 629.014 169.438 629.78 167.586 630.128Z" fill="#E46A53"/>
<path d="M270.67 639.439L259.989 641.445C260.047 641.055 260.088 640.662 260.108 640.267C269.145 633.968 271.933 625.562 272.657 619.508C273.251 614.545 272.564 610.227 271.957 607.655C275.308 600.928 272.379 592.031 264.963 586.96C260.684 584.031 255.563 582.852 250.916 583.725C247.188 584.425 244.036 586.418 242.04 589.333C241.99 589.406 241.943 589.482 241.894 589.56L241.852 589.626C241.143 590.711 241.434 592.163 242.503 592.896L251.766 599.231L243.367 600.808C242.93 600.89 242.515 601.068 242.185 601.363C241.334 602.123 241.149 603.304 241.632 604.244C243.096 607.116 245.35 609.643 248.144 611.556C249.904 612.76 251.786 613.658 253.753 614.253C253.841 615.225 253.855 616.378 253.675 617.585C253.109 621.399 250.823 624.129 246.474 626.186C246.193 626.32 244.693 626.732 244.216 626.822L231.178 629.27L229.858 622.239C233.834 620.373 236.161 615.907 235.088 611.391C233.982 606.73 229.485 603.575 224.726 604.129C219.187 604.775 215.428 609.974 216.439 615.363C217.258 619.72 220.941 622.834 225.172 623.119L226.492 630.15L206.871 633.834L205.551 626.803C209.527 624.938 211.854 620.471 210.781 615.955C209.675 611.294 205.178 608.139 200.419 608.693C194.88 609.339 191.121 614.538 192.133 619.927C192.951 624.285 196.634 627.398 200.865 627.683L202.185 634.714L189.151 637.162C188.673 637.251 187.127 637.411 186.816 637.388C182.02 637.049 178.893 635.332 176.982 631.985C176.38 630.925 175.974 629.846 175.704 628.909C177.321 627.641 178.749 626.121 179.953 624.361C181.858 621.574 183.038 618.412 183.368 615.215C183.413 614.776 183.35 614.327 183.161 613.932C182.666 612.912 181.592 612.408 180.558 612.602L172.106 614.189L178.441 604.926C179.17 603.855 178.915 602.396 177.86 601.642L177.797 601.596C177.723 601.54 177.652 601.487 177.579 601.437C174.661 599.444 171.002 598.731 167.273 599.431C162.626 600.304 158.282 603.26 155.353 607.542C150.287 614.954 150.785 624.304 156.346 629.36C156.713 631.977 157.64 636.254 159.993 640.663C162.864 646.039 168.511 652.861 179.218 655.456C179.38 655.817 179.561 656.168 179.756 656.51L168.071 658.704C161.145 660.005 156.583 666.677 157.883 673.603L160.299 686.465C160.519 687.639 161.548 688.534 162.742 688.483C164.231 688.419 165.262 687.067 164.998 685.658L162.569 672.723C161.754 668.383 164.611 664.205 168.951 663.39L182.472 660.851C182.718 660.805 182.945 660.723 183.155 660.611L190.805 668.382L180.558 670.306C173.632 671.607 169.069 678.278 170.37 685.204L172.015 693.967C172.236 695.141 173.265 696.036 174.459 695.985C175.948 695.92 176.979 694.569 176.715 693.16L175.056 684.324C174.241 679.984 177.097 675.807 181.438 674.992L194.833 672.477L202.138 679.897L193.575 681.505C186.649 682.805 182.087 689.477 183.387 696.403L184.648 703.115C184.868 704.29 185.897 705.185 187.091 705.134C188.58 705.069 189.612 703.717 189.347 702.309L188.073 695.523C187.258 691.183 190.115 687.006 194.455 686.191L206.169 683.991L212.464 690.389L207.544 691.312C200.618 692.613 196.056 699.285 197.356 706.211L197.627 707.651C197.847 708.826 198.876 709.721 200.07 709.67C201.559 709.605 202.591 708.253 202.326 706.845L202.042 705.331C201.227 700.991 204.084 696.813 208.424 695.998L216.495 694.482L217.072 695.071C220.215 698.262 224.759 699.664 229.231 698.825C233.706 697.984 237.432 695.029 239.203 690.913L239.528 690.158L246.887 688.776C251.227 687.961 255.405 690.817 256.22 695.157L256.49 696.598C256.711 697.773 257.74 698.668 258.934 698.616C260.423 698.552 261.454 697.2 261.19 695.792L260.906 694.278C259.605 687.352 252.933 682.789 246.007 684.09L241.799 684.88L245.344 676.635L256.054 674.624C260.394 673.809 264.572 676.666 265.387 681.006L266.647 687.718C266.868 688.892 267.897 689.788 269.091 689.736C270.579 689.672 271.611 688.32 271.346 686.911L270.072 680.126C268.772 673.2 262.1 668.638 255.174 669.938L247.616 671.358L251.732 661.792L264.122 659.466C268.462 658.651 272.64 661.508 273.455 665.848L275.1 674.61C275.321 675.784 276.35 676.679 277.544 676.628C279.032 676.564 280.064 675.212 279.8 673.803L278.141 664.968C276.84 658.042 270.168 653.48 263.242 654.78L254 656.516L258.257 646.621L271.55 644.125C275.89 643.31 280.067 646.167 280.882 650.507L283.298 663.369C283.518 664.543 284.547 665.438 285.741 665.387C287.23 665.323 288.261 663.971 287.997 662.562L285.568 649.627C284.268 642.701 277.596 638.139 270.67 639.439ZM250.836 607.618C249.664 606.817 248.618 605.879 247.731 604.839L258.242 602.866C258.936 602.735 259.567 602.335 259.919 601.723C260.567 600.589 260.209 599.228 259.207 598.543L247.38 590.456C248.565 589.433 250.062 588.736 251.796 588.411C255.21 587.77 259.028 588.675 262.27 590.895C267.943 594.771 270.186 601.454 267.381 606.1C267.299 606.231 267.218 606.362 267.129 606.487C265.835 608.38 263.826 609.63 261.317 610.101C259.765 610.393 258.061 610.361 256.382 610.009C254.426 609.603 252.562 608.801 250.836 607.618ZM221.281 615.087C220.317 612.1 222.417 609.029 225.55 608.841C227.685 608.715 229.688 610.083 230.344 612.121C231.308 615.108 229.208 618.18 226.074 618.365C223.939 618.49 221.936 617.123 221.281 615.087ZM196.974 619.651C196.01 616.664 198.11 613.593 201.243 613.405C203.378 613.28 205.381 614.647 206.037 616.685C207.001 619.673 204.901 622.744 201.767 622.929C199.632 623.054 197.629 621.687 196.974 619.651ZM160.324 626.455C160.229 626.387 160.138 626.323 160.05 626.254C155.746 622.939 155.413 615.901 159.291 610.231C161.51 606.986 164.739 604.758 168.153 604.117C169.887 603.791 171.535 603.897 173.01 604.42L164.956 616.201C164.556 616.783 164.396 617.513 164.581 618.194C164.924 619.451 166.139 620.16 167.331 619.936L177.9 617.952C177.451 619.243 176.817 620.496 176.015 621.668C174.835 623.393 173.39 624.82 171.715 625.91C170.277 626.844 168.701 627.492 167.149 627.783C164.639 628.255 162.314 627.818 160.422 626.524C160.387 626.5 160.356 626.479 160.324 626.455ZM178.114 650.185C170.542 647.662 166.396 642.535 164.198 638.418C163.047 636.26 162.294 634.14 161.8 632.299C163.771 632.802 165.888 632.871 168.029 632.469C169.212 632.247 170.372 631.887 171.501 631.408C171.835 632.346 172.272 633.349 172.842 634.349C174.802 637.779 177.762 640.095 181.662 641.281C179.434 643.704 178.138 646.891 178.114 650.185ZM255.341 639.146C255.342 639.152 255.343 639.158 255.341 639.164L255.345 639.185C255.417 640.439 255.188 641.691 254.665 642.908L234.823 689.031C233.681 691.683 231.262 693.592 228.351 694.139C225.443 694.685 222.497 693.783 220.47 691.726L185.249 655.943C184.312 654.991 183.639 653.892 183.252 652.686C181.891 648.427 184.32 643.726 188.664 642.21C189.1 642.059 189.559 641.936 190.03 641.848L245.096 631.508C245.567 631.419 246.04 631.367 246.5 631.35C246.513 631.351 246.527 631.348 246.539 631.349C251.122 631.21 255.066 634.699 255.341 639.146ZM252.688 627.945C255.896 625.423 257.811 622.192 258.39 618.285C258.559 617.147 258.602 616.053 258.575 615.055C259.801 615.094 261.013 615.009 262.196 614.787C264.337 614.385 266.288 613.552 267.939 612.368C268.147 614.264 268.214 616.513 267.924 618.941C267.37 623.575 265.366 629.86 259.226 634.954C258.009 631.897 255.644 629.397 252.688 627.945Z" fill="#050000"/>
</g>
<g clip-path="url(#clip2_1939_87)">
<path d="M1218.13 189.429L1218.12 189.393C1218.11 189.346 1218.1 189.3 1218.09 189.254L1218.09 189.254C1217.36 185.856 1216.04 182.423 1214.15 179.049L1213.43 177.768L1214.31 176.59C1215.95 174.381 1219.91 168.189 1221.16 158.415L1222.13 150.834L1225.44 157.718C1225.44 157.718 1225.63 158.101 1225.72 158.293C1225.84 158.555 1225.95 158.809 1226.06 159.061C1230.53 169.425 1229.03 181.429 1222.15 190.388L1218.97 194.524L1218.13 189.429Z" fill="#EFEFEF"/>
<path d="M1188.43 211.023C1185.02 212.492 1181.34 213.755 1177.17 214.885L1175.28 215.397L1174.5 213.596L1175.4 210.759C1186.24 204.25 1192.88 196.654 1195.87 192.705L1197.79 190.17L1199.55 192.813C1200.75 194.605 1202.42 197.457 1203.55 200.866L1204.14 202.651L1202.49 203.56C1201.37 204.18 1198.96 205.56 1198.96 205.56C1195.81 207.373 1192.54 209.249 1188.43 211.023Z" fill="#EFEFEF"/>
<path d="M1203.28 215.521C1205 211.648 1205.26 207.326 1204.08 202.701C1202.27 195.567 1197.67 190.272 1197.62 190.22C1197.53 190.352 1187.75 206.178 1166.24 215.46C1164.45 216.231 1162.58 216.953 1160.68 217.605C1160.17 217.782 1157.46 218.681 1154.78 219.016L1154.73 219.021C1153 219.197 1151.6 219.284 1150.49 219.354L1150.37 219.362C1148.02 219.506 1146.73 219.586 1145.22 220.239C1144.22 220.672 1143.53 221.417 1143.22 222.39C1142.8 223.713 1143.09 225.345 1144.03 226.87C1144.57 227.752 1145.37 228.465 1146.49 229.046L1151.08 231.441L1146.2 233.186C1145.55 233.421 1144.9 233.598 1144.28 233.713C1133.75 235.631 1126.2 225.405 1124.17 214.312C1122.23 203.642 1125.44 195.385 1132.76 192.225C1133.87 191.746 1135.07 191.389 1136.32 191.163C1136.62 191.108 1136.92 191.059 1137.2 191.017L1142.75 190.212L1139.32 194.644C1138.44 195.777 1137.81 197.061 1137.38 198.572C1136.52 201.596 1137.36 204.183 1139.55 205.321C1140.58 205.852 1141.66 205.883 1142.75 205.413C1147.34 203.434 1152.57 192.888 1161.24 175.417L1161.26 175.377C1162.97 171.926 1165.1 167.631 1167.38 163.107C1170.89 156.167 1176.54 146.515 1185.14 142.806C1191.22 140.181 1197.89 139.582 1204.42 141.075C1210.93 142.566 1216.67 145.994 1221 150.987L1221.56 151.632L1221.55 152.485C1221.45 168.663 1213.73 177.356 1213.4 177.717C1216.68 183.185 1218.48 188.709 1218.73 194.155C1219.29 206.277 1211.8 216.226 1206.31 218.594C1205.26 219.045 1203.55 219.329 1202.82 218.598C1202.03 217.813 1203.26 215.558 1203.28 215.521Z" fill="#61ACD2"/>
<path d="M1207.63 159.922C1208.78 159.426 1209.31 158.094 1208.81 156.945C1208.32 155.797 1206.99 155.268 1205.84 155.763C1204.69 156.259 1204.16 157.591 1204.65 158.739C1205.15 159.888 1206.48 160.417 1207.63 159.922Z" fill="black"/>
<path d="M1182 135.53C1180.85 136.025 1179.52 135.496 1179.02 134.348L1168.96 111.025C1167.03 106.544 1169.1 101.326 1173.58 99.3926L1173.7 99.3399C1178.18 97.4068 1183.4 99.4794 1185.33 103.96L1186.31 106.231C1186.81 107.379 1186.28 108.711 1185.13 109.207C1183.98 109.702 1182.65 109.173 1182.15 108.025L1181.17 105.754C1180.23 103.567 1177.68 102.555 1175.5 103.499L1175.37 103.551C1173.19 104.495 1172.17 107.043 1173.12 109.23L1183.18 132.554C1183.68 133.702 1183.15 135.034 1182 135.53Z" fill="black"/>
<path d="M1174.09 140.789C1172.94 141.284 1171.61 140.755 1171.12 139.607L1164.08 123.301C1163.14 121.114 1160.59 120.102 1158.4 121.045L1158.28 121.098C1156.09 122.042 1155.08 124.59 1156.02 126.777L1157 129.048C1157.5 130.196 1156.97 131.529 1155.82 132.024C1154.67 132.519 1153.34 131.99 1152.84 130.842L1151.87 128.571C1149.93 124.091 1152 118.873 1156.49 116.94L1156.61 116.887C1161.09 114.954 1166.31 117.026 1168.24 121.507L1175.27 137.813C1175.77 138.961 1175.24 140.293 1174.09 140.789Z" fill="black"/>
<path d="M1223.36 150.274C1223.36 150.272 1223.2 150.079 1223.2 150.079C1218.69 144.63 1212.4 140.687 1205.51 138.974C1198.37 137.198 1191.01 137.806 1184.24 140.727C1174.97 144.729 1169.03 154.832 1165.36 162.085C1163.14 166.486 1161.07 170.675 1159.23 174.37C1151.37 190.227 1145.68 201.682 1141.86 203.333C1141.37 203.541 1141.04 203.533 1140.6 203.311C1138.82 202.387 1139.36 199.92 1139.56 199.19C1140.44 196.095 1142.22 194.666 1144.45 193.122C1145.17 192.614 1145.54 191.728 1145.38 190.853C1145.22 189.979 1144.56 189.279 1143.7 189.062C1141.19 188.437 1138.87 188.398 1135.92 188.936C1134.49 189.195 1133.13 189.604 1131.87 190.146C1123.63 193.699 1119.84 203.113 1121.95 214.72C1124.18 226.918 1132.7 238.126 1144.68 235.942C1145.75 235.746 1146.87 235.399 1148.01 234.909C1149.4 234.307 1150.83 233.497 1152.37 232.432C1153.1 231.926 1153.46 231.038 1153.3 230.163C1153.14 229.287 1152.48 228.585 1151.62 228.372C1149.29 227.789 1146.88 227.185 1145.96 225.688C1145.4 224.766 1145.17 223.739 1145.38 223.072C1145.46 222.839 1145.61 222.542 1146.13 222.315C1147.23 221.841 1148.21 221.764 1150.51 221.623C1152.1 221.524 1154.27 221.389 1157.29 221.011C1157.99 220.923 1158.76 220.82 1159.64 220.69C1172.16 218.851 1181.59 216.44 1189.33 213.102C1193.56 211.276 1196.88 209.369 1200.09 207.524C1200.86 207.083 1201.64 206.636 1202.43 206.19C1202.75 209.203 1202.34 212.03 1201.21 214.621C1200.06 217.232 1200.13 219.215 1201.41 220.512C1202.11 221.213 1203.72 222.198 1206.71 220.911C1209.93 219.522 1213.58 216.06 1216.23 211.882C1218.5 208.302 1221.12 202.537 1221.03 195.09C1230.71 185.463 1233.58 170.762 1228.15 158.164C1226.91 155.311 1225.3 152.655 1223.36 150.274ZM1197.84 203.595C1194.74 205.377 1191.53 207.221 1187.53 208.943C1184.26 210.356 1180.65 211.597 1176.58 212.698C1176.58 212.696 1176.57 212.698 1176.57 212.7C1187.75 205.987 1194.61 198.115 1197.67 194.071C1198.85 195.837 1200.37 198.478 1201.4 201.577C1200.17 202.254 1198.99 202.934 1197.84 203.595ZM1211.73 176.195C1211.04 176.936 1210.92 178.046 1211.45 178.911C1214.55 184.031 1216.24 189.195 1216.48 194.259C1217.01 205.88 1209.55 214.426 1205.3 216.571C1205.31 216.53 1205.33 216.488 1205.35 216.446C1207.27 212.081 1207.58 207.269 1206.28 202.143C1204.36 194.555 1199.53 188.954 1199.33 188.722C1198.85 188.176 1198.15 187.891 1197.43 187.95C1197.18 187.972 1196.95 188.032 1196.72 188.128C1196.3 188.31 1195.94 188.62 1195.69 189.02C1195.6 189.174 1186 204.469 1165.34 213.38C1163.58 214.14 1161.78 214.835 1159.95 215.464C1158.83 215.849 1156.56 216.512 1154.5 216.768C1152.76 216.946 1151.39 217.029 1150.23 217.101C1147.8 217.251 1146.2 217.351 1144.33 218.159C1142.73 218.853 1141.57 220.111 1141.06 221.707C1140.45 223.654 1140.82 225.969 1142.1 228.052C1142.94 229.427 1144.13 230.367 1145.44 231.054C1144.9 231.249 1144.37 231.394 1143.87 231.486C1134.81 233.137 1128.23 223.89 1126.41 213.905C1124.66 204.345 1127.38 197.018 1133.67 194.304C1134.61 193.898 1135.64 193.589 1136.73 193.392C1137.01 193.34 1137.28 193.296 1137.53 193.258C1136.57 194.499 1135.76 196.01 1135.21 197.953C1134.06 202.015 1135.36 205.696 1138.52 207.332C1140.16 208.179 1141.93 208.233 1143.65 207.492C1149 205.182 1154.08 194.953 1163.29 176.383C1165.12 172.693 1167.2 168.512 1169.41 164.126C1172.75 157.504 1178.11 148.304 1186.04 144.885C1197.55 139.92 1211.12 143.048 1219.29 152.47C1219.2 167.849 1211.8 176.119 1211.73 176.195ZM1220.36 189.009C1220.36 188.975 1220.31 188.782 1220.31 188.781C1219.54 185.158 1218.14 181.534 1216.13 177.944C1218.09 175.309 1222.12 168.82 1223.41 158.703C1223.41 158.703 1223.59 159.068 1223.67 159.25C1223.78 159.484 1223.88 159.722 1223.99 159.959C1228.17 169.664 1226.66 180.811 1220.36 189.009Z" fill="black"/>
</g>
<path d="M215.992 519.666C227.008 522.672 245.384 510.922 253.807 487.545C254.15 486.592 255.572 486.643 255.817 487.625C261.571 510.674 263.592 519.666 289.992 519.666" stroke="#7FC6E0" stroke-opacity="0.25" stroke-width="14" stroke-linecap="round"/>
<path d="M173.992 395.692C185.011 398.532 203.395 387.427 211.814 365.336C212.169 364.404 213.559 364.456 213.814 365.42C219.57 387.197 221.588 395.692 247.992 395.692" stroke="#7FC6E0" stroke-opacity="0.25" stroke-width="14" stroke-linecap="round"/>
<path d="M388.992 377.692C400.168 380.534 418.819 369.411 427.343 347.289C427.7 346.362 429.083 346.413 429.34 347.373C435.183 369.184 437.212 377.692 463.992 377.692" stroke="#7FC6E0" stroke-opacity="0.25" stroke-width="14" stroke-linecap="round"/>
<path d="M586.992 422.679C598.009 425.602 616.39 414.174 624.81 391.441C625.159 390.498 626.566 390.549 626.816 391.522C632.57 413.935 634.59 422.679 660.992 422.679" stroke="#7FC6E0" stroke-opacity="0.25" stroke-width="14" stroke-linecap="round"/>
<path d="M849.992 535.692C861.011 538.532 879.395 527.427 887.814 505.336C888.169 504.404 889.559 504.456 889.814 505.42C895.57 527.197 897.588 535.692 923.992 535.692" stroke="#7FC6E0" stroke-opacity="0.25" stroke-width="14" stroke-linecap="round"/>
<path d="M1067.99 361.679C1079.01 364.602 1097.39 353.174 1105.81 330.441C1106.16 329.498 1107.57 329.549 1107.82 330.522C1113.57 352.935 1115.59 361.679 1141.99 361.679" stroke="#7FC6E0" stroke-opacity="0.25" stroke-width="14" stroke-linecap="round"/>
<path d="M900.992 153.679C911.853 156.6 929.966 145.191 938.281 122.49C938.628 121.543 940.042 121.594 940.29 122.572C945.957 144.948 947.966 153.679 973.992 153.679" stroke="#7FC6E0" stroke-opacity="0.25" stroke-width="14" stroke-linecap="round"/>
<path d="M519.992 178.679C531.009 181.602 549.39 170.174 557.81 147.441C558.159 146.498 559.566 146.549 559.816 147.522C565.57 169.935 567.59 178.679 593.992 178.679" stroke="#7FC6E0" stroke-opacity="0.25" stroke-width="14" stroke-linecap="round"/>
<path d="M533.992 711.679C545.009 714.602 563.39 703.174 571.81 680.441C572.159 679.498 573.566 679.549 573.816 680.522C579.57 702.935 581.59 711.679 607.992 711.679" stroke="#7FC6E0" stroke-opacity="0.25" stroke-width="14" stroke-linecap="round"/>
<path d="M946.992 688.679C957.853 691.6 975.966 680.191 984.281 657.49C984.628 656.543 986.042 656.594 986.29 657.572C991.957 679.948 993.966 688.679 1019.99 688.679" stroke="#7FC6E0" stroke-opacity="0.25" stroke-width="14" stroke-linecap="round"/>
<path d="M1156.99 483.692C1168.01 486.532 1186.4 475.427 1194.81 453.336C1195.17 452.404 1196.56 452.456 1196.81 453.42C1202.57 475.197 1204.59 483.692 1230.99 483.692" stroke="#7FC6E0" stroke-opacity="0.25" stroke-width="14" stroke-linecap="round"/>
<defs>
<clipPath id="clip0_1939_87">
<rect width="120.369" height="120.369" fill="white" transform="translate(1132.25 667.27) rotate(-40.3168)"/>
</clipPath>
<clipPath id="clip1_1939_87">
<rect width="129.916" height="129.916" fill="white" transform="translate(143.32 596.047) rotate(-10.6348)"/>
</clipPath>
<clipPath id="clip2_1939_87">
<rect width="124.698" height="124.698" fill="white" transform="translate(1085.48 137.398) rotate(-23.3366)"/>
</clipPath>
</defs>
</svg>
