<svg viewBox="0 0 634 185" fill="none" xmlns="http://www.w3.org/2000/svg">
<path d="M130.5 24.2893C71.4201 2.87781 37.5936 15.072 27.7543 24.0529C27.5828 24.2094 27.4844 24.4153 27.456 24.6457L12.3011 147.351C12.1912 148.241 13.2343 148.826 13.965 148.306C46.4135 125.215 104.86 150.111 130.5 165.789C166 187.496 243.2 195.889 290 156.289C334.782 118.397 386.187 130.894 409.082 143.14C409.959 143.609 410.956 142.654 410.519 141.76L378.76 76.8199C378.599 76.4924 378.63 76.1038 378.84 75.8056L416.819 21.7578C417.175 21.2512 416.99 20.5462 416.431 20.28L396.5 10.7886C344.1 -11.2114 279.333 8.95528 253.5 21.7886C237.333 31.6222 190.1 45.8893 130.5 24.2893Z" fill="#FDDC8E" stroke="#4E3506"/>
<path d="M97.4838 97.5394C94.5718 97.5261 93.1173 97.1994 93.1202 96.5595L93.2621 65.4558C93.2671 64.3678 93.7656 63.8261 94.7575 63.8306L103.205 63.8691C107.941 63.8907 111.345 64.8823 113.416 66.8438C115.519 68.8054 116.562 71.6422 116.545 75.3541C116.531 78.4261 115.526 81.2375 113.531 83.7885C112.533 85.0639 111.072 86.0813 109.149 86.8405C107.225 87.5997 104.983 87.9735 102.424 87.9618L102.384 96.5537C102.383 96.9377 101.773 97.2069 100.557 97.3614C99.372 97.484 98.3478 97.5433 97.4838 97.5394ZM102.495 72.218L102.461 79.8019L103.085 79.8047C104.205 79.8099 105.15 79.4622 105.922 78.7617C106.693 78.0612 107.081 77.071 107.087 75.791C107.093 74.511 106.825 73.5978 106.284 73.0513C105.774 72.5049 104.847 72.2287 103.503 72.2226L102.495 72.218ZM123.889 89.3078L123.967 72.22L120.559 72.2044C120.015 72.2019 119.634 71.5122 119.416 70.1352C119.323 69.4627 119.278 68.7745 119.281 68.0705C119.285 67.3665 119.336 66.6788 119.435 66.0072C119.665 64.6322 120.052 63.946 120.596 63.9485L136.724 64.0221C137.268 64.0246 137.633 64.7142 137.819 66.0911C137.944 66.7637 138.004 67.452 138.001 68.1559C137.998 68.8599 137.931 69.5476 137.8 70.219C137.602 71.5942 137.23 72.2805 136.686 72.278L133.47 72.2633L133.392 89.3511L136.752 89.3665C137.296 89.369 137.677 90.0587 137.895 91.4357C138.02 92.1083 138.081 92.7966 138.078 93.5006C138.074 94.2046 138.007 94.8923 137.876 95.5637C137.646 96.9386 137.259 97.6249 136.715 97.6224L120.539 97.5486C119.995 97.5461 119.63 96.8564 119.444 95.4796C119.319 94.807 119.259 94.1187 119.262 93.4147C119.265 92.7107 119.332 92.023 119.463 91.3516C119.661 89.9765 120.033 89.2902 120.577 89.2927L123.889 89.3078ZM155.144 63.6741C157.48 63.6848 159.526 64.0301 161.283 64.7101C163.072 65.3583 163.964 66.2424 163.959 67.3624C163.954 68.4824 163.516 69.8724 162.644 71.5324C161.805 73.1606 161.097 73.9734 160.521 73.9708C160.361 73.97 160.169 73.8892 159.946 73.7281C159.755 73.5353 159.276 73.3411 158.509 73.1456C157.774 72.9182 157.134 72.8033 156.59 72.8008C154.734 72.7923 153.227 73.4415 152.069 74.7482C150.943 76.0551 150.374 78.0685 150.362 80.7885C150.35 83.4764 150.916 85.4791 152.062 86.7963C153.24 88.1137 154.725 88.7765 156.517 88.7846C157.253 88.788 158.07 88.6957 158.967 88.5078C159.896 88.2881 160.553 87.9871 160.939 87.6048C161.003 87.5411 161.131 87.5097 161.323 87.5106C161.515 87.5114 161.866 87.881 162.374 88.6194C162.915 89.3258 163.407 90.2721 163.849 91.4581C164.292 92.6122 164.512 93.5092 164.509 94.1492C164.503 95.3972 163.539 96.3848 161.616 97.112C159.692 97.8392 157.419 98.1969 154.795 98.1849C150.571 98.1656 147.105 96.6618 144.399 93.6734C141.693 90.685 140.352 86.4869 140.376 81.0789C140.401 75.639 141.813 71.3734 144.611 68.2821C147.441 65.191 150.952 63.655 155.144 63.6741ZM182.618 97.0638C182.615 97.7038 181.03 98.0166 177.862 98.0021C174.694 97.9877 173.111 97.6605 173.114 97.0205L173.224 72.9247L167.464 72.8984C166.92 72.896 166.54 72.1582 166.322 70.6852C166.23 69.9808 166.185 69.2606 166.188 68.5246C166.192 67.7886 166.243 67.0688 166.342 66.3652C166.573 64.8943 166.96 64.16 167.504 64.1625L188.384 64.2578C188.928 64.2603 189.309 64.998 189.526 66.471C189.619 67.1755 189.663 67.8957 189.66 68.6317C189.657 69.3677 189.605 70.0874 189.506 70.791C189.275 72.2619 188.888 72.9962 188.344 72.9937L182.728 72.9681L182.618 97.0638ZM206.514 98.4209C202.034 98.4004 198.377 96.9117 195.542 93.9548C192.74 90.9979 191.351 86.7036 191.377 81.0716C191.403 75.4077 192.846 71.1262 195.708 68.2273C198.601 65.3284 202.304 63.8893 206.815 63.9099C211.359 63.9306 215.017 65.3873 217.788 68.28C220.559 71.1407 221.931 75.483 221.904 81.3069C221.878 87.0989 220.434 91.4123 217.573 94.2473C214.712 97.0503 211.026 98.4415 206.514 98.4209ZM206.677 73.1254C205.141 73.1183 203.842 73.8164 202.78 75.2196C201.749 76.6229 201.228 78.6046 201.217 81.1645C201.205 83.6925 201.692 85.6467 202.678 87.0273C203.664 88.3758 204.957 89.0537 206.557 89.061C208.189 89.0684 209.504 88.3864 210.502 87.015C211.532 85.6436 212.053 83.678 212.065 81.118C212.077 78.5581 211.558 76.5877 210.508 75.2069C209.49 73.8262 208.213 73.1324 206.677 73.1254ZM234.853 97.3982C234.85 97.9102 233.329 98.1592 230.289 98.1454C227.217 98.1313 225.683 97.8843 225.685 97.4043L225.828 66.1087C225.833 64.9887 226.427 64.4314 227.611 64.4368L236.779 64.4786C245.195 64.517 249.388 67.8162 249.358 74.3761C249.349 76.3601 248.957 78.1663 248.181 79.7948C247.406 81.3913 246.312 82.6663 244.9 83.6199L250.902 93.7274C250.642 94.4942 249.806 95.3704 248.394 96.3559C246.467 97.7232 244.88 98.4039 243.632 98.3982C242.384 98.3925 241.458 97.9403 240.855 97.0416L236.391 86.5091L234.903 86.5023L234.853 97.3982ZM234.964 72.9664L234.931 80.1663L235.171 80.1674C238.211 80.1813 239.737 78.9243 239.749 76.3963C239.754 75.2443 239.454 74.3949 238.848 73.8482C238.275 73.2695 237.316 72.9772 235.972 72.971L234.964 72.9664ZM269.686 77.9729C270.294 77.9757 270.593 79.0971 270.583 81.337C270.58 82.009 270.496 82.8087 270.332 83.7359C270.2 84.6313 269.942 85.0781 269.558 85.0764L263.462 85.0486L263.44 89.8485L272.272 89.8888C272.816 89.8913 273.181 90.597 273.366 92.0058C273.46 92.6143 273.505 93.2705 273.501 93.9745C273.498 94.6465 273.398 95.526 273.201 96.6131C273.004 97.7003 272.682 98.2428 272.234 98.2407L255.818 98.1658C254.602 98.1603 253.996 97.6615 254.001 96.6695L254.142 65.8059C254.145 64.9739 254.515 64.5595 255.251 64.5629L272.435 64.6413C273.107 64.6444 273.437 66.0699 273.424 68.9179C273.411 71.7338 273.068 73.1403 272.396 73.1372L263.517 73.0967L263.494 77.9447L269.686 77.9729ZM300.225 98.4645C297.441 98.4518 295.939 97.9969 295.719 97.0999L294.163 90.9007L286.532 90.8659L285.112 96.8115C284.916 97.8026 283.378 98.2916 280.498 98.2785C278.962 98.2714 277.826 98.1863 277.091 98.0229C276.356 97.8275 275.988 97.6819 275.989 97.5859L284.633 65.129C284.634 64.873 286.827 64.755 291.211 64.775C295.595 64.795 297.786 64.933 297.785 65.189L305.94 97.7705C305.939 97.9945 305.202 98.1672 303.73 98.2885C302.257 98.4097 301.089 98.4684 300.225 98.4645ZM287.759 84.7754L292.799 84.7984L290.685 74.8527L290.397 74.8514L287.759 84.7754ZM308.651 95.5749L308.788 65.7192C308.791 65.0472 310.408 64.7186 313.64 64.7333C316.904 64.7482 318.535 65.0917 318.532 65.7637L318.424 89.2834L325.816 89.3171C326.392 89.3198 326.789 90.0736 327.006 91.5786C327.098 92.315 327.143 93.0672 327.14 93.8352C327.136 94.6032 327.084 95.387 326.985 96.1865C326.722 97.7214 326.302 98.4875 325.726 98.4848L310.942 98.4174C310.238 98.4142 309.68 98.1236 309.266 97.5457C308.853 96.9678 308.648 96.3109 308.651 95.5749ZM143.709 134.719C141.767 134.71 140.798 134.492 140.799 134.065L140.894 113.33C140.897 112.604 141.23 112.243 141.891 112.246L147.523 112.272C150.68 112.286 152.949 112.947 154.33 114.255C155.732 115.563 156.427 117.454 156.416 119.929C156.407 121.976 155.737 123.851 154.406 125.551C153.741 126.402 152.767 127.08 151.485 127.586C150.203 128.092 148.708 128.341 147.002 128.334L146.976 134.062C146.974 134.318 146.568 134.497 145.757 134.6C144.967 134.682 144.285 134.721 143.709 134.719ZM147.05 117.838L147.027 122.894L147.443 122.896C148.189 122.899 148.82 122.667 149.334 122.2C149.848 121.733 150.107 121.073 150.111 120.22C150.115 119.366 149.936 118.758 149.575 118.393C149.235 118.029 148.618 117.845 147.722 117.841L147.05 117.838ZM165.289 134.305C165.287 134.646 164.273 134.813 162.246 134.803C160.198 134.794 159.175 134.629 159.177 134.309L159.272 113.445C159.275 112.699 159.672 112.327 160.461 112.331L166.573 112.359C172.183 112.384 174.979 114.584 174.959 118.957C174.953 120.28 174.691 121.484 174.174 122.57C173.657 123.634 172.928 124.484 171.987 125.12L175.988 131.858C175.815 132.369 175.258 132.953 174.316 133.61C173.032 134.522 171.974 134.976 171.142 134.972C170.31 134.968 169.692 134.667 169.29 134.067L166.314 127.046L165.322 127.041L165.289 134.305ZM165.363 118.017L165.341 122.817L165.501 122.818C167.528 122.827 168.545 121.989 168.553 120.304C168.556 119.536 168.356 118.97 167.952 118.605C167.57 118.219 166.931 118.024 166.035 118.02L165.363 118.017ZM188.511 121.355C188.916 121.357 189.116 122.104 189.109 123.598C189.107 124.046 189.051 124.579 188.941 125.197C188.853 125.794 188.681 126.092 188.425 126.091L184.361 126.072L184.347 129.272L190.235 129.299C190.597 129.301 190.841 129.771 190.964 130.71C191.026 131.116 191.056 131.553 191.054 132.023C191.052 132.471 190.986 133.057 190.854 133.782C190.723 134.507 190.508 134.868 190.209 134.867L179.265 134.817C178.455 134.813 178.051 134.481 178.054 133.819L178.148 113.244C178.15 112.689 178.397 112.413 178.888 112.415L190.344 112.467C190.792 112.469 191.011 113.42 191.003 115.318C190.994 117.196 190.766 118.133 190.318 118.131L184.398 118.104L184.383 121.336L188.511 121.355ZM194.698 127.079C195.102 127.401 195.793 127.842 196.772 128.401C197.772 128.96 198.72 129.242 199.616 129.246C200.534 129.25 200.994 128.9 200.997 128.196C200.999 127.876 200.872 127.598 200.617 127.362C200.362 127.105 199.894 126.815 199.213 126.492C198.532 126.169 198.021 125.921 197.68 125.749C197.34 125.555 196.883 125.255 196.308 124.847C195.756 124.417 195.331 123.978 195.034 123.529C194.187 122.309 193.767 120.76 193.776 118.883C193.784 117.006 194.485 115.43 195.877 114.157C197.291 112.862 199.129 112.219 201.39 112.23C202.926 112.237 204.344 112.414 205.644 112.761C206.943 113.087 207.614 113.517 207.654 114.05C207.653 114.114 207.653 114.178 207.653 114.242C207.649 114.989 207.41 115.937 206.936 117.087C206.461 118.216 206.128 118.843 205.935 118.97C204.573 118.26 203.348 117.903 202.26 117.898C201.193 117.893 200.658 118.274 200.655 119.042C200.653 119.512 201.046 119.929 201.833 120.296C202.003 120.382 202.248 120.5 202.568 120.651C202.887 120.802 203.249 120.985 203.653 121.2C204.079 121.394 204.526 121.652 204.994 121.974C205.483 122.275 206.004 122.683 206.556 123.197C207.682 124.269 208.241 125.68 208.233 127.429C208.222 129.712 207.584 131.575 206.319 133.02C205.054 134.465 203.109 135.203 200.485 135.234C199.205 135.228 198.043 135.116 196.999 134.898C195.975 134.68 195.081 134.26 194.316 133.638C193.551 133.015 193.17 132.267 193.174 131.392C193.178 130.518 193.342 129.654 193.666 128.803C193.99 127.929 194.334 127.355 194.698 127.079ZM221.292 121.505C221.697 121.506 221.896 122.254 221.89 123.747C221.888 124.195 221.832 124.728 221.722 125.347C221.634 125.943 221.462 126.241 221.206 126.24L217.142 126.222L217.128 129.422L223.016 129.448C223.378 129.45 223.622 129.921 223.745 130.86C223.807 131.265 223.837 131.703 223.835 132.172C223.833 132.62 223.767 133.207 223.635 133.931C223.504 134.656 223.289 135.018 222.99 135.016L212.046 134.966C211.236 134.963 210.832 134.63 210.835 133.969L210.929 113.393C210.931 112.839 211.178 112.562 211.669 112.565L223.124 112.617C223.572 112.619 223.792 113.569 223.783 115.468C223.775 117.345 223.547 118.283 223.099 118.281L217.179 118.254L217.164 121.486L221.292 121.505ZM244.15 134.409C244.148 134.857 243.145 135.076 241.139 135.067C239.134 135.058 238.047 134.893 237.878 134.572L232.579 124.564L232.534 134.516C232.532 134.9 231.539 135.087 229.555 135.078C227.593 135.069 226.612 134.873 226.614 134.489L226.712 113.081C226.713 112.761 227.556 112.605 229.242 112.613C229.903 112.616 230.671 112.683 231.545 112.815C232.44 112.926 232.983 113.142 233.174 113.463L238.249 123.342L238.295 113.294C238.297 112.889 239.29 112.691 241.274 112.7C243.257 112.709 244.249 112.916 244.247 113.321L244.15 134.409ZM256.995 134.66C256.994 135.086 255.937 135.295 253.825 135.285C251.713 135.275 250.658 135.057 250.66 134.631L250.733 118.567L246.893 118.549C246.53 118.548 246.276 118.056 246.132 117.074C246.07 116.604 246.04 116.124 246.042 115.633C246.044 115.143 246.079 114.663 246.145 114.194C246.299 113.213 246.557 112.724 246.919 112.725L260.839 112.789C261.202 112.791 261.456 113.282 261.601 114.264C261.662 114.734 261.692 115.214 261.69 115.705C261.688 116.195 261.654 116.675 261.587 117.144C261.434 118.125 261.175 118.614 260.813 118.613L257.069 118.596L256.995 134.66ZM264.291 127.397C264.695 127.719 265.386 128.159 266.365 128.718C267.365 129.278 268.313 129.559 269.209 129.563C270.127 129.567 270.587 129.218 270.59 128.514C270.592 128.194 270.465 127.916 270.21 127.68C269.955 127.423 269.487 127.133 268.806 126.809C268.125 126.486 267.614 126.239 267.273 126.066C266.933 125.873 266.476 125.572 265.901 125.164C265.349 124.735 264.924 124.296 264.627 123.846C263.78 122.626 263.36 121.078 263.369 119.201C263.377 117.323 264.078 115.748 265.47 114.474C266.884 113.179 268.722 112.537 270.983 112.547C272.519 112.554 273.937 112.731 275.237 113.079C276.536 113.405 277.207 113.834 277.247 114.368C277.246 114.432 277.246 114.496 277.246 114.56C277.242 115.306 277.003 116.255 276.529 117.405C276.054 118.533 275.721 119.161 275.528 119.288C274.166 118.578 272.941 118.22 271.853 118.215C270.787 118.21 270.251 118.592 270.248 119.36C270.246 119.829 270.639 120.247 271.426 120.613C271.596 120.699 271.841 120.818 272.161 120.969C272.48 121.119 272.842 121.302 273.246 121.518C273.672 121.712 274.119 121.97 274.587 122.292C275.076 122.593 275.597 123 276.149 123.515C277.275 124.587 277.834 125.997 277.826 127.747C277.815 130.029 277.177 131.893 275.912 133.338C274.647 134.783 272.702 135.521 270.078 135.551C268.798 135.545 267.636 135.433 266.592 135.215C265.569 134.997 264.674 134.577 263.909 133.955C263.144 133.333 262.763 132.585 262.767 131.71C262.771 130.835 262.935 129.972 263.259 129.12C263.583 128.247 263.927 127.672 264.291 127.397Z" fill="#A52A2A"/>
<path d="M417.5 21.5L444.5 82M444.5 82L409.5 141.5M444.5 82C451.167 75.8333 468.3 65.7 483.5 74.5C502.5 85.5 511 82 526 74.5" stroke="#4E3506"/>
<path d="M477.846 87.7248L472.219 65.811L510.905 70.7593L547.481 60.1558L626.261 58.0352L618.524 74.2938L605.159 87.7248L541.854 89.8455L477.846 87.7248Z" fill="#FC914F" stroke="black"/>
<path d="M472.22 65.1045L487.694 69.3459C488.867 59.4494 489.805 39.6562 484.177 39.6562C478.55 39.6562 471.985 48.139 469.406 52.3804L472.22 65.1045Z" fill="#E1E1E2" stroke="black"/>
<path d="M579.838 103.982L573.508 91.9648H586.169L586.872 100.448L579.838 103.982Z" fill="#6F290A" stroke="black"/>
<path d="M485.587 94.792L483.477 89.8438L489.104 90.5506L487.697 94.792H485.587Z" fill="#7C3010" stroke="black"/>
<path d="M489.807 98.3273C489.807 100.776 488.135 102.569 486.29 102.569C484.446 102.569 482.773 100.776 482.773 98.3273C482.773 95.8788 484.446 94.0859 486.29 94.0859C488.135 94.0859 489.807 95.8788 489.807 98.3273Z" fill="#D9D9D9" stroke="black"/>
<path d="M588.995 108.817C587.286 111.964 583.691 113.155 581.023 111.692C578.355 110.228 577.407 106.545 579.117 103.398C580.826 100.251 584.421 99.0594 587.089 100.523C589.757 101.987 590.705 105.67 588.995 108.817Z" fill="#D9D9D9" stroke="black"/>
<path d="M580.024 40.4878C592.835 40.0263 603.175 38.3871 603.12 36.8265C603.064 35.2658 592.633 34.3748 579.822 34.8363C567.011 35.2978 556.67 36.937 556.726 38.4976C556.781 40.0583 567.212 40.9493 580.024 40.4878Z" fill="#842D09"/>
<path d="M570.695 41.0703L573.509 72.1738" stroke="black"/>
<path d="M589.684 39.6562L577.023 72.1735" stroke="black"/>
<path d="M567.367 77.2495C580.179 76.7881 590.519 75.1488 590.463 73.5882C590.408 72.0276 579.977 71.1365 567.166 71.598C554.354 72.0595 544.014 73.6987 544.07 75.2594C544.125 76.82 554.556 77.711 567.367 77.2495Z" fill="#842D09"/>
<path d="M567.174 48.1364L560.844 54.4985L594.606 53.0847L591.793 46.7227L567.174 48.1364Z" fill="#476479" stroke="black"/>
<path d="M624.803 81.8027C625.572 81.9194 627.795 71.3743 629.769 58.2496C631.744 45.1249 632.722 34.3906 631.953 34.2738C631.185 34.1571 628.962 44.7022 626.988 57.8269C625.013 70.9517 624.035 81.686 624.803 81.8027Z" fill="#300E07"/>
</svg>
