<svg viewBox="0 0 1077 588" fill="none" xmlns="http://www.w3.org/2000/svg">
<path d="M286.279 472.547L404.273 442.317C412.898 440.107 418.099 431.322 415.889 422.698C413.68 414.073 404.896 408.873 396.271 411.083L278.277 441.313C242.055 450.593 205.035 428.674 195.754 392.452L180.766 333.95C178.557 325.325 169.772 320.125 161.149 322.335C152.523 324.545 147.322 333.327 149.532 341.953L164.52 400.454C178.212 453.898 232.832 486.24 286.279 472.547Z" fill="#D40F4F"/>
<path d="M151.832 278.961L220.375 163.199C246.526 180.416 266.599 207.045 274.982 239.766C292.863 309.56 250.778 380.636 180.983 398.518C111.188 416.399 40.1105 374.315 22.2292 304.521C13.6654 271.094 18.8842 237.392 34.2854 209.361L151.832 278.961Z" fill="#ED2760"/>
<path d="M164.613 334.635C223.357 319.585 262.46 266.854 262.715 208.919C267.976 218.431 272.155 228.744 274.979 239.767C292.861 309.562 250.775 380.636 180.98 398.518C111.185 416.399 40.108 374.317 22.2266 304.522C19.4025 293.499 18.1065 282.449 18.1516 271.581C46.2322 322.253 105.871 349.685 164.613 334.635Z" fill="#D40F4F"/>
<path d="M804.206 467.888L684.752 444.07C676.022 442.329 670.354 433.837 672.095 425.106C673.836 416.374 682.327 410.708 691.057 412.449L810.511 436.267C847.181 443.579 882.965 419.694 890.276 383.024L902.086 323.799C903.827 315.067 912.317 309.401 921.047 311.141C929.779 312.882 935.445 321.371 933.704 330.103L921.895 389.329C911.107 443.434 858.314 478.677 804.206 467.888Z" fill="#D40F4F"/>
<path d="M928.005 267.327L853.314 155.433C828.131 174.037 809.524 201.71 802.919 234.835C788.83 305.493 834.69 374.194 905.349 388.283C976.007 402.372 1044.71 356.514 1058.8 285.856C1065.55 252.016 1058.52 218.644 1041.62 191.486L928.005 267.327Z" fill="#ED2760"/>
<path d="M918.246 323.612C858.778 311.755 816.884 261.211 813.504 203.373C808.762 213.156 805.146 223.679 802.921 234.838C788.832 305.496 834.692 374.196 905.351 388.285C976.01 402.374 1044.71 356.517 1058.8 285.859C1061.02 274.699 1061.72 263.595 1061.09 252.746C1035.79 304.86 977.714 335.47 918.246 323.612Z" fill="#D40F4F"/>
<path d="M403.852 514.64L401.444 565.802C400.879 577.802 393.048 587.199 383.967 586.771C374.886 586.344 367.972 576.253 368.537 564.253L370.945 513.091C371.51 501.091 379.342 491.695 388.422 492.122C397.503 492.55 404.417 502.64 403.852 514.64Z" fill="black"/>
<path d="M466.852 514.64L464.444 565.802C463.879 577.802 456.048 587.199 446.967 586.771C437.886 586.344 430.972 576.253 431.537 564.253L433.945 513.091C434.51 501.091 442.342 491.695 451.422 492.122C460.503 492.55 467.417 502.64 466.852 514.64Z" fill="black"/>
<path d="M626.852 514.64L624.444 565.802C623.879 577.802 616.048 587.199 606.967 586.771C597.886 586.344 590.972 576.253 591.537 564.253L593.945 513.091C594.51 501.091 602.342 491.695 611.422 492.122C620.503 492.55 627.417 502.64 626.852 514.64Z" fill="black"/>
<path d="M689.852 514.64L687.444 565.802C686.879 577.802 679.048 587.199 669.967 586.771C660.886 586.344 653.972 576.253 654.537 564.253L656.945 513.091C657.51 501.091 665.342 491.695 674.422 492.122C683.503 492.55 690.417 502.64 689.852 514.64Z" fill="black"/>
<path d="M706.573 511.65H380.427C338.192 511.65 303.953 477.412 303.953 435.175C303.953 322.132 395.593 230.492 508.636 230.492H578.363C691.408 230.492 783.047 322.132 783.047 435.175C783.047 477.412 748.808 511.65 706.573 511.65Z" fill="#ED2760"/>
<path d="M707.135 414.931H380.991C351.578 414.931 326.059 398.316 313.265 373.969C307.217 393.295 303.953 413.854 303.953 435.174C303.953 477.41 338.193 511.649 380.427 511.649H706.573C748.808 511.649 783.047 477.41 783.047 435.174C783.047 414.347 779.928 394.25 774.146 375.315C761.13 398.927 736.004 414.931 707.135 414.931Z" fill="#D40F4F"/>
<path d="M686.934 96.986C686.028 147.288 644.516 187.332 594.213 186.426C543.912 185.52 503.868 144.007 504.774 93.7052C505.68 43.4014 547.192 3.35943 597.493 4.26537C647.797 5.17135 687.84 46.6822 686.934 96.986Z" fill="#ED2760"/>
<path d="M590.231 95.2438C589.325 145.546 547.812 185.59 497.51 184.684C447.208 183.778 407.165 142.265 408.071 91.963C408.977 41.6592 450.488 1.61723 500.791 2.5232C551.093 3.42915 591.137 44.94 590.231 95.2438Z" fill="#ED2760"/>
<path d="M556.498 94.6361C555.928 126.309 529.79 151.521 498.119 150.951C466.446 150.38 441.233 124.243 441.803 92.5704C442.374 60.8975 468.512 35.6851 500.185 36.2555C531.856 36.8259 557.069 62.9632 556.498 94.6361Z" fill="white"/>
<path d="M516.017 93.9074C515.849 103.222 508.159 110.638 498.846 110.47C489.529 110.302 482.114 102.614 482.282 93.2999C482.45 83.9834 490.137 76.5696 499.453 76.7374C508.767 76.9051 516.184 84.5909 516.017 93.9074Z" fill="#002439"/>
<path d="M503.154 308.516L487.413 308.233L490.086 159.805L505.827 160.088L503.154 308.516Z" fill="#ED2760"/>
<path d="M653.2 96.3782C652.629 128.051 626.491 153.263 594.819 152.693C563.149 152.123 537.936 125.985 538.506 94.3125C539.077 62.6397 565.215 37.4273 596.885 37.9977C628.557 38.5681 653.77 64.7053 653.2 96.3782Z" fill="white"/>
<path d="M612.72 95.6496C612.552 104.964 604.864 112.38 595.548 112.212C586.233 112.044 578.818 104.357 578.985 95.042C579.153 85.7256 586.841 78.3118 596.155 78.4795C605.472 78.6473 612.888 86.3331 612.72 95.6496Z" fill="#002439"/>
<path d="M599.856 310.258L584.116 309.975L586.789 161.547L602.53 161.83L599.856 310.258Z" fill="#ED2760"/>
<path d="M451.202 323.228C442.839 314.868 442.839 301.312 451.202 292.952C459.562 284.589 473.118 284.589 481.478 292.952C515.958 327.429 572.057 327.429 606.537 292.952C614.898 284.589 628.453 284.589 636.813 292.952C645.177 301.312 645.177 314.868 636.813 323.228C585.64 374.403 502.375 374.403 451.202 323.228Z" fill="#B91546"/>
</svg>
