<svg width="1500" height="333" viewBox="0 0 1500 333" fill="none" xmlns="http://www.w3.org/2000/svg">
<g clip-path="url(#clip0_485_454)">
<rect width="1500" height="333" fill="#FCD25C"/>
<path d="M224.268 42.9719C223.919 40.9689 221.407 42.1129 219.911 41.9021C218.279 41.6723 217.201 40.4155 215.292 40.8536C213.785 41.1991 213.729 41.9263 212.501 42.6076C210.409 43.7682 210.109 42.942 210.272 45.6004L211.433 46.3093C212.185 46.2761 213.344 47.1171 214.178 47.4537C215.561 48.0116 216.696 48.2501 218.192 47.8409C220.724 47.1481 219.423 46.2811 220.7 45.0772C221.78 44.0598 224.661 45.2306 224.268 42.9719Z" fill="#F9E687"/>
<path d="M289.293 41.0035C289.001 39.3237 286.894 40.2843 285.639 40.1061C284.27 39.9129 283.365 38.8594 281.764 39.226C280.499 39.5162 280.453 40.1257 279.422 40.6978C277.667 41.6716 277.416 40.9784 277.554 43.2084L278.527 43.8032C279.157 43.7752 280.131 44.4803 280.83 44.7624C281.989 45.2311 282.942 45.4308 284.197 45.0871C286.321 44.506 285.229 43.7787 286.3 42.7696C287.206 41.9148 289.624 42.8983 289.293 41.0035Z" fill="#F9E687"/>
<path d="M313.906 39.1792C313.613 37.4995 311.506 38.4601 310.252 38.2819C308.884 38.0886 307.979 37.0352 306.377 37.4018C305.113 37.6919 305.066 38.3015 304.036 38.8736C302.281 39.8474 302.03 39.1542 302.166 41.3842L303.141 41.9789C303.771 41.9509 304.744 42.6561 305.444 42.9381C306.604 43.4068 307.555 43.6066 308.81 43.2629C310.934 42.6818 309.842 41.9545 310.914 40.9454C311.819 40.0907 314.236 41.0741 313.906 39.1792Z" fill="#F9E687"/>
<path d="M195.597 43.0958C192.43 43.3362 186.286 40.328 185.67 44.6267L184.023 46.3389C183.27 46.4218 182.827 46.2611 182.558 46.9863C184.45 49.0825 188.331 46.9606 190.631 46.9771C193.721 46.9978 196.981 47.4484 199.936 45.7047C204.485 43.0207 198.387 42.8843 195.597 43.0958Z" fill="#F9E687"/>
<path d="M170.264 53.9937C172.098 53.8203 175.702 55.4987 176.002 52.9996L176.935 51.9895C177.371 51.9338 177.63 52.0212 177.776 51.5979C176.651 50.4027 174.428 51.674 173.092 51.6897C171.3 51.7103 169.403 51.4843 167.711 52.5263C165.108 54.1326 168.648 54.1462 170.264 53.9937Z" fill="#F9E687"/>
<path d="M242.236 39.1282C240.649 39.2487 237.57 37.7409 237.261 39.8955L236.435 40.7536C236.057 40.7956 235.836 40.7148 235.701 41.0783C236.65 42.1286 238.594 41.065 239.748 41.073C241.297 41.0835 242.93 41.3095 244.412 40.4346C246.691 39.0898 243.635 39.0217 242.236 39.1282Z" fill="#F9E687"/>
<path d="M250.934 50.6767C249.342 50.6862 246.408 48.9647 245.914 51.0937L245.018 51.8925C244.638 51.9076 244.424 51.8121 244.259 52.1649C245.112 53.2802 247.141 52.3553 248.287 52.4443C249.828 52.5639 251.435 52.9041 252.986 52.1343C255.373 50.9509 252.336 50.6682 250.934 50.6767Z" fill="#F9E687"/>
<path d="M235.96 44.9115C235.802 44.1319 234.614 43.959 234.275 43.4332C233.807 42.7065 233.884 41.8449 233.411 41.1719C232.192 39.4365 231.984 39.4566 230.501 40.9218C229.799 41.6146 230.043 42.5094 228.866 43.1467C228.425 43.3851 227.585 43.1069 227.082 43.3135C225.527 43.9525 224.256 44.5902 224.957 45.9581L226.645 47.9095C225.824 48.0312 226.837 49.0729 228.031 49.2416C230.315 49.5652 229.477 48.0345 230.974 47.3931C232.554 46.7167 236.579 47.97 235.96 44.9115Z" fill="#F9E687"/>
<path d="M275.436 42.3894C275.855 42.0357 275.56 41.3944 275.764 41.0415C276.047 40.5557 276.595 40.2878 276.844 39.8176C277.485 38.6064 277.403 38.5125 276.015 38.3067C275.358 38.2095 274.898 38.6457 274.115 38.296C273.822 38.1643 273.709 37.6555 273.413 37.4828C272.502 36.9498 271.687 36.5548 271.094 37.3816L270.48 38.8985C270.129 38.54 269.839 39.4052 270.14 40.0479C270.713 41.2785 271.359 40.3271 272.252 40.8314C273.194 41.3639 273.791 43.7769 275.436 42.3894Z" fill="#F9E687"/>
<path d="M291.595 37.1048C291.898 36.8494 291.684 36.3854 291.832 36.1312C292.037 35.7803 292.433 35.5863 292.612 35.2475C293.076 34.3722 293.017 34.3046 292.014 34.1554C291.538 34.0849 291.207 34.4004 290.641 34.1478C290.429 34.0531 290.347 33.686 290.134 33.5605C289.475 33.1753 288.886 32.8898 288.458 33.4874L288.014 34.5828C287.762 34.3238 287.552 34.9491 287.768 35.4129C288.183 36.3026 288.649 35.6142 289.294 35.9789C289.974 36.3634 290.405 38.1068 291.595 37.1048Z" fill="#F9E687"/>
<path d="M212.397 44.6631C211.636 45.784 211.373 45.2133 210.542 45.0775C210.428 45.0588 209.955 44.4821 209.635 44.389C209.299 44.2914 208.89 44.8744 208.602 44.7995C207.821 44.5955 207.645 43.7087 206.807 43.8447C205.853 44.0006 204.471 46.6369 204.787 47.2532L203.586 47.4985C202.776 47.4051 202.913 47.7523 202.578 48.0427C202.872 47.788 201.901 49.4932 201.936 48.8938C201.886 49.7458 202.895 51.3005 203.918 50.1415C204.226 50.7865 206.792 50.4261 207.592 50.1348C208.621 49.7602 208.72 49.0999 209.414 48.6266C211.208 47.3993 213.495 47.3692 212.397 44.6631Z" fill="#F9E687"/>
<path d="M193.399 47.7482C192.637 48.8692 192.374 48.2984 191.544 48.1626C191.43 48.1439 190.957 47.5673 190.637 47.4741C190.301 47.3764 189.892 47.9596 189.605 47.8845C188.824 47.6805 188.648 46.7937 187.81 46.9307C186.855 47.0866 185.474 49.7229 185.789 50.3393L184.589 50.5844C183.779 50.4902 183.915 50.8383 183.58 51.1288C183.874 50.8741 182.903 52.5792 182.938 51.9799C182.888 52.8319 183.897 54.3865 184.919 53.2276C185.227 53.8727 187.793 53.5122 188.593 53.2209C189.623 52.8462 189.722 52.1859 190.415 51.7127C192.209 50.4844 194.496 50.4543 193.399 47.7482Z" fill="#F9E687"/>
<path d="M266.966 40.6162C266.204 41.7371 265.941 41.1664 265.111 41.0306C264.997 41.0119 264.524 40.4352 264.202 40.3422C263.867 40.2445 263.458 40.8276 263.171 40.7525C262.39 40.5486 262.213 39.6619 261.375 39.7978C260.42 39.9537 259.039 42.59 259.356 43.2063L258.155 43.4516C257.346 43.3581 257.482 43.7054 257.147 43.9958C257.441 43.7411 256.47 45.4463 256.504 44.8469C256.455 45.6989 257.463 47.2536 258.486 46.0946C258.793 46.7397 261.36 46.3793 262.16 46.088C263.189 45.7133 263.288 45.0531 263.982 44.5798C265.776 43.3524 268.062 43.3223 266.966 40.6162Z" fill="#F9E687"/>
<path d="M92.3128 34.5666C91.9637 32.5627 89.4525 33.7076 87.9557 33.4958C86.3243 33.266 85.2454 32.0094 83.3365 32.4474C81.8299 32.7929 81.7746 33.52 80.5456 34.2013C78.4537 35.3619 78.1548 34.5357 78.3168 37.1941L79.4783 37.9031C80.2299 37.8698 81.3893 38.7108 82.2245 39.0474C83.6075 39.6052 84.7422 39.8438 86.238 39.4346C88.7698 38.7427 87.4691 37.8748 88.7456 36.6708C89.8254 35.6545 92.7058 36.8253 92.3128 34.5666Z" fill="#F9E687"/>
<path d="M157.34 32.6011C157.047 30.9214 154.94 31.882 153.685 31.7037C152.316 31.5106 151.412 30.4571 149.811 30.8236C148.547 31.1138 148.5 31.7233 147.469 32.2955C145.714 33.2692 145.463 32.576 145.6 34.8061L146.574 35.4008C147.205 35.3728 148.178 36.0779 148.878 36.3609C150.037 36.8296 150.99 37.0293 152.245 36.6847C154.369 36.1036 153.277 35.3763 154.348 34.3672C155.253 33.5125 157.67 34.496 157.34 32.6011Z" fill="#F9E687"/>
<path d="M181.951 30.7769C181.658 29.0972 179.551 30.0578 178.297 29.8795C176.928 29.6864 176.023 28.6328 174.422 28.9994C173.158 29.2895 173.111 29.8991 172.081 30.4712C170.326 31.445 170.075 30.7518 170.211 32.9819L171.186 33.5766C171.816 33.5485 172.788 34.2538 173.489 34.5367C174.649 35.0054 175.6 35.2052 176.855 34.8605C178.978 34.2795 177.887 33.5522 178.958 32.543C179.865 31.6883 182.281 32.6718 181.951 30.7769Z" fill="#F9E687"/>
<path d="M63.6415 34.6896C60.4736 34.9301 54.3305 31.9218 53.7146 36.2205L52.0686 37.9326C51.3146 38.0147 50.8726 37.8548 50.6035 38.58C52.4957 40.6762 56.3764 38.5543 58.6769 38.5708C61.7669 38.5915 65.0261 39.0421 67.9812 37.2975C72.5293 34.6145 66.4325 34.4781 63.6415 34.6896Z" fill="#F9E687"/>
<path d="M38.3086 45.5874C40.1438 45.414 43.7478 47.0924 44.0479 44.5933L44.9798 43.5832C45.4158 43.5275 45.675 43.6149 45.8212 43.1916C44.6957 41.9964 42.4725 43.2677 41.137 43.2835C39.3447 43.3041 37.4478 43.078 35.7562 44.1201C33.1538 45.7263 36.6925 45.7399 38.3086 45.5874Z" fill="#F9E687"/>
<path d="M110.282 30.7219C108.694 30.8424 105.615 29.3347 105.306 31.4892L104.481 32.3473C104.103 32.3893 103.882 32.3085 103.747 32.672C104.695 33.7223 106.64 32.6587 107.793 32.6668C109.342 32.6782 110.975 32.9033 112.456 32.0283C114.736 30.6836 111.681 30.6154 110.282 30.7219Z" fill="#F9E687"/>
<path d="M118.98 42.2704C117.388 42.2799 114.454 40.5584 113.959 42.6875L113.062 43.4863C112.682 43.5014 112.469 43.405 112.303 43.7586C113.156 44.874 115.185 43.9491 116.333 44.038C117.874 44.1576 119.481 44.4978 121.032 43.7289C123.418 42.5447 120.381 42.2619 118.98 42.2704Z" fill="#F9E687"/>
<path d="M104.005 36.5052C103.847 35.7256 102.658 35.5528 102.32 35.0269C101.852 34.3002 101.929 33.4387 101.456 32.7656C100.237 31.0302 100.028 31.0503 98.5457 32.5156C97.8441 33.2092 98.0879 34.1031 96.9108 34.7404C96.4702 34.9788 95.6303 34.7006 95.1272 34.9072C93.5722 35.5463 92.3008 36.184 93.0018 37.5519L94.6898 39.5033C93.8675 39.625 94.8822 40.6666 96.0759 40.8344C98.3601 41.158 97.5216 39.6273 99.0193 38.9859C100.599 38.3104 104.624 39.5638 104.005 36.5052Z" fill="#F9E687"/>
<path d="M143.481 33.9836C143.9 33.6298 143.605 32.9876 143.809 32.6357C144.092 32.1498 144.64 31.882 144.889 31.4117C145.53 30.2006 145.448 30.1066 144.06 29.9008C143.403 29.8036 142.943 30.239 142.16 29.8901C141.866 29.7585 141.753 29.2497 141.458 29.077C140.547 28.544 139.731 28.148 139.139 28.9757L138.525 30.4926C138.174 30.1342 137.884 30.9993 138.185 31.6421C138.758 32.8736 139.404 31.9212 140.297 32.4255C141.239 32.9581 141.836 35.3701 143.481 33.9836Z" fill="#F9E687"/>
<path d="M159.641 28.6994C159.944 28.444 159.73 27.981 159.877 27.7259C160.082 27.3749 160.478 27.181 160.657 26.8413C161.121 25.9669 161.062 25.8984 160.059 25.7491C159.584 25.6786 159.251 25.9942 158.685 25.7415C158.474 25.6468 158.391 25.2797 158.179 25.1543C157.52 24.769 156.931 24.4835 156.503 25.0811L156.058 26.1766C155.805 25.9176 155.596 26.5429 155.812 27.0077C156.227 27.8964 156.692 27.2081 157.339 27.5736C158.021 27.959 158.452 29.7023 159.641 28.6994Z" fill="#F9E687"/>
<path d="M80.4444 36.2608C79.6822 37.3817 79.4203 36.8109 78.589 36.6752C78.4753 36.6565 78.0024 36.0798 77.6806 35.9867C77.3455 35.889 76.9365 36.4712 76.6492 36.3971C75.868 36.1931 75.6919 35.3063 74.8536 35.4424C73.8995 35.5982 72.5176 38.2345 72.8341 38.8509L71.633 39.0961C70.8229 39.0028 70.9599 39.3499 70.6244 39.6404C70.9184 39.3857 69.9467 41.0899 69.9816 40.4915C69.9325 41.3436 70.9412 42.8982 71.9632 41.7384C72.2718 42.3833 74.8381 42.0229 75.6367 41.7317C76.6658 41.357 76.7653 40.6968 77.4581 40.2226C79.2544 38.997 81.5415 38.9668 80.4444 36.2608Z" fill="#F9E687"/>
<path d="M61.4444 39.3428C60.6832 40.4637 60.4203 39.8929 59.589 39.7572C59.4753 39.7385 59.0023 39.1618 58.6805 39.0688C58.3454 38.9711 57.9364 39.5542 57.6491 39.4792C56.8679 39.2752 56.6919 38.3884 55.8536 38.5244C54.8985 38.6803 53.5177 41.3166 53.8331 41.933L52.6328 42.1782C51.8227 42.0839 51.9588 42.432 51.6243 42.7225C51.9183 42.4678 50.9477 44.1729 50.9815 43.5736C50.9323 44.4256 51.9401 45.9803 52.9632 44.8213C53.2707 45.4664 55.8371 45.1059 56.6368 44.8147C57.6669 44.4399 57.7653 43.7797 58.4592 43.3064C60.2544 42.079 62.5415 42.0489 61.4444 39.3428Z" fill="#F9E687"/>
<path d="M135.011 32.2139C134.249 33.3348 133.986 32.7641 133.155 32.6283C133.042 32.6096 132.569 32.0329 132.248 31.9398C131.913 31.8421 131.504 32.4243 131.217 32.3501C130.435 32.1462 130.258 31.2595 129.421 31.3954C128.466 31.5513 127.085 34.1876 127.401 34.8039L126.2 35.0492C125.39 34.9558 125.527 35.303 125.193 35.5934C125.487 35.3387 124.515 37.0429 124.55 36.4445C124.501 37.2965 125.51 38.8512 126.532 37.6913C126.839 38.3364 129.405 37.9759 130.205 37.6847C131.234 37.31 131.334 36.6497 132.028 36.1755C133.821 34.9501 136.108 34.9199 135.011 32.2139Z" fill="#F9E687"/>
<path d="M1206.24 73.8163C1205.89 71.8133 1203.38 72.9574 1201.88 72.7465C1200.25 72.5167 1199.17 71.26 1197.26 71.6971C1195.75 72.0427 1195.7 72.7698 1194.47 73.4521C1192.38 74.6127 1192.08 73.7864 1192.24 76.4439L1193.4 77.1538C1194.15 77.1206 1195.31 77.9615 1196.15 78.2981C1197.53 78.856 1198.66 79.0946 1200.16 78.6853C1202.69 77.9926 1201.39 77.1256 1202.67 75.9216C1203.75 74.9033 1206.63 76.0751 1206.24 73.8163Z" fill="#F9E687"/>
<path d="M1271.26 71.8472C1270.97 70.1675 1268.86 71.128 1267.61 70.9498C1266.24 70.7566 1265.33 69.7032 1263.73 70.0697C1262.47 70.3598 1262.42 70.9695 1261.39 71.5416C1259.63 72.5144 1259.38 71.8221 1259.52 74.0512L1260.49 74.646C1261.12 74.6179 1262.1 75.3231 1262.8 75.6061C1263.96 76.0739 1264.91 76.2746 1266.16 75.9308C1268.29 75.3497 1267.2 74.6224 1268.27 73.6134C1269.17 72.7595 1271.59 73.7431 1271.26 71.8472Z" fill="#F9E687"/>
<path d="M1295.87 70.023C1295.58 68.3432 1293.47 69.3039 1292.22 69.1255C1290.85 68.9324 1289.95 67.8788 1288.35 68.2454C1287.08 68.5356 1287.03 69.1452 1286 69.7172C1284.25 70.6901 1284 69.9978 1284.13 72.2269L1285.11 72.8216C1285.74 72.7936 1286.71 73.4987 1287.41 73.7817C1288.57 74.2495 1289.52 74.4501 1290.78 74.1065C1292.9 73.5254 1291.81 72.7981 1292.88 71.789C1293.79 70.9352 1296.2 71.9189 1295.87 70.023Z" fill="#F9E687"/>
<path d="M1177.56 73.9397C1174.4 74.1801 1168.25 71.1719 1167.64 75.4705L1165.99 77.1826C1165.24 77.2656 1164.79 77.1049 1164.53 77.83C1166.42 79.9262 1170.3 77.8052 1172.6 77.8209C1175.69 77.8425 1178.95 78.2921 1181.9 76.5484C1186.45 73.8635 1180.35 73.7281 1177.56 73.9397Z" fill="#F9E687"/>
<path d="M1152.23 84.8365C1154.06 84.6631 1157.67 86.3416 1157.97 83.8424L1158.9 82.8323C1159.34 82.7766 1159.6 82.8649 1159.74 82.4416C1158.62 81.2464 1156.4 82.5176 1155.06 82.5335C1153.27 82.5541 1151.37 82.3279 1149.68 83.371C1147.07 84.9754 1150.61 84.989 1152.23 84.8365Z" fill="#F9E687"/>
<path d="M1224.2 69.972C1222.62 70.0925 1219.54 68.5847 1219.23 70.7392L1218.41 71.5973C1218.03 71.6384 1217.81 71.5585 1217.67 71.9221C1218.62 72.9724 1220.56 71.9087 1221.72 71.9168C1223.27 71.9273 1224.9 72.1532 1226.38 71.2783C1228.66 69.9336 1225.6 69.8655 1224.2 69.972Z" fill="#F9E687"/>
<path d="M1232.9 81.5204C1231.31 81.5298 1228.38 79.8083 1227.88 81.9374L1226.99 82.7363C1226.61 82.7513 1226.39 82.6559 1226.23 83.0087C1227.08 84.124 1229.11 83.1991 1230.26 83.288C1231.8 83.4076 1233.4 83.7478 1234.95 82.9791C1237.34 81.7947 1234.31 81.5119 1232.9 81.5204Z" fill="#F9E687"/>
<path d="M1217.93 75.7553C1217.77 74.9757 1216.58 74.8028 1216.24 74.277C1215.77 73.5503 1215.85 72.6886 1215.38 72.0157C1214.16 70.2803 1213.95 70.3004 1212.47 71.7657C1211.76 72.4594 1212.01 73.3533 1210.83 73.9906C1210.39 74.2291 1209.55 73.9508 1209.05 74.1574C1207.49 74.7965 1206.22 75.4341 1206.92 76.8021L1208.61 78.7535C1207.79 78.8752 1208.8 79.9168 1209.99 80.0856C1212.28 80.4091 1211.44 78.8784 1212.94 78.237C1214.52 77.5605 1218.55 78.8138 1217.93 75.7553Z" fill="#F9E687"/>
<path d="M1257.4 73.2329C1257.82 72.8792 1257.53 72.2379 1257.73 71.8851C1258.02 71.3992 1258.56 71.1313 1258.81 70.661C1259.45 69.4499 1259.37 69.3559 1257.98 69.1501C1257.33 69.0529 1256.87 69.4892 1256.08 69.1394C1255.79 69.0077 1255.68 68.4999 1255.38 68.3271C1254.47 67.7932 1253.66 67.3982 1253.06 68.2259L1252.45 69.7428C1252.1 69.3843 1251.81 70.2495 1252.11 70.8923C1252.68 72.1237 1253.33 71.1714 1254.22 71.6757C1255.16 72.2075 1255.76 74.6196 1257.4 73.2329Z" fill="#F9E687"/>
<path d="M1273.56 67.9485C1273.86 67.6931 1273.65 67.2291 1273.8 66.975C1274 66.624 1274.4 66.431 1274.58 66.0912C1275.04 65.216 1274.98 65.1483 1273.98 64.9992C1273.51 64.9287 1273.17 65.2442 1272.61 64.9915C1272.4 64.8968 1272.31 64.5297 1272.1 64.4043C1271.44 64.0191 1270.85 63.7335 1270.42 64.3312L1269.98 65.4267C1269.73 65.1676 1269.52 65.793 1269.73 66.2577C1270.15 67.1465 1270.61 66.459 1271.26 66.8237C1271.94 67.208 1272.37 68.9504 1273.56 67.9485Z" fill="#F9E687"/>
<path d="M1194.37 75.5108C1193.61 76.6316 1193.34 76.0609 1192.51 75.9252C1192.4 75.9065 1191.92 75.3298 1191.6 75.2367C1191.27 75.139 1190.86 75.7221 1190.57 75.6471C1189.79 75.4431 1189.61 74.5563 1188.78 74.6924C1187.82 74.8481 1186.44 77.4846 1186.76 78.1009L1185.55 78.3461C1184.74 78.2528 1184.88 78.5999 1184.55 78.8904C1184.84 78.6357 1183.87 80.3408 1183.9 79.7415C1183.86 80.5935 1184.86 82.1481 1185.89 80.9892C1186.19 81.6342 1188.76 81.2738 1189.56 80.9826C1190.59 80.6079 1190.69 79.9476 1191.38 79.4744C1193.18 78.2469 1195.46 78.2168 1194.37 75.5108Z" fill="#F9E687"/>
<path d="M1175.37 78.5928C1174.61 79.7137 1174.34 79.1429 1173.51 79.0072C1173.4 78.9885 1172.93 78.4118 1172.6 78.3187C1172.27 78.221 1171.86 78.8041 1171.57 78.7291C1170.79 78.5251 1170.61 77.6384 1169.78 77.7743C1168.82 77.9302 1167.44 80.5666 1167.76 81.1828L1166.56 81.4281C1165.75 81.3338 1165.88 81.6819 1165.55 81.9714C1165.84 81.7167 1164.87 83.4219 1164.9 82.8226C1164.85 83.6747 1165.86 85.2302 1166.89 84.0703C1167.19 84.7153 1169.76 84.3549 1170.56 84.0637C1171.59 83.689 1171.69 83.0278 1172.38 82.5546C1174.18 81.3289 1176.46 81.2988 1175.37 78.5928Z" fill="#F9E687"/>
<path d="M1248.93 71.4639C1248.17 72.5847 1247.91 72.014 1247.08 71.8783C1246.96 71.8596 1246.49 71.2829 1246.17 71.1899C1245.84 71.0922 1245.43 71.6753 1245.14 71.6003C1244.36 71.3963 1244.18 70.5096 1243.34 70.6455C1242.39 70.8015 1241.01 73.4378 1241.32 74.0541L1240.12 74.2994C1239.31 74.2059 1239.45 74.5532 1239.11 74.8436C1239.41 74.5889 1238.44 76.2941 1238.47 75.6947C1238.42 76.5467 1239.43 78.1014 1240.45 76.9425C1240.76 77.5875 1243.33 77.2271 1244.13 76.9358C1245.16 76.5611 1245.25 75.9009 1245.95 75.4276C1247.75 74.2001 1250.03 74.17 1248.93 71.4639Z" fill="#F9E687"/>
<path d="M1385.91 83.7795C1385.84 80.6103 1381.7 81.9024 1379.44 81.2877C1376.98 80.6189 1375.62 78.4667 1372.57 78.7786C1370.17 79.0252 1369.91 80.1406 1367.85 80.9608C1364.35 82.3567 1364.09 81.0201 1363.71 85.1667L1365.33 86.488C1366.49 86.5802 1368.08 88.105 1369.29 88.7863C1371.29 89.9158 1372.98 90.5012 1375.38 90.1547C1379.45 89.5679 1377.65 87.9745 1379.91 86.3559C1381.81 84.9863 1385.98 87.352 1385.91 83.7795Z" fill="#F9E687"/>
<path d="M1415.31 109.674C1415.26 107.017 1411.78 108.101 1409.89 107.584C1407.82 107.023 1406.68 105.218 1404.12 105.48C1402.11 105.687 1401.89 106.622 1400.16 107.31C1397.23 108.481 1397.01 107.36 1396.69 110.838L1398.05 111.945C1399.02 112.023 1400.36 113.302 1401.37 113.873C1403.04 114.82 1404.46 115.312 1406.48 115.02C1409.89 114.528 1408.38 113.192 1410.27 111.835C1411.87 110.687 1415.37 112.672 1415.31 109.674Z" fill="#F9E687"/>
<path d="M1423.83 122.946C1423.78 120.289 1420.3 121.373 1418.41 120.857C1416.34 120.295 1415.2 118.491 1412.64 118.753C1410.63 118.96 1410.41 119.895 1408.68 120.583C1405.75 121.754 1405.53 120.633 1405.21 124.112L1406.57 125.22C1407.54 125.298 1408.88 126.575 1409.89 127.146C1411.57 128.094 1412.99 128.586 1415 128.294C1418.41 127.802 1416.9 126.466 1418.79 125.108C1420.4 123.958 1423.89 125.943 1423.83 122.946Z" fill="#F9E687"/>
<path d="M1341.68 78.4805C1336.74 78.2462 1327.98 72.4113 1326.01 78.9496L1323.07 81.2855C1321.89 81.2683 1321.24 80.9364 1320.65 82.0069C1323.07 85.6158 1329.56 83.0734 1333.1 83.5395C1337.86 84.1643 1342.78 85.4853 1347.75 83.351C1355.4 80.0658 1346.03 78.6873 1341.68 78.4805Z" fill="#F9E687"/>
<path d="M1300.04 90.4992C1302.91 90.5821 1308.06 93.8711 1309.12 90.0598L1310.8 88.6746C1311.48 88.6716 1311.86 88.8577 1312.19 88.2302C1310.74 86.1639 1307.01 87.7068 1304.95 87.4753C1302.18 87.1632 1299.31 86.4499 1296.45 87.741C1292.06 89.7261 1297.51 90.4256 1300.04 90.4992Z" fill="#F9E687"/>
<path d="M1414.52 81.2665C1412.04 81.1498 1407.65 78.2247 1406.67 81.5016L1405.19 82.6716C1404.6 82.6641 1404.28 82.4971 1403.98 83.0343C1405.19 84.8432 1408.44 83.5687 1410.22 83.802C1412.61 84.1152 1415.07 84.7772 1417.56 83.7077C1421.39 82.0617 1416.7 81.3705 1414.52 81.2665Z" fill="#F9E687"/>
<path d="M1425.18 100.821C1422.73 100.53 1418.61 97.3025 1417.34 100.504L1415.77 101.569C1415.18 101.519 1414.88 101.329 1414.54 101.845C1415.59 103.735 1418.93 102.692 1420.68 103.048C1423.03 103.528 1425.43 104.363 1428 103.47C1431.96 102.096 1427.35 101.077 1425.18 100.821Z" fill="#F9E687"/>
<path d="M1403.47 89.0261C1403.41 87.7882 1401.62 87.2932 1401.22 86.4146C1400.67 85.2 1401 83.8795 1400.43 82.747C1398.96 79.827 1398.63 79.8174 1396 81.8021C1394.75 82.741 1394.92 84.1731 1392.95 84.9335C1392.21 85.2181 1390.98 84.6263 1390.16 84.8502C1387.61 85.5415 1385.5 86.2863 1386.25 88.5379L1388.39 91.8831C1387.1 91.9137 1388.42 93.7214 1390.21 94.211C1393.66 95.1491 1392.73 92.6177 1395.19 91.9114C1397.79 91.1681 1403.7 93.8804 1403.47 89.0261Z" fill="#F9E687"/>
<path d="M1461.1 96.9688C1460.43 96.9983 1459.79 97.1564 1458.99 96.6631C1458.57 96.4034 1458.51 95.5937 1458.1 95.2699C1456.82 94.2693 1455.66 93.5015 1454.55 94.6679L1453.24 96.8993C1452.78 96.2773 1452.13 97.5614 1452.44 98.6132C1453.03 100.63 1454.25 99.2785 1455.51 100.231C1456.84 101.235 1457.18 105.085 1460.05 103.252C1460.78 102.785 1460.48 101.735 1460.87 101.228C1461.02 101.042 1461.19 100.885 1461.37 100.741L1461.09 96.9689L1461.1 96.9688Z" fill="#F9E687"/>
<path d="M1436.52 125.133C1437.04 124.796 1436.83 124.037 1437.11 123.672C1437.51 123.166 1438.17 122.943 1438.52 122.452C1439.45 121.186 1439.37 121.069 1437.86 120.646C1437.15 120.446 1436.56 120.871 1435.75 120.371C1435.44 120.183 1435.4 119.599 1435.1 119.365C1434.18 118.642 1433.34 118.088 1432.54 118.931L1431.59 120.542C1431.26 120.093 1430.79 121.021 1431.02 121.781C1431.45 123.238 1432.33 122.261 1433.24 122.951C1434.19 123.677 1434.44 126.458 1436.52 125.133Z" fill="#F9E687"/>
<path d="M1367.21 84.1304C1365.77 85.7207 1365.49 84.7867 1364.25 84.4162C1364.08 84.3652 1363.49 83.382 1363.01 83.1758C1362.52 82.9599 1361.75 83.7839 1361.32 83.6134C1360.17 83.1481 1360.11 81.7403 1358.78 81.7917C1357.27 81.8502 1354.52 85.6668 1354.86 86.6826L1352.95 86.8316C1351.72 86.5316 1351.85 87.0964 1351.26 87.4812C1351.78 87.1438 1349.88 89.5969 1350.07 88.6752C1349.79 89.9847 1350.98 92.5851 1352.83 90.9859C1353.15 92.0424 1357.19 91.9766 1358.5 91.679C1360.17 91.2956 1360.48 90.2934 1361.66 89.6923C1364.72 88.1392 1368.25 88.5313 1367.21 84.1304Z" fill="#F9E687"/>
<path d="M1337.19 85.2672C1335.75 86.8565 1335.48 85.9233 1334.23 85.5528C1334.06 85.502 1333.46 84.5188 1332.99 84.3125C1332.5 84.0966 1331.73 84.9205 1331.3 84.7509C1330.15 84.2848 1330.09 82.8779 1328.76 82.9283C1327.26 82.9867 1324.5 86.8035 1324.84 87.8192L1322.93 87.9691C1321.7 87.6681 1321.83 88.233 1321.25 88.6187C1321.76 88.2804 1319.86 90.7345 1320.05 89.8127C1319.77 91.1233 1320.96 93.7236 1322.81 92.1243C1323.13 93.1817 1327.18 93.1151 1328.48 92.8175C1330.15 92.4342 1330.46 91.4309 1331.64 90.8298C1334.7 89.2751 1338.23 89.668 1337.19 85.2672Z" fill="#F9E687"/>
<path d="M1389.82 137.846C1388.38 139.437 1388.11 138.502 1386.86 138.132C1386.69 138.081 1386.1 137.098 1385.63 136.892C1385.13 136.676 1384.37 137.5 1383.94 137.329C1382.78 136.864 1382.72 135.456 1381.4 135.506C1379.89 135.565 1377.13 139.383 1377.47 140.397L1375.56 140.547C1374.34 140.247 1374.47 140.812 1373.88 141.197C1374.4 140.859 1372.49 143.313 1372.69 142.391C1372.41 143.701 1373.6 146.302 1375.45 144.702C1375.77 145.759 1379.81 145.692 1381.11 145.394C1382.79 145.012 1383.1 144.008 1384.28 143.408C1387.34 141.855 1390.87 142.247 1389.82 137.846Z" fill="#F9E687"/>
<path d="M668.477 69.5481C668.042 67.0484 664.907 68.4771 663.04 68.2123C661.004 67.9254 659.659 66.3575 657.276 66.9044C655.396 67.3356 655.326 68.2425 653.794 69.0932C651.183 70.541 650.81 69.5098 651.013 72.8265L652.463 73.7115C653.4 73.6701 654.847 74.7189 655.888 75.1394C657.615 75.8355 659.029 76.1328 660.898 75.622C664.057 74.7584 662.433 73.6749 664.027 72.1743C665.373 70.9053 668.966 72.3666 668.477 69.5481Z" fill="#F9E687"/>
<path d="M636.314 83.5872C635.879 81.0874 632.745 82.5161 630.878 82.2514C628.842 81.9645 627.496 80.3965 625.114 80.9435C623.234 81.3747 623.164 82.2816 621.632 83.1322C619.02 84.5801 618.648 83.5489 618.851 86.8665L620.299 87.7516C621.237 87.7101 622.684 88.759 623.725 89.1794C625.451 89.8755 626.866 90.1729 628.734 89.6622C631.892 88.7985 630.269 87.715 631.862 86.2145C633.21 84.9444 636.805 86.4056 636.314 83.5872Z" fill="#F9E687"/>
<path d="M749.615 67.0961C749.25 64.999 746.62 66.1985 745.056 65.9759C743.347 65.7349 742.219 64.4202 740.221 64.8779C738.644 65.2399 738.586 66.0009 737.299 66.7145C735.11 67.9291 734.796 67.0647 734.967 69.8459L736.182 70.5883C736.969 70.5534 738.183 71.4334 739.056 71.7859C740.503 72.3698 741.69 72.6194 743.257 72.1909C745.906 71.4661 744.545 70.5586 745.88 69.2989C747.012 68.2338 750.027 69.4601 749.615 67.0961Z" fill="#F9E687"/>
<path d="M780.324 64.8188C779.96 62.7216 777.33 63.9211 775.765 63.6985C774.057 63.4575 772.928 62.1429 770.93 62.6005C769.353 62.9625 769.295 63.7235 768.009 64.4371C765.819 65.6517 765.506 64.7873 765.676 67.5686L766.891 68.311C767.677 68.2761 768.891 69.1561 769.765 69.5085C771.212 70.0925 772.399 70.3421 773.965 69.9136C776.615 69.1888 775.254 68.2813 776.589 67.0215C777.72 65.9565 780.736 67.1828 780.324 64.8188Z" fill="#F9E687"/>
<path d="M632.7 69.7013C628.747 70.0017 621.082 66.2486 620.313 71.6118L618.259 73.748C617.319 73.8514 616.766 73.652 616.43 74.5561C618.791 77.1722 623.634 74.5244 626.504 74.5436C630.359 74.5702 634.426 75.1331 638.114 72.9562C643.79 69.6069 636.183 69.4365 632.7 69.7013Z" fill="#F9E687"/>
<path d="M577.459 77.147C573.507 77.4475 565.841 73.6934 565.073 79.0576L563.019 81.1937C562.079 81.2961 561.527 81.0976 561.191 82.0008C563.552 84.6169 568.394 81.9692 571.264 81.9884C575.12 82.015 579.187 82.5778 582.875 80.401C588.55 77.0526 580.941 76.8823 577.459 77.147Z" fill="#F9E687"/>
<path d="M592.51 76.0298C588.558 76.3303 580.892 72.5762 580.124 77.9404L578.07 80.0765C577.13 80.1789 576.577 79.9805 576.242 80.8836C578.602 83.4997 583.444 80.852 586.315 80.8712C590.171 80.8978 594.237 81.4606 597.926 79.2838C603.601 75.9354 595.992 75.7652 592.51 76.0298Z" fill="#F9E687"/>
<path d="M601.09 83.2977C603.379 83.0812 607.876 85.1761 608.251 82.0579L609.414 80.7978C609.958 80.7275 610.281 80.8374 610.463 80.3094C609.059 78.8177 606.285 80.4049 604.619 80.4246C602.382 80.4501 600.015 80.1672 597.905 81.4685C594.657 83.4705 599.073 83.4883 601.09 83.2977Z" fill="#F9E687"/>
<path d="M690.897 64.7488C688.916 64.8985 685.073 63.017 684.688 65.7058L683.659 66.7763C683.188 66.8281 682.91 66.728 682.742 67.181C683.926 68.4916 686.353 67.1649 687.792 67.1752C689.724 67.1882 691.762 67.4702 693.611 66.3791C696.456 64.7006 692.642 64.6157 690.897 64.7488Z" fill="#F9E687"/>
<path d="M701.747 79.1601C699.762 79.1716 696.1 77.0233 695.482 79.6805L694.364 80.6773C693.89 80.6956 693.624 80.5769 693.417 81.0169C694.48 82.4094 697.013 81.2545 698.445 81.3653C700.367 81.5138 702.372 81.9385 704.308 80.9785C707.287 79.5024 703.497 79.1501 701.747 79.1601Z" fill="#F9E687"/>
<path d="M679.297 82.6131C677.311 82.6247 673.649 80.4763 673.032 83.1336L671.913 84.1304C671.44 84.1487 671.173 84.03 670.966 84.47C672.03 85.8624 674.561 84.7077 675.994 84.8185C677.917 84.9668 679.921 85.3917 681.857 84.4316C684.835 82.9556 681.046 82.6032 679.297 82.6131Z" fill="#F9E687"/>
<path d="M683.063 71.967C682.865 70.9949 681.383 70.7792 680.96 70.1231C680.376 69.2161 680.473 68.1407 679.882 67.3015C678.361 65.1357 678.101 65.1606 676.249 66.9899C675.373 67.8546 675.678 68.9713 674.209 69.7658C673.658 70.0629 672.612 69.7158 671.982 69.9739C670.041 70.7706 668.455 71.5673 669.33 73.2731L671.436 75.7088C670.411 75.8597 671.677 77.1604 673.166 77.3709C676.017 77.775 674.97 75.8641 676.839 75.0642C678.812 74.2202 683.836 75.7831 683.063 71.967Z" fill="#F9E687"/>
<path d="M614.018 79.5452C613.82 78.573 612.338 78.3573 611.915 77.7012C611.33 76.7943 611.428 75.7188 610.837 74.8796C609.316 72.7138 609.056 72.7387 607.205 74.568C606.329 75.4327 606.633 76.5494 605.165 77.3438C604.614 77.6409 603.567 77.294 602.939 77.5519C600.999 78.3486 599.412 79.1452 600.287 80.8511L602.393 83.2868C601.368 83.4376 602.634 84.7384 604.123 84.9488C606.974 85.353 605.927 83.4421 607.796 82.6412C609.768 81.7983 614.791 83.3621 614.018 79.5452Z" fill="#F9E687"/>
<path d="M651.693 82.4904C651.496 81.5183 650.014 81.3026 649.59 80.6466C649.007 79.7395 649.104 78.6651 648.513 77.8249C646.992 75.6591 646.732 75.684 644.88 77.5134C644.003 78.3781 644.308 79.4948 642.839 80.2892C642.289 80.5863 641.242 80.2393 640.614 80.4973C638.674 81.2939 637.088 82.0905 637.961 83.7964L640.068 86.2322C639.043 86.383 640.309 87.6837 641.798 87.8942C644.648 88.2984 643.601 86.3865 645.47 85.5867C647.443 84.7436 652.467 86.3065 651.693 82.4904Z" fill="#F9E687"/>
<path d="M732.323 68.8222C732.845 68.3813 732.476 67.5808 732.732 67.1409C733.084 66.534 733.77 66.2007 734.08 65.6137C734.88 64.1027 734.778 63.9849 733.045 63.728C732.226 63.6063 731.651 64.1512 730.675 63.7147C730.31 63.551 730.168 62.9161 729.799 62.7012C728.663 62.0362 727.646 61.5429 726.906 62.5743L726.139 64.4672C725.701 64.0198 725.34 65.0989 725.714 65.9018C726.43 67.4379 727.235 66.2492 728.35 66.8793C729.525 67.5424 730.27 70.5523 732.323 68.8222Z" fill="#F9E687"/>
<path d="M752.485 62.2289C752.862 61.91 752.596 61.3321 752.781 61.0134C753.035 60.5756 753.53 60.334 753.754 59.9105C754.332 58.8191 754.257 58.734 753.006 58.5489C752.414 58.4618 751.999 58.8546 751.294 58.5393C751.029 58.4214 750.926 57.9632 750.66 57.8071C749.839 57.3254 749.104 56.9693 748.57 57.716L748.016 59.0834C747.7 58.7598 747.439 59.5396 747.709 60.1192C748.226 61.2285 748.808 60.3707 749.614 60.8254C750.464 61.3049 751.002 63.479 752.485 62.2289Z" fill="#F9E687"/>
<path d="M653.664 71.6595C652.714 73.0582 652.385 72.3464 651.349 72.1763C651.207 72.1532 650.617 71.4336 650.216 71.3165C649.798 71.1941 649.287 71.9222 648.928 71.8291C647.954 71.574 647.734 70.4679 646.688 70.638C645.497 70.8319 643.773 74.1222 644.168 74.8917L642.669 75.1974C641.658 75.0797 641.828 75.5141 641.411 75.8762C641.778 75.5581 640.565 77.6852 640.608 76.9384C640.547 78.0018 641.806 79.9419 643.082 78.4948C643.466 79.2997 646.668 78.8491 647.666 78.4861C648.95 78.0186 649.075 77.1947 649.94 76.6039C652.179 75.0733 655.032 75.0376 653.664 71.6595Z" fill="#F9E687"/>
<path d="M629.96 75.5112C629.01 76.9098 628.682 76.198 627.645 76.0279C627.503 76.0048 626.913 75.2852 626.513 75.1681C626.094 75.0457 625.584 75.7738 625.225 75.6807C624.25 75.4256 624.03 74.3195 622.984 74.4896C621.793 74.6836 620.068 77.9739 620.463 78.7425L618.965 79.0481C617.954 78.9313 618.124 79.3648 617.708 79.7268C618.074 79.4088 616.862 81.5358 616.906 80.789C616.844 81.8524 618.102 83.7926 619.379 82.3454C619.763 83.1503 622.966 82.7006 623.963 82.3377C625.247 81.8703 625.371 81.0454 626.236 80.4547C628.476 78.9258 631.33 78.8883 629.96 75.5112Z" fill="#F9E687"/>
<path d="M721.754 66.6127C720.804 68.0113 720.475 67.2996 719.439 67.1294C719.295 67.1064 718.707 66.3868 718.305 66.2697C717.887 66.1473 717.377 66.8753 717.017 66.7823C716.044 66.5271 715.823 65.421 714.777 65.5912C713.586 65.7851 711.862 69.0754 712.257 69.8449L710.758 70.1506C709.748 70.0328 709.917 70.4673 709.501 70.8293C709.867 70.5112 708.655 72.6383 708.699 71.8914C708.638 72.9548 709.897 74.895 711.172 73.4479C711.556 74.2529 714.758 73.8022 715.756 73.4392C717.041 72.9717 717.164 72.1479 718.029 71.5571C720.269 70.0264 723.122 69.9908 721.754 66.6127Z" fill="#F9E687"/>
<path d="M733.05 77.2338C732.1 78.6324 731.771 77.9207 730.735 77.7506C730.592 77.7275 730.003 77.0079 729.601 76.8908C729.183 76.7684 728.674 77.4965 728.314 77.4034C727.34 77.1482 727.12 76.0421 726.074 76.2123C724.883 76.4062 723.158 79.6965 723.553 80.466L722.055 80.7717C721.044 80.6539 721.214 81.0884 720.797 81.4504C721.164 81.1324 719.952 83.2594 719.996 82.5125C719.934 83.5759 721.193 85.5161 722.468 84.069C722.852 84.874 726.055 84.4233 727.052 84.0603C728.337 83.5928 728.461 82.769 729.326 82.1783C731.566 80.6475 734.42 80.6109 733.05 77.2338Z" fill="#F9E687"/>
<path d="M308.08 266.509C307.645 264.009 304.51 265.438 302.643 265.173C300.608 264.886 299.262 263.318 296.88 263.865C295 264.297 294.93 265.203 293.397 266.054C290.786 267.502 290.414 266.471 290.617 269.787L292.066 270.672C293.004 270.631 294.451 271.68 295.492 272.1C297.218 272.796 298.633 273.094 300.501 272.583C303.66 271.719 302.037 270.636 303.63 269.135C304.977 267.866 308.57 269.328 308.08 266.509Z" fill="#F9E687"/>
<path d="M275.918 280.548C275.483 278.048 272.349 279.477 270.481 279.212C268.445 278.925 267.1 277.357 264.718 277.904C262.837 278.336 262.767 279.243 261.235 280.093C258.624 281.541 258.252 280.51 258.454 283.827L259.903 284.713C260.84 284.671 262.288 285.72 263.329 286.14C265.055 286.836 266.47 287.134 268.337 286.623C271.496 285.759 269.872 284.676 271.466 283.175C272.814 281.905 276.409 283.367 275.918 280.548Z" fill="#F9E687"/>
<path d="M389.218 264.057C388.853 261.96 386.224 263.159 384.659 262.937C382.951 262.696 381.822 261.381 379.825 261.839C378.247 262.201 378.189 262.962 376.902 263.675C374.713 264.89 374.399 264.026 374.571 266.807L375.786 267.549C376.572 267.514 377.787 268.394 378.659 268.747C380.106 269.331 381.294 269.58 382.861 269.152C385.509 268.427 384.148 267.52 385.484 266.26C386.615 265.195 389.63 266.421 389.218 264.057Z" fill="#F9E687"/>
<path d="M419.927 261.78C419.563 259.683 416.934 260.882 415.368 260.659C413.661 260.418 412.531 259.104 410.534 259.561C408.956 259.923 408.898 260.684 407.612 261.398C405.422 262.613 405.109 261.748 405.28 264.53L406.495 265.272C407.28 265.237 408.495 266.117 409.368 266.469C410.815 267.053 412.003 267.303 413.569 266.875C416.218 266.15 414.857 265.242 416.193 263.982C417.323 262.917 420.339 264.144 419.927 261.78Z" fill="#F9E687"/>
<path d="M272.303 266.662C268.351 266.963 260.685 263.209 259.917 268.573L257.862 270.709C256.922 270.812 256.37 270.613 256.034 271.517C258.395 274.133 263.237 271.485 266.107 271.505C269.963 271.531 274.03 272.094 277.718 269.917C283.394 266.568 275.786 266.397 272.303 266.662Z" fill="#F9E687"/>
<path d="M217.063 274.108C213.11 274.408 205.445 270.654 204.676 276.019L202.623 278.155C201.683 278.257 201.13 278.059 200.794 278.962C203.155 281.578 207.998 278.93 210.868 278.949C214.723 278.976 218.79 279.539 222.478 277.362C228.153 274.014 220.545 273.843 217.063 274.108Z" fill="#F9E687"/>
<path d="M232.114 272.991C228.161 273.291 220.496 269.537 219.727 274.901L217.673 277.037C216.733 277.14 216.18 276.941 215.845 277.845C218.206 280.461 223.047 277.813 225.919 277.832C229.774 277.859 233.841 278.422 237.529 276.245C243.204 272.896 235.596 272.726 232.114 272.991Z" fill="#F9E687"/>
<path d="M240.693 280.259C242.982 280.042 247.48 282.137 247.854 279.019L249.017 277.759C249.561 277.688 249.884 277.798 250.067 277.27C248.663 275.779 245.889 277.366 244.222 277.386C241.985 277.411 239.619 277.128 237.508 278.429C234.26 280.431 238.677 280.449 240.693 280.259Z" fill="#F9E687"/>
<path d="M330.5 261.71C328.519 261.859 324.676 259.978 324.291 262.667L323.262 263.737C322.791 263.789 322.514 263.689 322.346 264.142C323.529 265.453 325.957 264.126 327.395 264.136C329.328 264.149 331.366 264.431 333.214 263.34C336.059 261.662 332.245 261.577 330.5 261.71Z" fill="#F9E687"/>
<path d="M341.351 276.121C339.365 276.133 335.703 273.984 335.086 276.641L333.968 277.638C333.494 277.657 333.227 277.538 333.02 277.978C334.084 279.37 336.617 278.215 338.049 278.326C339.971 278.475 341.976 278.899 343.911 277.939C346.89 276.463 343.101 276.111 341.351 276.121Z" fill="#F9E687"/>
<path d="M318.9 279.574C316.914 279.586 313.253 277.437 312.635 280.095L311.517 281.091C311.043 281.11 310.777 280.991 310.57 281.431C311.633 282.823 314.165 281.669 315.597 281.779C317.52 281.928 319.524 282.353 321.461 281.393C324.439 279.916 320.649 279.564 318.9 279.574Z" fill="#F9E687"/>
<path d="M322.666 268.928C322.469 267.956 320.987 267.74 320.563 267.084C319.979 266.177 320.076 265.102 319.485 264.262C317.964 262.097 317.704 262.122 315.853 263.951C314.976 264.816 315.281 265.932 313.812 266.727C313.262 267.024 312.215 266.677 311.585 266.935C309.645 267.732 308.059 268.528 308.933 270.234L311.04 272.67C310.014 272.821 311.281 274.121 312.769 274.332C315.62 274.736 314.573 272.825 316.443 272.025C318.415 271.181 323.439 272.744 322.666 268.928Z" fill="#F9E687"/>
<path d="M253.621 276.506C253.424 275.534 251.942 275.318 251.518 274.662C250.933 273.755 251.031 272.68 250.441 271.841C248.919 269.675 248.659 269.7 246.809 271.529C245.932 272.394 246.236 273.51 244.768 274.305C244.218 274.602 243.17 274.255 242.543 274.513C240.602 275.31 239.016 276.106 239.89 277.812L241.997 280.248C240.971 280.399 242.238 281.699 243.727 281.91C246.577 282.314 245.53 280.403 247.4 279.602C249.371 278.759 254.394 280.323 253.621 276.506Z" fill="#F9E687"/>
<path d="M291.297 279.451C291.1 278.479 289.618 278.264 289.194 277.607C288.61 276.7 288.707 275.626 288.116 274.786C286.595 272.62 286.335 272.645 284.483 274.474C283.607 275.339 283.911 276.456 282.443 277.25C281.892 277.547 280.846 277.2 280.217 277.458C278.278 278.255 276.691 279.051 277.565 280.757L279.672 283.193C278.646 283.344 279.913 284.645 281.401 284.855C284.252 285.259 283.205 283.347 285.074 282.548C287.047 281.705 292.07 283.267 291.297 279.451Z" fill="#F9E687"/>
<path d="M371.926 265.783C372.449 265.342 372.08 264.542 372.336 264.102C372.688 263.495 373.373 263.162 373.684 262.575C374.483 261.064 374.381 260.946 372.648 260.689C371.829 260.567 371.255 261.112 370.279 260.676C369.914 260.512 369.772 259.877 369.403 259.662C368.266 258.997 367.249 258.504 366.509 259.535L365.742 261.428C365.305 260.981 364.944 262.06 365.317 262.863C366.034 264.399 366.839 263.21 367.954 263.84C369.129 264.503 369.873 267.513 371.926 265.783Z" fill="#F9E687"/>
<path d="M392.088 259.19C392.466 258.871 392.199 258.293 392.384 257.974C392.639 257.536 393.133 257.295 393.358 256.871C393.935 255.78 393.861 255.695 392.61 255.51C392.018 255.423 391.603 255.816 390.897 255.5C390.633 255.382 390.53 254.924 390.264 254.768C389.443 254.286 388.707 253.93 388.173 254.677L387.62 256.044C387.304 255.721 387.043 256.501 387.312 257.08C387.83 258.189 388.411 257.332 389.218 257.786C390.068 258.266 390.606 260.44 392.088 259.19Z" fill="#F9E687"/>
<path d="M293.267 268.62C292.317 270.019 291.989 269.307 290.952 269.137C290.81 269.114 290.22 268.395 289.82 268.277C289.401 268.155 288.891 268.883 288.532 268.79C287.557 268.535 287.337 267.429 286.292 267.599C285.101 267.793 283.376 271.083 283.771 271.853L282.273 272.158C281.261 272.041 281.432 272.475 281.015 272.837C281.381 272.519 280.169 274.646 280.212 273.899C280.15 274.963 281.409 276.903 282.686 275.456C283.069 276.261 286.272 275.81 287.27 275.447C288.554 274.98 288.678 274.156 289.544 273.565C291.783 272.034 294.636 271.999 293.267 268.62Z" fill="#F9E687"/>
<path d="M269.564 272.472C268.614 273.871 268.285 273.159 267.249 272.989C267.107 272.966 266.517 272.246 266.116 272.129C265.698 272.007 265.187 272.735 264.829 272.642C263.854 272.387 263.634 271.28 262.587 271.451C261.396 271.645 259.672 274.935 260.067 275.703L258.568 276.009C257.558 275.892 257.727 276.326 257.311 276.688C257.678 276.37 256.465 278.497 256.509 277.75C256.448 278.813 257.706 280.754 258.982 279.306C259.367 280.111 262.569 279.662 263.566 279.299C264.85 278.831 264.974 278.006 265.839 277.416C268.079 275.887 270.933 275.849 269.564 272.472Z" fill="#F9E687"/>
<path d="M361.357 263.574C360.407 264.972 360.079 264.26 359.042 264.09C358.899 264.067 358.31 263.348 357.908 263.231C357.49 263.108 356.981 263.836 356.621 263.743C355.647 263.488 355.427 262.382 354.381 262.552C353.19 262.746 351.465 266.036 351.86 266.806L350.362 267.112C349.351 266.994 349.521 267.428 349.104 267.79C349.471 267.472 348.259 269.599 348.303 268.852C348.241 269.916 349.5 271.856 350.776 270.409C351.159 271.214 354.362 270.763 355.359 270.4C356.644 269.933 356.768 269.109 357.633 268.518C359.873 266.987 362.726 266.952 361.357 263.574Z" fill="#F9E687"/>
<path d="M372.654 274.195C371.704 275.593 371.375 274.882 370.339 274.712C370.195 274.688 369.607 273.969 369.205 273.852C368.787 273.729 368.277 274.457 367.917 274.364C366.944 274.109 366.723 273.003 365.677 273.173C364.486 273.367 362.762 276.657 363.157 277.427L361.658 277.733C360.648 277.615 360.817 278.049 360.401 278.411C360.767 278.093 359.555 280.22 359.599 279.473C359.538 280.537 360.796 282.477 362.072 281.03C362.456 281.835 365.658 281.384 366.656 281.021C367.941 280.554 368.064 279.73 368.929 279.139C371.17 277.608 374.023 277.572 372.654 274.195Z" fill="#F9E687"/>
<path d="M1043.08 263.509C1042.65 261.009 1039.51 262.438 1037.64 262.173C1035.61 261.886 1034.26 260.318 1031.88 260.865C1030 261.297 1029.93 262.203 1028.4 263.054C1025.79 264.502 1025.41 263.471 1025.62 266.787L1027.07 267.672C1028 267.631 1029.45 268.68 1030.49 269.1C1032.22 269.796 1033.63 270.094 1035.5 269.583C1038.66 268.719 1037.04 267.636 1038.63 266.135C1039.98 264.866 1043.57 266.328 1043.08 263.509Z" fill="#F9E687"/>
<path d="M1010.92 277.548C1010.48 275.048 1007.35 276.477 1005.48 276.212C1003.45 275.925 1002.1 274.357 999.718 274.904C997.837 275.336 997.767 276.243 996.235 277.093C993.624 278.541 993.252 277.51 993.454 280.827L994.903 281.713C995.84 281.671 997.288 282.72 998.329 283.14C1000.05 283.836 1001.47 284.134 1003.34 283.623C1006.5 282.759 1004.87 281.676 1006.47 280.175C1007.81 278.905 1011.41 280.367 1010.92 277.548Z" fill="#F9E687"/>
<path d="M1124.22 261.057C1123.85 258.96 1121.22 260.159 1119.66 259.937C1117.95 259.696 1116.82 258.381 1114.82 258.839C1113.25 259.201 1113.19 259.962 1111.9 260.675C1109.71 261.89 1109.4 261.026 1109.57 263.807L1110.79 264.549C1111.57 264.514 1112.79 265.394 1113.66 265.747C1115.11 266.331 1116.29 266.58 1117.86 266.152C1120.51 265.427 1119.15 264.52 1120.48 263.26C1121.62 262.195 1124.63 263.421 1124.22 261.057Z" fill="#F9E687"/>
<path d="M1154.93 258.78C1154.56 256.683 1151.93 257.882 1150.37 257.659C1148.66 257.418 1147.53 256.104 1145.53 256.561C1143.96 256.923 1143.9 257.684 1142.61 258.398C1140.42 259.613 1140.11 258.748 1140.28 261.53L1141.49 262.272C1142.28 262.237 1143.49 263.117 1144.37 263.469C1145.82 264.053 1147 264.303 1148.57 263.875C1151.22 263.15 1149.86 262.242 1151.19 260.982C1152.32 259.917 1155.34 261.144 1154.93 258.78Z" fill="#F9E687"/>
<path d="M1007.3 263.662C1003.35 263.963 995.685 260.209 994.917 265.573L992.862 267.709C991.922 267.812 991.37 267.613 991.034 268.517C993.395 271.133 998.237 268.485 1001.11 268.505C1004.96 268.531 1009.03 269.094 1012.72 266.917C1018.39 263.568 1010.79 263.397 1007.3 263.662Z" fill="#F9E687"/>
<path d="M952.063 271.108C948.11 271.408 940.445 267.654 939.676 273.019L937.623 275.155C936.683 275.257 936.13 275.059 935.794 275.962C938.155 278.578 942.998 275.93 945.868 275.949C949.723 275.976 953.79 276.539 957.478 274.362C963.153 271.014 955.545 270.843 952.063 271.108Z" fill="#F9E687"/>
<path d="M967.114 269.991C963.161 270.291 955.496 266.537 954.727 271.901L952.673 274.037C951.733 274.14 951.18 273.941 950.845 274.845C953.206 277.461 958.047 274.813 960.919 274.832C964.774 274.859 968.841 275.422 972.529 273.245C978.204 269.896 970.596 269.726 967.114 269.991Z" fill="#F9E687"/>
<path d="M975.693 277.259C977.982 277.042 982.48 279.137 982.854 276.019L984.017 274.759C984.561 274.688 984.884 274.798 985.067 274.27C983.663 272.779 980.889 274.366 979.222 274.386C976.985 274.411 974.619 274.128 972.508 275.429C969.26 277.431 973.677 277.449 975.693 277.259Z" fill="#F9E687"/>
<path d="M1065.5 258.71C1063.52 258.859 1059.68 256.978 1059.29 259.667L1058.26 260.737C1057.79 260.789 1057.51 260.689 1057.35 261.142C1058.53 262.453 1060.96 261.126 1062.4 261.136C1064.33 261.149 1066.37 261.431 1068.21 260.34C1071.06 258.662 1067.25 258.577 1065.5 258.71Z" fill="#F9E687"/>
<path d="M1076.35 273.121C1074.37 273.133 1070.7 270.984 1070.09 273.641L1068.97 274.638C1068.49 274.657 1068.23 274.538 1068.02 274.978C1069.08 276.37 1071.62 275.215 1073.05 275.326C1074.97 275.475 1076.98 275.899 1078.91 274.939C1081.89 273.463 1078.1 273.111 1076.35 273.121Z" fill="#F9E687"/>
<path d="M1053.9 276.574C1051.91 276.586 1048.25 274.437 1047.64 277.095L1046.52 278.091C1046.04 278.11 1045.78 277.991 1045.57 278.431C1046.63 279.823 1049.16 278.669 1050.6 278.779C1052.52 278.928 1054.52 279.353 1056.46 278.393C1059.44 276.916 1055.65 276.564 1053.9 276.574Z" fill="#F9E687"/>
<path d="M1057.67 265.928C1057.47 264.956 1055.99 264.74 1055.56 264.084C1054.98 263.177 1055.08 262.102 1054.49 261.262C1052.96 259.097 1052.7 259.122 1050.85 260.951C1049.98 261.816 1050.28 262.932 1048.81 263.727C1048.26 264.024 1047.22 263.677 1046.59 263.935C1044.65 264.732 1043.06 265.528 1043.93 267.234L1046.04 269.67C1045.01 269.821 1046.28 271.121 1047.77 271.332C1050.62 271.736 1049.57 269.825 1051.44 269.025C1053.42 268.181 1058.44 269.744 1057.67 265.928Z" fill="#F9E687"/>
<path d="M988.621 273.506C988.424 272.534 986.942 272.318 986.518 271.662C985.933 270.755 986.031 269.68 985.441 268.841C983.919 266.675 983.659 266.7 981.809 268.529C980.932 269.394 981.236 270.51 979.768 271.305C979.218 271.602 978.17 271.255 977.543 271.513C975.602 272.31 974.016 273.106 974.89 274.812L976.997 277.248C975.971 277.399 977.238 278.699 978.727 278.91C981.577 279.314 980.53 277.403 982.4 276.602C984.371 275.759 989.394 277.323 988.621 273.506Z" fill="#F9E687"/>
<path d="M1026.3 276.451C1026.1 275.479 1024.62 275.264 1024.19 274.607C1023.61 273.7 1023.71 272.626 1023.12 271.786C1021.6 269.62 1021.34 269.645 1019.48 271.474C1018.61 272.339 1018.91 273.456 1017.44 274.25C1016.89 274.547 1015.85 274.2 1015.22 274.458C1013.28 275.255 1011.69 276.051 1012.56 277.757L1014.67 280.193C1013.65 280.344 1014.91 281.645 1016.4 281.855C1019.25 282.259 1018.2 280.347 1020.07 279.548C1022.05 278.705 1027.07 280.267 1026.3 276.451Z" fill="#F9E687"/>
<path d="M1106.93 262.783C1107.45 262.342 1107.08 261.542 1107.34 261.102C1107.69 260.495 1108.37 260.162 1108.68 259.575C1109.48 258.064 1109.38 257.946 1107.65 257.689C1106.83 257.567 1106.25 258.112 1105.28 257.676C1104.91 257.512 1104.77 256.877 1104.4 256.662C1103.27 255.997 1102.25 255.504 1101.51 256.535L1100.74 258.428C1100.3 257.981 1099.94 259.06 1100.32 259.863C1101.03 261.399 1101.84 260.21 1102.95 260.84C1104.13 261.503 1104.87 264.513 1106.93 262.783Z" fill="#F9E687"/>
<path d="M1127.09 256.19C1127.47 255.871 1127.2 255.293 1127.38 254.974C1127.64 254.536 1128.13 254.295 1128.36 253.871C1128.94 252.78 1128.86 252.695 1127.61 252.51C1127.02 252.423 1126.6 252.816 1125.9 252.5C1125.63 252.382 1125.53 251.924 1125.26 251.768C1124.44 251.286 1123.71 250.93 1123.17 251.677L1122.62 253.044C1122.3 252.721 1122.04 253.501 1122.31 254.08C1122.83 255.189 1123.41 254.332 1124.22 254.786C1125.07 255.266 1125.61 257.44 1127.09 256.19Z" fill="#F9E687"/>
<path d="M1028.27 265.62C1027.32 267.019 1026.99 266.307 1025.95 266.137C1025.81 266.114 1025.22 265.395 1024.82 265.277C1024.4 265.155 1023.89 265.883 1023.53 265.79C1022.56 265.535 1022.34 264.429 1021.29 264.599C1020.1 264.793 1018.38 268.083 1018.77 268.853L1017.27 269.158C1016.26 269.041 1016.43 269.475 1016.01 269.837C1016.38 269.519 1015.17 271.646 1015.21 270.899C1015.15 271.963 1016.41 273.903 1017.69 272.456C1018.07 273.261 1021.27 272.81 1022.27 272.447C1023.55 271.98 1023.68 271.156 1024.54 270.565C1026.78 269.034 1029.64 268.999 1028.27 265.62Z" fill="#F9E687"/>
<path d="M1004.56 269.472C1003.61 270.871 1003.29 270.159 1002.25 269.989C1002.11 269.966 1001.52 269.246 1001.12 269.129C1000.7 269.007 1000.19 269.735 999.829 269.642C998.854 269.387 998.634 268.28 997.587 268.451C996.396 268.645 994.672 271.935 995.067 272.703L993.568 273.009C992.558 272.892 992.727 273.326 992.311 273.688C992.678 273.37 991.465 275.497 991.509 274.75C991.448 275.813 992.706 277.754 993.982 276.306C994.367 277.111 997.569 276.662 998.566 276.299C999.85 275.831 999.974 275.006 1000.84 274.416C1003.08 272.887 1005.93 272.849 1004.56 269.472Z" fill="#F9E687"/>
<path d="M1096.36 260.574C1095.41 261.972 1095.08 261.26 1094.04 261.09C1093.9 261.067 1093.31 260.348 1092.91 260.231C1092.49 260.108 1091.98 260.836 1091.62 260.743C1090.65 260.488 1090.43 259.382 1089.38 259.552C1088.19 259.746 1086.47 263.036 1086.86 263.806L1085.36 264.112C1084.35 263.994 1084.52 264.428 1084.1 264.79C1084.47 264.472 1083.26 266.599 1083.3 265.852C1083.24 266.916 1084.5 268.856 1085.78 267.409C1086.16 268.214 1089.36 267.763 1090.36 267.4C1091.64 266.933 1091.77 266.109 1092.63 265.518C1094.87 263.987 1097.73 263.952 1096.36 260.574Z" fill="#F9E687"/>
<path d="M1107.65 271.195C1106.7 272.593 1106.38 271.882 1105.34 271.712C1105.2 271.688 1104.61 270.969 1104.2 270.852C1103.79 270.729 1103.28 271.457 1102.92 271.364C1101.94 271.109 1101.72 270.003 1100.68 270.173C1099.49 270.367 1097.76 273.657 1098.16 274.427L1096.66 274.733C1095.65 274.615 1095.82 275.049 1095.4 275.411C1095.77 275.093 1094.56 277.22 1094.6 276.473C1094.54 277.537 1095.8 279.477 1097.07 278.03C1097.46 278.835 1100.66 278.384 1101.66 278.021C1102.94 277.554 1103.06 276.73 1103.93 276.139C1106.17 274.608 1109.02 274.572 1107.65 271.195Z" fill="#F9E687"/>
<path d="M308.191 148.399C308.157 149.8 306.328 149.275 305.33 149.571C304.241 149.894 303.633 150.86 302.287 150.755C301.225 150.673 301.113 150.183 300.206 149.843C298.662 149.265 298.542 149.859 298.383 148.03L299.103 147.428C299.618 147.375 300.324 146.684 300.858 146.369C301.745 145.848 302.494 145.571 303.556 145.698C305.352 145.912 304.553 146.636 305.546 147.326C306.385 147.91 308.229 146.819 308.191 148.399Z" fill="#F9E687"/>
<path d="M289.476 143.348C289.442 144.749 287.614 144.224 286.615 144.521C285.526 144.843 284.919 145.81 283.572 145.705C282.51 145.622 282.398 145.132 281.491 144.792C279.947 144.214 279.827 144.808 279.668 142.979L280.387 142.377C280.903 142.323 281.608 141.633 282.143 141.318C283.029 140.797 283.778 140.519 284.84 140.646C286.636 140.861 285.837 141.585 286.83 142.275C287.67 142.859 289.515 141.768 289.476 143.348Z" fill="#F9E687"/>
<path d="M352.722 143.129C352.693 144.304 351.159 143.863 350.322 144.112C349.408 144.383 348.899 145.193 347.77 145.106C346.879 145.037 346.785 144.626 346.024 144.34C344.729 143.855 344.628 144.353 344.495 142.82L345.098 142.315C345.531 142.27 346.123 141.69 346.571 141.427C347.314 140.99 347.942 140.757 348.833 140.863C350.339 141.043 349.67 141.65 350.502 142.23C351.207 142.719 352.754 141.804 352.722 143.129Z" fill="#F9E687"/>
<path d="M369.687 141.871C369.658 143.047 368.124 142.605 367.287 142.854C366.373 143.125 365.864 143.935 364.735 143.848C363.843 143.779 363.75 143.368 362.989 143.083C361.694 142.597 361.593 143.095 361.46 141.562L362.063 141.057C362.495 141.012 363.087 140.432 363.535 140.169C364.279 139.732 364.907 139.499 365.797 139.605C367.304 139.786 366.635 140.392 367.467 140.972C368.171 141.462 369.719 140.546 369.687 141.871Z" fill="#F9E687"/>
<path d="M288.632 151.228C286.448 151.386 282.566 154.061 281.709 151.193L280.412 150.193C279.89 150.214 279.605 150.367 279.348 149.901C280.424 148.279 283.286 149.331 284.852 149.087C286.957 148.759 289.133 148.12 291.325 149.009C294.699 150.377 290.557 151.089 288.632 151.228Z" fill="#F9E687"/>
<path d="M257.845 151.658C255.661 151.815 251.778 154.491 250.922 151.623L249.626 150.623C249.104 150.643 248.818 150.797 248.561 150.331C249.638 148.709 252.499 149.761 254.066 149.517C256.17 149.189 258.346 148.55 260.539 149.439C263.912 150.806 259.769 151.519 257.845 151.658Z" fill="#F9E687"/>
<path d="M266.159 151.044C263.975 151.202 260.093 153.878 259.236 151.009L257.94 150.01C257.418 150.03 257.132 150.184 256.875 149.718C257.952 148.096 260.813 149.148 262.38 148.904C264.485 148.575 266.661 147.937 268.853 148.826C272.226 150.193 268.083 150.905 266.159 151.044Z" fill="#F9E687"/>
<path d="M270.256 146.373C271.524 146.305 273.811 144.794 274.269 146.467L275.007 147.061C275.311 147.055 275.478 146.969 275.621 147.242C274.975 148.172 273.33 147.531 272.418 147.656C271.194 147.824 269.924 148.171 268.665 147.632C266.727 146.803 269.139 146.433 270.256 146.373Z" fill="#F9E687"/>
<path d="M320.833 149.195C319.739 149.274 317.793 150.615 317.363 149.178L316.714 148.677C316.452 148.687 316.309 148.764 316.18 148.53C316.72 147.718 318.154 148.245 318.939 148.122C319.994 147.958 321.085 147.638 322.183 148.083C323.874 148.768 321.798 149.125 320.833 149.195Z" fill="#F9E687"/>
<path d="M325.587 140.436C324.501 140.592 322.675 142.064 322.122 140.662L321.429 140.209C321.169 140.237 321.033 140.324 320.884 140.1C321.352 139.253 322.83 139.678 323.603 139.501C324.641 139.263 325.702 138.868 326.838 139.234C328.585 139.798 326.544 140.299 325.587 140.436Z" fill="#F9E687"/>
<path d="M313.04 140.378C311.954 140.533 310.129 142.005 309.575 140.604L308.883 140.15C308.622 140.179 308.486 140.265 308.338 140.042C308.805 139.194 310.283 139.619 311.056 139.442C312.095 139.204 313.155 138.809 314.291 139.176C316.038 139.74 313.997 140.241 313.04 140.378Z" fill="#F9E687"/>
<path d="M315.965 145.889C315.936 146.437 315.144 146.675 314.966 147.068C314.721 147.611 314.861 148.191 314.607 148.697C313.952 150.005 313.808 150.012 312.647 149.164C312.098 148.763 312.174 148.128 311.307 147.813C310.982 147.696 310.438 147.971 310.073 147.881C308.948 147.604 308.016 147.297 308.355 146.294L309.308 144.792C308.735 144.793 309.321 143.979 310.117 143.743C311.642 143.29 311.226 144.419 312.312 144.704C313.459 145.005 316.076 143.741 315.965 145.889Z" fill="#F9E687"/>
<path d="M277.625 147.37C277.596 147.917 276.804 148.156 276.626 148.549C276.38 149.092 276.521 149.671 276.267 150.178C275.612 151.485 275.468 151.493 274.308 150.644C273.759 150.243 273.834 149.608 272.967 149.294C272.642 149.176 272.098 149.451 271.734 149.361C270.609 149.084 269.678 148.778 270.016 147.775L270.969 146.272C270.396 146.273 270.983 145.46 271.779 145.223C273.303 144.77 272.887 145.9 273.974 146.185C275.119 146.485 277.736 145.221 277.625 147.37Z" fill="#F9E687"/>
<path d="M297.969 142.694C297.94 143.241 297.148 143.48 296.97 143.873C296.725 144.416 296.865 144.995 296.611 145.502C295.956 146.809 295.812 146.817 294.651 145.968C294.102 145.567 294.177 144.932 293.31 144.618C292.985 144.5 292.442 144.775 292.077 144.685C290.953 144.408 290.021 144.102 290.36 143.099L291.312 141.597C290.74 141.598 291.326 140.784 292.122 140.548C293.646 140.095 293.23 141.224 294.316 141.509C295.463 141.809 298.08 140.546 297.969 142.694Z" fill="#F9E687"/>
<path d="M343.133 143.596C343.455 143.795 343.318 144.262 343.494 144.481C343.736 144.784 344.138 144.911 344.355 145.206C344.915 145.966 344.869 146.039 343.943 146.321C343.505 146.454 343.147 146.203 342.65 146.521C342.463 146.64 342.437 146.999 342.253 147.146C341.687 147.602 341.171 147.954 340.683 147.451L340.11 146.479C339.907 146.759 339.622 146.199 339.76 145.73C340.027 144.832 340.564 145.416 341.121 144.981C341.709 144.523 341.871 142.818 343.133 143.596Z" fill="#F9E687"/>
<path d="M354.686 145.554C354.919 145.698 354.82 146.035 354.947 146.194C355.122 146.413 355.412 146.505 355.569 146.718C355.973 147.267 355.939 147.32 355.271 147.523C354.955 147.618 354.696 147.438 354.336 147.667C354.201 147.753 354.182 148.012 354.05 148.119C353.64 148.449 353.268 148.703 352.915 148.339L352.501 147.637C352.355 147.84 352.149 147.435 352.249 147.096C352.441 146.448 352.829 146.869 353.232 146.555C353.658 146.224 353.775 144.992 354.686 145.554Z" fill="#F9E687"/>
<path d="M299.927 148.451C299.294 147.764 299.172 148.18 298.62 148.357C298.544 148.381 298.28 148.823 298.071 148.919C297.852 149.02 297.514 148.664 297.326 148.744C296.814 148.963 296.784 149.585 296.199 149.577C295.532 149.568 294.322 147.911 294.475 147.458L293.632 147.414C293.089 147.56 293.146 147.309 292.889 147.145C293.115 147.289 292.279 146.226 292.364 146.63C292.244 146.054 292.773 144.892 293.589 145.578C293.733 145.107 295.519 145.093 296.094 145.21C296.833 145.361 296.968 145.801 297.489 146.053C298.837 146.707 300.399 146.494 299.927 148.451Z" fill="#F9E687"/>
<path d="M286.663 148.275C286.03 147.588 285.908 148.004 285.356 148.181C285.28 148.206 285.016 148.647 284.807 148.743C284.588 148.844 284.25 148.488 284.062 148.568C283.55 148.787 283.52 149.409 282.934 149.402C282.268 149.393 281.058 147.735 281.211 147.283L280.367 147.238C279.825 147.384 279.882 147.134 279.625 146.97C279.851 147.114 279.016 146.05 279.1 146.455C278.98 145.879 279.509 144.716 280.325 145.403C280.469 144.932 282.256 144.917 282.83 145.034C283.569 145.185 283.705 145.625 284.225 145.878C285.574 146.53 287.136 146.319 286.663 148.275Z" fill="#F9E687"/>
<path d="M337.54 145.662C336.907 144.975 336.785 145.391 336.233 145.568C336.157 145.592 335.894 146.034 335.684 146.13C335.465 146.231 335.127 145.875 334.938 145.955C334.427 146.174 334.397 146.796 333.811 146.788C333.145 146.779 331.935 145.122 332.088 144.669L331.244 144.624C330.702 144.771 330.759 144.52 330.502 144.356C330.728 144.5 329.893 143.437 329.978 143.841C329.857 143.265 330.387 142.103 331.202 142.789C331.346 142.318 333.132 142.304 333.707 142.421C334.447 142.571 334.582 143.012 335.102 143.264C336.451 143.918 338.012 143.705 337.54 145.662Z" fill="#F9E687"/>
<path d="M342.846 138.939C342.213 138.252 342.092 138.668 341.539 138.845C341.463 138.87 341.2 139.311 340.99 139.408C340.771 139.508 340.434 139.152 340.245 139.232C339.734 139.451 339.703 140.073 339.118 140.066C338.451 140.057 337.241 138.399 337.394 137.947L336.551 137.902C336.008 138.049 336.065 137.797 335.809 137.633C336.035 137.777 335.199 136.714 335.284 137.118C335.164 136.542 335.694 135.38 336.508 136.067C336.652 135.596 338.439 135.581 339.013 135.698C339.754 135.849 339.888 136.289 340.409 136.541C341.758 137.195 343.319 136.983 342.846 138.939Z" fill="#F9E687"/>
<path d="M871.058 64.9268C870.623 62.4271 867.489 63.8557 865.622 63.5919C863.587 63.3041 862.24 61.7371 859.857 62.2832C857.978 62.7143 857.908 63.6212 856.376 64.4719C853.764 65.9197 853.391 64.8895 853.594 68.2062L855.042 69.0913C855.981 69.0498 857.427 70.0987 858.468 70.5191C860.194 71.2152 861.609 71.5126 863.477 71.0019C866.635 70.1382 865.013 69.0556 866.605 67.5542C867.955 66.283 871.55 67.7451 871.058 64.9268Z" fill="#F9E687"/>
<path d="M952.197 62.4744C951.833 60.3781 949.202 61.5767 947.637 61.3542C945.929 61.1132 944.801 59.7984 942.802 60.2571C941.225 60.6191 941.167 61.3801 939.881 62.0927C937.692 63.3073 937.378 62.4429 937.548 65.2252L938.763 65.9675C939.551 65.9325 940.764 66.8126 941.638 67.165C943.085 67.7499 944.272 67.9986 945.838 67.5701C948.488 66.8452 947.126 65.9379 948.462 64.678C949.594 63.612 952.609 64.8384 952.197 62.4744Z" fill="#F9E687"/>
<path d="M835.282 65.0806C831.329 65.3811 823.663 61.627 822.895 66.9912L820.841 69.1273C819.9 69.2307 819.348 69.0313 819.013 69.9354C821.374 72.5515 826.216 69.9037 829.088 69.9237C832.943 69.9504 837.009 70.5124 840.697 68.3364C846.372 64.9862 838.765 64.8168 835.282 65.0806Z" fill="#F9E687"/>
<path d="M803.672 78.6757C805.961 78.4602 810.457 80.5542 810.833 77.4359L811.996 76.1758C812.54 76.1065 812.863 76.2154 813.045 75.6883C811.641 74.1967 808.867 75.7839 807.201 75.8026C804.964 75.8281 802.597 75.5462 800.487 76.8466C797.24 78.8485 801.656 78.8663 803.672 78.6757Z" fill="#F9E687"/>
<path d="M893.481 60.1274C891.5 60.278 887.657 58.3956 887.272 61.0844L886.243 62.1558C885.772 62.2067 885.496 62.1074 885.327 62.5605C886.51 63.8712 888.938 62.5445 890.376 62.5548C892.309 62.5687 894.347 62.8497 896.195 61.7586C899.039 60.0793 895.226 59.9943 893.481 60.1274Z" fill="#F9E687"/>
<path d="M904.331 74.5393C902.345 74.5508 898.683 72.4025 898.066 75.0588L896.948 76.0556C896.475 76.0738 896.207 75.9552 896.001 76.3951C897.065 77.7876 899.597 76.6328 901.029 76.7436C902.951 76.892 904.956 77.3168 906.892 76.3567C909.87 74.8825 906.081 74.5302 904.331 74.5393Z" fill="#F9E687"/>
<path d="M885.646 67.3426C885.449 66.3695 883.968 66.1537 883.544 65.4977C882.96 64.5916 883.057 63.5163 882.466 62.6761C880.945 60.5103 880.685 60.5361 878.834 62.3645C877.958 63.2291 878.263 64.3458 876.793 65.1404C876.243 65.4384 875.195 65.0904 874.568 65.3484C872.627 66.146 871.041 66.9427 871.915 68.6485L874.022 71.0842C872.997 71.2351 874.262 72.5359 875.752 72.7463C878.603 73.1505 877.555 71.2395 879.425 70.4386C881.396 69.5957 886.421 71.1595 885.646 67.3426Z" fill="#F9E687"/>
<path d="M934.905 64.2014C935.428 63.7604 935.059 62.959 935.314 62.5201C935.666 61.9132 936.352 61.5799 936.662 60.9928C937.462 59.4819 937.36 59.3641 935.627 59.1072C934.807 58.9865 934.233 59.5304 933.257 59.0939C932.891 58.9302 932.749 58.2963 932.38 58.0804C931.243 57.4146 930.226 56.9222 929.486 57.9536L928.72 59.8455C928.281 59.3982 927.92 60.4772 928.294 61.2802C929.01 62.8162 929.815 61.6276 930.93 62.2577C932.107 62.9215 932.852 65.9315 934.905 64.2014Z" fill="#F9E687"/>
<path d="M955.068 57.6071C955.446 57.2883 955.179 56.7103 955.363 56.3927C955.619 55.9547 956.113 55.7132 956.338 55.2897C956.916 54.1982 956.841 54.1131 955.59 53.9281C954.999 53.84 954.583 54.2328 953.878 53.9184C953.614 53.8005 953.511 53.3423 953.245 53.1862C952.424 52.7045 951.688 52.3484 951.154 53.0942L950.601 54.4616C950.285 54.138 950.023 54.9178 950.293 55.4973C950.811 56.6067 951.392 55.748 952.198 56.2036C953.048 56.6831 953.585 58.8573 955.068 57.6071Z" fill="#F9E687"/>
<path d="M856.248 67.0384C855.298 68.4371 854.969 67.7253 853.933 67.5552C853.791 67.5321 853.201 66.8125 852.8 66.6963C852.382 66.5739 851.871 67.3021 851.512 67.208C850.538 66.9538 850.318 65.8468 849.272 66.0169C848.081 66.2108 846.357 69.5011 846.752 70.2706L845.253 70.5763C844.243 70.4594 844.412 70.893 843.995 71.2551C844.363 70.9379 843.15 73.064 843.193 72.3172C843.132 73.3806 844.39 75.3208 845.666 73.8737C846.05 74.6787 849.253 74.2279 850.25 73.865C851.535 73.3975 851.658 72.5727 852.524 71.9828C854.763 70.4522 857.616 70.4156 856.248 67.0384Z" fill="#F9E687"/>
<path d="M832.541 70.8861C831.591 72.2848 831.263 71.5729 830.226 71.4029C830.084 71.3797 829.494 70.6602 829.093 70.5431C828.675 70.4207 828.164 71.1488 827.805 71.0557C826.831 70.8006 826.61 69.6944 825.564 69.8646C824.373 70.0595 822.65 73.3488 823.045 74.1183L821.546 74.4239C820.536 74.3061 820.706 74.7406 820.289 75.1027C820.655 74.7846 819.443 76.9117 819.486 76.1649C819.425 77.2283 820.683 79.1685 821.959 77.7214C822.343 78.5263 825.546 78.0756 826.543 77.7127C827.827 77.2452 827.951 76.4213 828.817 75.8305C831.056 74.3008 833.909 74.2642 832.541 70.8861Z" fill="#F9E687"/>
<path d="M924.338 61.9916C923.387 63.3902 923.06 62.6784 922.023 62.5083C921.88 62.4852 921.291 61.7657 920.89 61.6495C920.471 61.5271 919.961 62.2552 919.602 62.1611C918.628 61.9069 918.407 60.7999 917.361 60.9701C916.17 61.164 914.446 64.4543 914.841 65.2238L913.342 65.5295C912.332 65.4126 912.501 65.8462 912.084 66.2083C912.451 65.8911 911.239 68.0172 911.282 67.2704C911.221 68.3338 912.479 70.274 913.755 68.8269C914.14 69.6318 917.341 69.1812 918.339 68.8182C919.624 68.3507 919.747 67.5259 920.613 66.936C922.853 65.4053 925.706 65.3687 924.338 61.9916Z" fill="#F9E687"/>
</g>
<defs>
<clipPath id="clip0_485_454">
<rect width="1500" height="333" fill="white"/>
</clipPath>
</defs>
</svg>
