<svg width="846" height="1222" viewBox="0 0 846 1222" fill="none" xmlns="http://www.w3.org/2000/svg">
<g filter="url(#filter0_d_548_1060)">
<mask id="path-1-inside-1_548_1060" fill="white">
<path fill-rule="evenodd" clip-rule="evenodd" d="M830.552 0.000188463L816.814 26.2881L803.077 0.000188463L789.339 26.2881L775.601 0.000188463L761.864 26.2881L748.126 -4.51264e-05L734.388 26.2881L721.108 0.876382L707.828 26.2881L694.549 0.876382L681.269 26.2881L667.531 0.000188463L653.793 26.2881L640.056 0.000188463L626.318 26.2881L612.58 7.16683e-05L598.843 26.2881L585.105 7.16683e-05L571.367 26.2881L558.087 0.876382L544.808 26.2881L531.528 0.876382L518.248 26.2881L504.968 0.876498L491.689 26.2881L477.951 8.01315e-05L464.213 26.2881L450.475 0.000196926L436.738 26.2881L423 8.01315e-05L409.262 26.2881L395.525 8.01315e-05L381.787 26.2881L368.049 0.000196926L354.311 26.2881L341.032 0.87639L327.752 26.2881L314.472 0.87639L301.192 26.2881L287.455 8.01315e-05L273.717 26.2881L259.979 0.000186652L246.242 26.2881L232.504 6.55787e-05L218.766 26.2881L205.028 0.000182373L191.291 26.2881L178.011 0.876376L164.731 26.2881L151.451 0.876376L138.172 26.2881L124.892 0.876376L111.612 26.2881L97.8744 0.000182373L84.1367 26.2881L70.399 6.55671e-05L56.6612 26.2881L42.9235 7.02748e-05L29.1858 26.2881L15.4481 0.00018434L4 21.9069V1192.09L15.4481 1214L29.1858 1187.71L42.9235 1214L56.6612 1187.71L70.399 1214L84.1367 1187.71L97.8744 1214L111.612 1187.71L124.892 1213.12L138.172 1187.71L151.451 1213.12L164.731 1187.71L178.011 1213.12L191.291 1187.71L205.028 1214L218.766 1187.71L232.504 1214L246.242 1187.71L259.979 1214L273.717 1187.71L287.455 1214L301.192 1187.71L314.472 1213.12L327.752 1187.71L341.032 1213.12L354.311 1187.71L368.049 1214L381.787 1187.71L395.525 1214L409.262 1187.71L423 1214L436.738 1187.71L450.475 1214L464.213 1187.71L477.951 1214L491.689 1187.71L504.968 1213.12L518.248 1187.71L531.528 1213.12L544.808 1187.71L558.087 1213.12L571.367 1187.71L585.105 1214L598.843 1187.71L612.58 1214L626.318 1187.71L640.056 1214L653.793 1187.71L667.531 1214L681.269 1187.71L694.549 1213.12L707.828 1187.71L721.108 1213.12L734.388 1187.71L748.126 1214L761.864 1187.71L775.601 1214L789.339 1187.71L803.077 1214L816.814 1187.71L830.552 1214L842 1192.09V21.9069L830.552 0.000188463Z"/>
</mask>
<path fill-rule="evenodd" clip-rule="evenodd" d="M830.552 0.000188463L816.814 26.2881L803.077 0.000188463L789.339 26.2881L775.601 0.000188463L761.864 26.2881L748.126 -4.51264e-05L734.388 26.2881L721.108 0.876382L707.828 26.2881L694.549 0.876382L681.269 26.2881L667.531 0.000188463L653.793 26.2881L640.056 0.000188463L626.318 26.2881L612.58 7.16683e-05L598.843 26.2881L585.105 7.16683e-05L571.367 26.2881L558.087 0.876382L544.808 26.2881L531.528 0.876382L518.248 26.2881L504.968 0.876498L491.689 26.2881L477.951 8.01315e-05L464.213 26.2881L450.475 0.000196926L436.738 26.2881L423 8.01315e-05L409.262 26.2881L395.525 8.01315e-05L381.787 26.2881L368.049 0.000196926L354.311 26.2881L341.032 0.87639L327.752 26.2881L314.472 0.87639L301.192 26.2881L287.455 8.01315e-05L273.717 26.2881L259.979 0.000186652L246.242 26.2881L232.504 6.55787e-05L218.766 26.2881L205.028 0.000182373L191.291 26.2881L178.011 0.876376L164.731 26.2881L151.451 0.876376L138.172 26.2881L124.892 0.876376L111.612 26.2881L97.8744 0.000182373L84.1367 26.2881L70.399 6.55671e-05L56.6612 26.2881L42.9235 7.02748e-05L29.1858 26.2881L15.4481 0.00018434L4 21.9069V1192.09L15.4481 1214L29.1858 1187.71L42.9235 1214L56.6612 1187.71L70.399 1214L84.1367 1187.71L97.8744 1214L111.612 1187.71L124.892 1213.12L138.172 1187.71L151.451 1213.12L164.731 1187.71L178.011 1213.12L191.291 1187.71L205.028 1214L218.766 1187.71L232.504 1214L246.242 1187.71L259.979 1214L273.717 1187.71L287.455 1214L301.192 1187.71L314.472 1213.12L327.752 1187.71L341.032 1213.12L354.311 1187.71L368.049 1214L381.787 1187.71L395.525 1214L409.262 1187.71L423 1214L436.738 1187.71L450.475 1214L464.213 1187.71L477.951 1214L491.689 1187.71L504.968 1213.12L518.248 1187.71L531.528 1213.12L544.808 1187.71L558.087 1213.12L571.367 1187.71L585.105 1214L598.843 1187.71L612.58 1214L626.318 1187.71L640.056 1214L653.793 1187.71L667.531 1214L681.269 1187.71L694.549 1213.12L707.828 1187.71L721.108 1213.12L734.388 1187.71L748.126 1214L761.864 1187.71L775.601 1214L789.339 1187.71L803.077 1214L816.814 1187.71L830.552 1214L842 1192.09V21.9069L830.552 0.000188463Z" fill="#FFF4E7"/>
<path d="M816.814 26.2881L815.928 26.7513L816.814 28.4472L817.701 26.7513L816.814 26.2881ZM830.552 0.000188463L831.438 -0.462967L830.552 -2.15891L829.666 -0.462967L830.552 0.000188463ZM803.077 0.000188463L803.963 -0.462967L803.077 -2.15891L802.19 -0.462967L803.077 0.000188463ZM789.339 26.2881L788.453 26.7513L789.339 28.4472L790.225 26.7513L789.339 26.2881ZM775.601 0.000188463L776.487 -0.462967L775.601 -2.15891L774.715 -0.462967L775.601 0.000188463ZM761.864 26.2881L760.977 26.7513L761.864 28.4472L762.75 26.7513L761.864 26.2881ZM748.126 -4.51264e-05L749.012 -0.4632L748.126 -2.15915L747.239 -0.4632L748.126 -4.51264e-05ZM734.388 26.2881L733.502 26.7513L734.388 28.4472L735.274 26.7513L734.388 26.2881ZM721.108 0.876382L721.994 0.413227L721.108 -1.28272L720.222 0.413227L721.108 0.876382ZM707.828 26.2881L706.942 26.7513L707.828 28.4472L708.715 26.7513L707.828 26.2881ZM694.549 0.876382L695.435 0.413227L694.549 -1.28272L693.662 0.413227L694.549 0.876382ZM681.269 26.2881L680.383 26.7513L681.269 28.4472L682.155 26.7513L681.269 26.2881ZM667.531 0.000188463L668.417 -0.462967L667.531 -2.15891L666.645 -0.462967L667.531 0.000188463ZM653.793 26.2881L652.907 26.7513L653.793 28.4472L654.68 26.7513L653.793 26.2881ZM640.056 0.000188463L640.942 -0.462967L640.056 -2.15891L639.169 -0.462967L640.056 0.000188463ZM626.318 26.2881L625.432 26.7513L626.318 28.4472L627.204 26.7513L626.318 26.2881ZM612.58 7.16683e-05L613.467 -0.463084L612.58 -2.15903L611.694 -0.463084L612.58 7.16683e-05ZM598.843 26.2881L597.956 26.7513L598.843 28.4472L599.729 26.7513L598.843 26.2881ZM585.105 7.16683e-05L585.991 -0.463084L585.105 -2.15903L584.219 -0.463084L585.105 7.16683e-05ZM571.367 26.2881L570.481 26.7513L571.367 28.4472L572.253 26.7513L571.367 26.2881ZM558.087 0.876382L558.974 0.413227L558.087 -1.28272L557.201 0.413227L558.087 0.876382ZM544.808 26.2881L543.921 26.7513L544.808 28.4472L545.694 26.7513L544.808 26.2881ZM531.528 0.876382L532.414 0.413227L531.528 -1.28272L530.642 0.413227L531.528 0.876382ZM518.248 26.2881L517.362 26.7513L518.248 28.4472L519.134 26.7513L518.248 26.2881ZM504.968 0.876498L505.855 0.413342L504.968 -1.2826L504.082 0.413342L504.968 0.876498ZM491.689 26.2881L490.802 26.7513L491.689 28.4472L492.575 26.7513L491.689 26.2881ZM477.951 8.01315e-05L478.837 -0.463075L477.951 -2.15902L477.065 -0.463075L477.951 8.01315e-05ZM464.213 26.2881L463.327 26.7513L464.213 28.4472L465.099 26.7513L464.213 26.2881ZM450.475 0.000196926L451.362 -0.462958L450.475 -2.15891L449.589 -0.462958L450.475 0.000196926ZM436.738 26.2881L435.851 26.7513L436.738 28.4472L437.624 26.7513L436.738 26.2881ZM423 8.01315e-05L423.886 -0.463075L423 -2.15902L422.114 -0.463075L423 8.01315e-05ZM409.262 26.2881L408.376 26.7513L409.262 28.4472L410.149 26.7513L409.262 26.2881ZM395.525 8.01315e-05L396.411 -0.463075L395.525 -2.15902L394.638 -0.463075L395.525 8.01315e-05ZM381.787 26.2881L380.901 26.7513L381.787 28.4472L382.673 26.7513L381.787 26.2881ZM368.049 0.000196926L368.935 -0.462958L368.049 -2.15891L367.163 -0.462958L368.049 0.000196926ZM354.311 26.2881L353.425 26.7513L354.311 28.4472L355.198 26.7513L354.311 26.2881ZM341.032 0.87639L341.918 0.413235L341.032 -1.28271L340.145 0.413235L341.032 0.87639ZM327.752 26.2881L326.866 26.7513L327.752 28.4472L328.638 26.7513L327.752 26.2881ZM314.472 0.87639L315.358 0.413235L314.472 -1.28271L313.586 0.413235L314.472 0.87639ZM301.192 26.2881L300.306 26.7513L301.192 28.4472L302.079 26.7513L301.192 26.2881ZM287.455 8.01315e-05L288.341 -0.463075L287.455 -2.15902L286.568 -0.463075L287.455 8.01315e-05ZM273.717 26.2881L272.831 26.7513L273.717 28.4472L274.603 26.7513L273.717 26.2881ZM259.979 0.000186652L260.866 -0.462968L259.979 -2.15892L259.093 -0.462969L259.979 0.000186652ZM246.242 26.2881L245.355 26.7513L246.242 28.4472L247.128 26.7513L246.242 26.2881ZM232.504 6.55787e-05L233.39 -0.46309L232.504 -2.15904L231.618 -0.46309L232.504 6.55787e-05ZM218.766 26.2881L217.88 26.7513L218.766 28.4472L219.652 26.7513L218.766 26.2881ZM205.028 0.000182373L205.915 -0.462973L205.028 -2.15892L204.142 -0.462973L205.028 0.000182373ZM191.291 26.2881L190.404 26.7513L191.291 28.4472L192.177 26.7513L191.291 26.2881ZM178.011 0.876376L178.897 0.413221L178.011 -1.28273L177.125 0.413221L178.011 0.876376ZM164.731 26.2881L163.845 26.7513L164.731 28.4472L165.617 26.7513L164.731 26.2881ZM151.451 0.876376L152.338 0.413221L151.451 -1.28273L150.565 0.413221L151.451 0.876376ZM138.172 26.2881L137.285 26.7513L138.172 28.4472L139.058 26.7513L138.172 26.2881ZM124.892 0.876376L125.778 0.413221L124.892 -1.28273L124.006 0.413221L124.892 0.876376ZM111.612 26.2881L110.726 26.7513L111.612 28.4472L112.498 26.7513L111.612 26.2881ZM97.8744 0.000182373L98.7607 -0.462973L97.8744 -2.15892L96.9881 -0.462973L97.8744 0.000182373ZM84.1367 26.2881L83.2504 26.7513L84.1367 28.4472L85.023 26.7513L84.1367 26.2881ZM70.399 6.55671e-05L71.2852 -0.46309L70.399 -2.15904L69.5127 -0.46309L70.399 6.55671e-05ZM56.6612 26.2881L55.775 26.7513L56.6612 28.4472L57.5475 26.7513L56.6612 26.2881ZM42.9235 7.02748e-05L43.8098 -0.463085L42.9235 -2.15903L42.0372 -0.463085L42.9235 7.02748e-05ZM29.1858 26.2881L28.2995 26.7513L29.1858 28.4472L30.072 26.7513L29.1858 26.2881ZM15.4481 0.00018434L16.3344 -0.462971L15.4481 -2.15892L14.5618 -0.462971L15.4481 0.00018434ZM4 21.9069L3.11372 21.4437L3 21.6613V21.9069H4ZM4 1192.09H3V1192.34L3.11372 1192.56L4 1192.09ZM15.4481 1214L14.5618 1214.46L15.4481 1216.16L16.3344 1214.46L15.4481 1214ZM29.1858 1187.71L30.0721 1187.25L29.1858 1185.55L28.2995 1187.25L29.1858 1187.71ZM42.9235 1214L42.0372 1214.46L42.9235 1216.16L43.8098 1214.46L42.9235 1214ZM56.6612 1187.71L57.5475 1187.25L56.6612 1185.55L55.775 1187.25L56.6612 1187.71ZM70.399 1214L69.5127 1214.46L70.399 1216.16L71.2852 1214.46L70.399 1214ZM84.1367 1187.71L85.023 1187.25L84.1367 1185.55L83.2504 1187.25L84.1367 1187.71ZM97.8744 1214L96.9881 1214.46L97.8744 1216.16L98.7606 1214.46L97.8744 1214ZM111.612 1187.71L112.498 1187.25L111.612 1185.55L110.726 1187.25L111.612 1187.71ZM124.892 1213.12L124.006 1213.59L124.892 1215.28L125.778 1213.59L124.892 1213.12ZM138.172 1187.71L139.058 1187.25L138.172 1185.55L137.285 1187.25L138.172 1187.71ZM151.451 1213.12L150.565 1213.59L151.451 1215.28L152.338 1213.59L151.451 1213.12ZM164.731 1187.71L165.617 1187.25L164.731 1185.55L163.845 1187.25L164.731 1187.71ZM178.011 1213.12L177.125 1213.59L178.011 1215.28L178.897 1213.59L178.011 1213.12ZM191.291 1187.71L192.177 1187.25L191.291 1185.55L190.404 1187.25L191.291 1187.71ZM205.028 1214L204.142 1214.46L205.028 1216.16L205.915 1214.46L205.028 1214ZM218.766 1187.71L219.652 1187.25L218.766 1185.55L217.88 1187.25L218.766 1187.71ZM232.504 1214L231.618 1214.46L232.504 1216.16L233.39 1214.46L232.504 1214ZM246.242 1187.71L247.128 1187.25L246.242 1185.55L245.355 1187.25L246.242 1187.71ZM259.979 1214L259.093 1214.46L259.979 1216.16L260.866 1214.46L259.979 1214ZM273.717 1187.71L274.603 1187.25L273.717 1185.55L272.831 1187.25L273.717 1187.71ZM287.455 1214L286.568 1214.46L287.455 1216.16L288.341 1214.46L287.455 1214ZM301.192 1187.71L302.079 1187.25L301.192 1185.55L300.306 1187.25L301.192 1187.71ZM314.472 1213.12L313.586 1213.59L314.472 1215.28L315.358 1213.59L314.472 1213.12ZM327.752 1187.71L328.638 1187.25L327.752 1185.55L326.866 1187.25L327.752 1187.71ZM341.032 1213.12L340.145 1213.59L341.032 1215.28L341.918 1213.59L341.032 1213.12ZM354.311 1187.71L355.198 1187.25L354.311 1185.55L353.425 1187.25L354.311 1187.71ZM368.049 1214L367.163 1214.46L368.049 1216.16L368.935 1214.46L368.049 1214ZM381.787 1187.71L382.673 1187.25L381.787 1185.55L380.901 1187.25L381.787 1187.71ZM395.525 1214L394.638 1214.46L395.525 1216.16L396.411 1214.46L395.525 1214ZM409.262 1187.71L410.149 1187.25L409.262 1185.55L408.376 1187.25L409.262 1187.71ZM423 1214L422.114 1214.46L423 1216.16L423.886 1214.46L423 1214ZM436.738 1187.71L437.624 1187.25L436.738 1185.55L435.851 1187.25L436.738 1187.71ZM450.475 1214L449.589 1214.46L450.475 1216.16L451.362 1214.46L450.475 1214ZM464.213 1187.71L465.099 1187.25L464.213 1185.55L463.327 1187.25L464.213 1187.71ZM477.951 1214L477.065 1214.46L477.951 1216.16L478.837 1214.46L477.951 1214ZM491.689 1187.71L492.575 1187.25L491.689 1185.55L490.802 1187.25L491.689 1187.71ZM504.968 1213.12L504.082 1213.59L504.968 1215.28L505.855 1213.59L504.968 1213.12ZM518.248 1187.71L519.134 1187.25L518.248 1185.55L517.362 1187.25L518.248 1187.71ZM531.528 1213.12L530.642 1213.59L531.528 1215.28L532.414 1213.59L531.528 1213.12ZM544.808 1187.71L545.694 1187.25L544.808 1185.55L543.921 1187.25L544.808 1187.71ZM558.087 1213.12L557.201 1213.59L558.087 1215.28L558.974 1213.59L558.087 1213.12ZM571.367 1187.71L572.253 1187.25L571.367 1185.55L570.481 1187.25L571.367 1187.71ZM585.105 1214L584.219 1214.46L585.105 1216.16L585.991 1214.46L585.105 1214ZM598.843 1187.71L599.729 1187.25L598.843 1185.55L597.956 1187.25L598.843 1187.71ZM612.58 1214L611.694 1214.46L612.58 1216.16L613.467 1214.46L612.58 1214ZM626.318 1187.71L627.204 1187.25L626.318 1185.55L625.432 1187.25L626.318 1187.71ZM640.056 1214L639.169 1214.46L640.056 1216.16L640.942 1214.46L640.056 1214ZM653.793 1187.71L654.68 1187.25L653.793 1185.55L652.907 1187.25L653.793 1187.71ZM667.531 1214L666.645 1214.46L667.531 1216.16L668.417 1214.46L667.531 1214ZM681.269 1187.71L682.155 1187.25L681.269 1185.55L680.383 1187.25L681.269 1187.71ZM694.549 1213.12L693.662 1213.59L694.549 1215.28L695.435 1213.59L694.549 1213.12ZM707.828 1187.71L708.715 1187.25L707.828 1185.55L706.942 1187.25L707.828 1187.71ZM721.108 1213.12L720.222 1213.59L721.108 1215.28L721.994 1213.59L721.108 1213.12ZM734.388 1187.71L735.274 1187.25L734.388 1185.55L733.502 1187.25L734.388 1187.71ZM748.126 1214L747.239 1214.46L748.126 1216.16L749.012 1214.46L748.126 1214ZM761.864 1187.71L762.75 1187.25L761.864 1185.55L760.977 1187.25L761.864 1187.71ZM775.601 1214L774.715 1214.46L775.601 1216.16L776.487 1214.46L775.601 1214ZM789.339 1187.71L790.225 1187.25L789.339 1185.55L788.453 1187.25L789.339 1187.71ZM803.077 1214L802.19 1214.46L803.077 1216.16L803.963 1214.46L803.077 1214ZM816.814 1187.71L817.701 1187.25L816.814 1185.55L815.928 1187.25L816.814 1187.71ZM830.552 1214L829.666 1214.46L830.552 1216.16L831.438 1214.46L830.552 1214ZM842 1192.09L842.886 1192.56L843 1192.34V1192.09H842ZM842 21.9069H843V21.6614L842.886 21.4437L842 21.9069ZM817.701 26.7513L831.438 0.463344L829.666 -0.462967L815.928 25.8249L817.701 26.7513ZM802.19 0.463344L815.928 26.7513L817.701 25.8249L803.963 -0.462967L802.19 0.463344ZM790.225 26.7513L803.963 0.463344L802.19 -0.462967L788.453 25.8249L790.225 26.7513ZM774.715 0.463344L788.453 26.7513L790.225 25.8249L776.487 -0.462967L774.715 0.463344ZM762.75 26.7513L776.487 0.463344L774.715 -0.462967L760.977 25.8249L762.75 26.7513ZM747.239 0.46311L760.977 26.7513L762.75 25.8249L749.012 -0.4632L747.239 0.46311ZM735.274 26.7513L749.012 0.46311L747.239 -0.4632L733.502 25.8249L735.274 26.7513ZM720.222 1.33954L733.502 26.7513L735.274 25.8249L721.994 0.413227L720.222 1.33954ZM708.715 26.7513L721.994 1.33954L720.222 0.413227L706.942 25.8249L708.715 26.7513ZM693.662 1.33954L706.942 26.7513L708.715 25.8249L695.435 0.413227L693.662 1.33954ZM682.155 26.7513L695.435 1.33954L693.662 0.413227L680.383 25.8249L682.155 26.7513ZM666.645 0.463344L680.383 26.7513L682.155 25.8249L668.417 -0.462967L666.645 0.463344ZM654.68 26.7513L668.417 0.463344L666.645 -0.462967L652.907 25.8249L654.68 26.7513ZM639.169 0.463344L652.907 26.7513L654.68 25.8249L640.942 -0.462967L639.169 0.463344ZM627.204 26.7513L640.942 0.463344L639.169 -0.462967L625.432 25.8249L627.204 26.7513ZM611.694 0.463227L625.432 26.7513L627.204 25.8249L613.467 -0.463084L611.694 0.463227ZM599.729 26.7513L613.467 0.463227L611.694 -0.463084L597.956 25.8249L599.729 26.7513ZM584.219 0.463227L597.956 26.7513L599.729 25.8249L585.991 -0.463084L584.219 0.463227ZM572.253 26.7513L585.991 0.463227L584.219 -0.463084L570.481 25.8249L572.253 26.7513ZM557.201 1.33954L570.481 26.7513L572.253 25.8249L558.974 0.413227L557.201 1.33954ZM545.694 26.7513L558.974 1.33954L557.201 0.413227L543.921 25.8249L545.694 26.7513ZM530.642 1.33954L543.921 26.7513L545.694 25.8249L532.414 0.413227L530.642 1.33954ZM519.134 26.7513L532.414 1.33954L530.642 0.413227L517.362 25.8249L519.134 26.7513ZM504.082 1.33965L517.362 26.7513L519.134 25.8249L505.855 0.413342L504.082 1.33965ZM492.575 26.7513L505.855 1.33965L504.082 0.413342L490.802 25.8249L492.575 26.7513ZM477.065 0.463236L490.802 26.7513L492.575 25.8249L478.837 -0.463075L477.065 0.463236ZM465.099 26.7513L478.837 0.463236L477.065 -0.463075L463.327 25.8249L465.099 26.7513ZM449.589 0.463352L463.327 26.7513L465.099 25.8249L451.362 -0.462958L449.589 0.463352ZM437.624 26.7513L451.362 0.463352L449.589 -0.462958L435.851 25.8249L437.624 26.7513ZM422.114 0.463236L435.851 26.7513L437.624 25.8249L423.886 -0.463075L422.114 0.463236ZM410.149 26.7513L423.886 0.463236L422.114 -0.463075L408.376 25.8249L410.149 26.7513ZM394.638 0.463236L408.376 26.7513L410.149 25.8249L396.411 -0.463075L394.638 0.463236ZM382.673 26.7513L396.411 0.463236L394.638 -0.463075L380.901 25.8249L382.673 26.7513ZM367.163 0.463352L380.901 26.7513L382.673 25.8249L368.935 -0.462958L367.163 0.463352ZM355.198 26.7513L368.935 0.463352L367.163 -0.462958L353.425 25.8249L355.198 26.7513ZM340.145 1.33955L353.425 26.7513L355.198 25.8249L341.918 0.413235L340.145 1.33955ZM328.638 26.7513L341.918 1.33955L340.145 0.413235L326.866 25.8249L328.638 26.7513ZM313.586 1.33955L326.866 26.7513L328.638 25.8249L315.358 0.413235L313.586 1.33955ZM302.079 26.7513L315.358 1.33955L313.586 0.413235L300.306 25.8249L302.079 26.7513ZM286.568 0.463236L300.306 26.7513L302.079 25.8249L288.341 -0.463075L286.568 0.463236ZM274.603 26.7513L288.341 0.463236L286.568 -0.463075L272.831 25.8249L274.603 26.7513ZM259.093 0.463342L272.831 26.7513L274.603 25.8249L260.866 -0.462968L259.093 0.463342ZM247.128 26.7513L260.866 0.463342L259.093 -0.462969L245.355 25.8249L247.128 26.7513ZM231.618 0.463221L245.355 26.7513L247.128 25.8249L233.39 -0.46309L231.618 0.463221ZM219.652 26.7513L233.39 0.463221L231.618 -0.46309L217.88 25.8249L219.652 26.7513ZM204.142 0.463338L217.88 26.7513L219.652 25.8249L205.915 -0.462973L204.142 0.463338ZM192.177 26.7513L205.915 0.463338L204.142 -0.462973L190.404 25.8249L192.177 26.7513ZM177.125 1.33953L190.404 26.7513L192.177 25.8249L178.897 0.413221L177.125 1.33953ZM165.617 26.7513L178.897 1.33953L177.125 0.413221L163.845 25.8249L165.617 26.7513ZM150.565 1.33953L163.845 26.7513L165.617 25.8249L152.338 0.413221L150.565 1.33953ZM139.058 26.7513L152.338 1.33953L150.565 0.413221L137.285 25.8249L139.058 26.7513ZM124.006 1.33953L137.285 26.7513L139.058 25.8249L125.778 0.413221L124.006 1.33953ZM112.498 26.7513L125.778 1.33953L124.006 0.413221L110.726 25.8249L112.498 26.7513ZM96.9881 0.463338L110.726 26.7513L112.498 25.8249L98.7607 -0.462973L96.9881 0.463338ZM85.023 26.7513L98.7607 0.463338L96.9881 -0.462973L83.2504 25.8249L85.023 26.7513ZM69.5127 0.463221L83.2504 26.7513L85.023 25.8249L71.2852 -0.46309L69.5127 0.463221ZM57.5475 26.7513L71.2852 0.463221L69.5127 -0.46309L55.775 25.8249L57.5475 26.7513ZM42.0372 0.463225L55.775 26.7513L57.5475 25.8249L43.8098 -0.463085L42.0372 0.463225ZM30.072 26.7513L43.8098 0.463226L42.0372 -0.463085L28.2995 25.8249L30.072 26.7513ZM14.5618 0.46334L28.2995 26.7513L30.072 25.8249L16.3344 -0.462971L14.5618 0.46334ZM4.88628 22.37L16.3344 0.46334L14.5618 -0.462971L3.11372 21.4437L4.88628 22.37ZM5 1192.09V21.9069H3V1192.09H5ZM16.3344 1213.54L4.88628 1191.63L3.11372 1192.56L14.5618 1214.46L16.3344 1213.54ZM28.2995 1187.25L14.5618 1213.54L16.3344 1214.46L30.0721 1188.18L28.2995 1187.25ZM43.8098 1213.54L30.0721 1187.25L28.2995 1188.18L42.0372 1214.46L43.8098 1213.54ZM55.775 1187.25L42.0372 1213.54L43.8098 1214.46L57.5475 1188.18L55.775 1187.25ZM71.2852 1213.54L57.5475 1187.25L55.775 1188.18L69.5127 1214.46L71.2852 1213.54ZM83.2504 1187.25L69.5127 1213.54L71.2852 1214.46L85.023 1188.18L83.2504 1187.25ZM98.7606 1213.54L85.023 1187.25L83.2504 1188.18L96.9881 1214.46L98.7606 1213.54ZM110.726 1187.25L96.9881 1213.54L98.7606 1214.46L112.498 1188.18L110.726 1187.25ZM125.778 1212.66L112.498 1187.25L110.726 1188.18L124.006 1213.59L125.778 1212.66ZM137.285 1187.25L124.006 1212.66L125.778 1213.59L139.058 1188.18L137.285 1187.25ZM152.338 1212.66L139.058 1187.25L137.285 1188.18L150.565 1213.59L152.338 1212.66ZM163.845 1187.25L150.565 1212.66L152.338 1213.59L165.617 1188.18L163.845 1187.25ZM178.897 1212.66L165.617 1187.25L163.845 1188.18L177.125 1213.59L178.897 1212.66ZM190.404 1187.25L177.125 1212.66L178.897 1213.59L192.177 1188.18L190.404 1187.25ZM205.915 1213.54L192.177 1187.25L190.404 1188.18L204.142 1214.46L205.915 1213.54ZM217.88 1187.25L204.142 1213.54L205.915 1214.46L219.652 1188.18L217.88 1187.25ZM233.39 1213.54L219.652 1187.25L217.88 1188.18L231.618 1214.46L233.39 1213.54ZM245.355 1187.25L231.618 1213.54L233.39 1214.46L247.128 1188.18L245.355 1187.25ZM260.866 1213.54L247.128 1187.25L245.355 1188.18L259.093 1214.46L260.866 1213.54ZM272.831 1187.25L259.093 1213.54L260.866 1214.46L274.603 1188.18L272.831 1187.25ZM288.341 1213.54L274.603 1187.25L272.831 1188.18L286.568 1214.46L288.341 1213.54ZM300.306 1187.25L286.568 1213.54L288.341 1214.46L302.079 1188.18L300.306 1187.25ZM315.358 1212.66L302.079 1187.25L300.306 1188.18L313.586 1213.59L315.358 1212.66ZM326.866 1187.25L313.586 1212.66L315.358 1213.59L328.638 1188.18L326.866 1187.25ZM341.918 1212.66L328.638 1187.25L326.866 1188.18L340.145 1213.59L341.918 1212.66ZM353.425 1187.25L340.145 1212.66L341.918 1213.59L355.198 1188.18L353.425 1187.25ZM368.935 1213.54L355.198 1187.25L353.425 1188.18L367.163 1214.46L368.935 1213.54ZM380.901 1187.25L367.163 1213.54L368.935 1214.46L382.673 1188.18L380.901 1187.25ZM396.411 1213.54L382.673 1187.25L380.901 1188.18L394.638 1214.46L396.411 1213.54ZM408.376 1187.25L394.638 1213.54L396.411 1214.46L410.149 1188.18L408.376 1187.25ZM423.886 1213.54L410.149 1187.25L408.376 1188.18L422.114 1214.46L423.886 1213.54ZM435.851 1187.25L422.114 1213.54L423.886 1214.46L437.624 1188.18L435.851 1187.25ZM451.362 1213.54L437.624 1187.25L435.851 1188.18L449.589 1214.46L451.362 1213.54ZM463.327 1187.25L449.589 1213.54L451.362 1214.46L465.099 1188.18L463.327 1187.25ZM478.837 1213.54L465.099 1187.25L463.327 1188.18L477.065 1214.46L478.837 1213.54ZM490.802 1187.25L477.065 1213.54L478.837 1214.46L492.575 1188.18L490.802 1187.25ZM505.855 1212.66L492.575 1187.25L490.802 1188.18L504.082 1213.59L505.855 1212.66ZM517.362 1187.25L504.082 1212.66L505.855 1213.59L519.134 1188.18L517.362 1187.25ZM532.414 1212.66L519.134 1187.25L517.362 1188.18L530.642 1213.59L532.414 1212.66ZM543.921 1187.25L530.642 1212.66L532.414 1213.59L545.694 1188.18L543.921 1187.25ZM558.974 1212.66L545.694 1187.25L543.921 1188.18L557.201 1213.59L558.974 1212.66ZM570.481 1187.25L557.201 1212.66L558.974 1213.59L572.253 1188.18L570.481 1187.25ZM585.991 1213.54L572.253 1187.25L570.481 1188.18L584.219 1214.46L585.991 1213.54ZM597.956 1187.25L584.219 1213.54L585.991 1214.46L599.729 1188.18L597.956 1187.25ZM613.467 1213.54L599.729 1187.25L597.956 1188.18L611.694 1214.46L613.467 1213.54ZM625.432 1187.25L611.694 1213.54L613.467 1214.46L627.204 1188.18L625.432 1187.25ZM640.942 1213.54L627.204 1187.25L625.432 1188.18L639.169 1214.46L640.942 1213.54ZM652.907 1187.25L639.169 1213.54L640.942 1214.46L654.68 1188.18L652.907 1187.25ZM668.417 1213.54L654.68 1187.25L652.907 1188.18L666.645 1214.46L668.417 1213.54ZM680.383 1187.25L666.645 1213.54L668.417 1214.46L682.155 1188.18L680.383 1187.25ZM695.435 1212.66L682.155 1187.25L680.383 1188.18L693.662 1213.59L695.435 1212.66ZM706.942 1187.25L693.662 1212.66L695.435 1213.59L708.715 1188.18L706.942 1187.25ZM721.994 1212.66L708.715 1187.25L706.942 1188.18L720.222 1213.59L721.994 1212.66ZM733.502 1187.25L720.222 1212.66L721.994 1213.59L735.274 1188.18L733.502 1187.25ZM749.012 1213.54L735.274 1187.25L733.502 1188.18L747.239 1214.46L749.012 1213.54ZM760.977 1187.25L747.239 1213.54L749.012 1214.46L762.75 1188.18L760.977 1187.25ZM776.487 1213.54L762.75 1187.25L760.977 1188.18L774.715 1214.46L776.487 1213.54ZM788.453 1187.25L774.715 1213.54L776.487 1214.46L790.225 1188.18L788.453 1187.25ZM803.963 1213.54L790.225 1187.25L788.453 1188.18L802.19 1214.46L803.963 1213.54ZM815.928 1187.25L802.19 1213.54L803.963 1214.46L817.701 1188.18L815.928 1187.25ZM831.438 1213.54L817.701 1187.25L815.928 1188.18L829.666 1214.46L831.438 1213.54ZM841.114 1191.63L829.666 1213.54L831.438 1214.46L842.886 1192.56L841.114 1191.63ZM841 21.9069V1192.09H843V21.9069H841ZM829.666 0.463344L841.114 22.3701L842.886 21.4437L831.438 -0.462967L829.666 0.463344Z" fill="#CA6702" mask="url(#path-1-inside-1_548_1060)"/>
</g>
<defs>
<filter id="filter0_d_548_1060" x="0" y="-4.57764e-05" width="846" height="1222" filterUnits="userSpaceOnUse" color-interpolation-filters="sRGB">
<feFlood flood-opacity="0" result="BackgroundImageFix"/>
<feColorMatrix in="SourceAlpha" type="matrix" values="0 0 0 0 0 0 0 0 0 0 0 0 0 0 0 0 0 0 127 0" result="hardAlpha"/>
<feOffset dy="4"/>
<feGaussianBlur stdDeviation="2"/>
<feComposite in2="hardAlpha" operator="out"/>
<feColorMatrix type="matrix" values="0 0 0 0 0 0 0 0 0 0 0 0 0 0 0 0 0 0 0.25 0"/>
<feBlend mode="normal" in2="BackgroundImageFix" result="effect1_dropShadow_548_1060"/>
<feBlend mode="normal" in="SourceGraphic" in2="effect1_dropShadow_548_1060" result="shape"/>
</filter>
</defs>
</svg>
